<svg width="46" height="46" viewBox="0 0 46 46" fill="none" xmlns="http://www.w3.org/2000/svg">
<mask id="mask0_795_16082" style="mask-type:alpha" maskUnits="userSpaceOnUse" x="0" y="0" width="46" height="46">
<rect width="46" height="46" fill="#D9D9D9"/>
</mask>
<g mask="url(#mask0_795_16082)">
<path fill-rule="evenodd" clip-rule="evenodd" d="M11.4606 5.26726C14.5829 4.09646 18.7642 3.4126 23.2856 3.4126C27.807 3.4126 31.9883 4.09646 35.1106 5.26726C36.6644 5.84994 38.0587 6.59125 39.0999 7.51431C40.1387 8.43533 40.9999 9.70524 40.9999 11.2856V23.0952C40.9999 24.1822 40.1186 25.0634 39.0316 25.0634C37.9446 25.0634 37.0634 24.1822 37.0634 23.0952V16.435C36.4549 16.7571 35.7984 17.0461 35.1106 17.304C31.9883 18.4748 27.807 19.1586 23.2856 19.1586C18.7642 19.1586 14.5829 18.4748 11.4606 17.304C10.7728 17.0461 10.1163 16.7571 9.5078 16.435V23.0952C9.5078 23.1455 9.52794 23.429 10.0827 23.9209C10.6353 24.4107 11.5471 24.9418 12.8427 25.4276C15.4195 26.3938 19.1112 27.0317 23.2856 27.0317C24.8946 27.0317 26.4371 26.9376 27.8784 26.7626C28.9575 26.6315 29.9385 27.4001 30.0696 28.4792C30.2006 29.5583 29.4321 30.5393 28.353 30.6704C26.7474 30.8654 25.0462 30.9682 23.2856 30.9682C18.7642 30.9682 14.5829 30.2843 11.4606 29.1135C10.7728 28.8556 10.1163 28.5666 9.5078 28.2445V34.9047C9.5078 34.955 9.52794 35.2386 10.0827 35.7304C10.6353 36.2203 11.5471 36.7513 12.8427 37.2372C15.4195 38.2034 19.1112 38.8412 23.2856 38.8412C23.6068 38.8412 23.9259 38.8375 24.2428 38.83C25.3295 38.8042 26.2314 39.6644 26.2571 40.7511C26.2828 41.8378 25.4227 42.7396 24.336 42.7654C23.9876 42.7736 23.6375 42.7777 23.2856 42.7777C18.7642 42.7777 14.5829 42.0939 11.4606 40.9231C9.9067 40.3404 8.51244 39.5991 7.47129 38.676C6.43243 37.755 5.57129 36.4851 5.57129 34.9047V23.0952V23.0952V23.0952V11.2856V11.2856C5.57129 9.70524 6.43243 8.43533 7.47129 7.51431C8.51244 6.59125 9.9067 5.84994 11.4606 5.26726ZM10.0827 10.4599C9.52794 10.9518 9.5078 11.2353 9.5078 11.2856C9.5078 11.3359 9.52794 11.6195 10.0827 12.1113C10.6353 12.6012 11.5471 13.1322 12.8427 13.6181C15.4195 14.5843 19.1112 15.2221 23.2856 15.2221C27.4599 15.2221 31.1517 14.5843 33.7284 13.6181C35.0241 13.1322 35.9359 12.6012 36.4884 12.1113C37.0432 11.6195 37.0634 11.3359 37.0634 11.2856C37.0634 11.2353 37.0432 10.9518 36.4884 10.4599C35.9359 9.97003 35.0241 9.439 33.7284 8.95316C31.1517 7.98692 27.4599 7.34911 23.2856 7.34911C19.1112 7.34911 15.4195 7.98692 12.8427 8.95316C11.5471 9.439 10.6353 9.97003 10.0827 10.4599ZM35.0953 35.7198V42.7777C35.0953 43.8647 35.9765 44.7459 37.0636 44.7459C38.1506 44.7459 39.0318 43.8647 39.0318 42.7777V35.7201L41.5764 38.2647C42.3451 39.0333 43.5913 39.0333 44.36 38.2647C45.1286 37.496 45.1286 36.2498 44.36 35.4811L38.4698 29.591C38.416 29.536 38.359 29.4842 38.2991 29.4359C38.1725 29.3336 38.0363 29.2493 37.8938 29.183C37.6423 29.0659 37.362 29.0003 37.0665 28.9999C37.0563 28.9999 37.0462 28.9999 37.036 29.0001C36.8034 29.0033 36.5806 29.0468 36.3742 29.124C36.1179 29.2196 35.8777 29.3704 35.6717 29.5764L29.7669 35.4811C28.9982 36.2498 28.9982 37.496 29.7669 38.2647C30.5355 39.0333 31.7818 39.0333 32.5504 38.2647L35.0953 35.7198Z" fill="#FBBC43"/>
</g>
</svg>
