<svg width="46" height="46" viewBox="0 0 46 46" fill="none" xmlns="http://www.w3.org/2000/svg">
<mask id="mask0_795_16092" style="mask-type:alpha" maskUnits="userSpaceOnUse" x="0" y="0" width="46" height="46">
<rect width="46" height="46" fill="#D9D9D9"/>
</mask>
<g mask="url(#mask0_795_16092)">
<path fill-rule="evenodd" clip-rule="evenodd" d="M12.831 6.33657C15.6076 3.55991 19.3736 2 23.3004 2C27.2272 2 30.9932 3.55991 33.7698 6.33657C36.5465 9.11324 38.1064 12.8792 38.1064 16.806C38.1064 19.0021 37.6185 21.1479 36.7027 23.0984L43.3143 34.55C43.7043 35.2256 43.6909 36.0609 43.2793 36.7236C42.8677 37.3862 42.1248 37.7685 41.3464 37.7183L35.1435 37.3184L32.3884 42.8923C32.0427 43.5917 31.3401 44.044 30.5604 44.0692C29.7807 44.0943 29.0504 43.6882 28.6604 43.0125L23.2987 33.7242L17.9372 43.0106C17.5472 43.6861 16.817 44.0922 16.0373 44.0671C15.2576 44.0419 14.5551 43.5897 14.2094 42.8905L11.4545 37.3187L5.25183 37.7204C4.47333 37.7708 3.73029 37.3886 3.31856 36.726C2.90684 36.0634 2.89328 35.2279 3.2833 34.5523L9.89669 23.0955C8.98182 21.1457 8.49441 19.001 8.49441 16.806C8.49441 12.8792 10.0543 9.11324 12.831 6.33657ZM12.5407 26.9768L8.92327 33.2435L12.5887 33.0061C13.441 32.951 14.2429 33.4138 14.6215 34.1794L16.2498 37.4727L19.8665 31.2083C17.2243 30.5783 14.7831 29.2275 12.831 27.2754C12.7327 27.1771 12.6359 27.0776 12.5407 26.9768ZM32.4435 22.1211C32.4542 22.1019 32.4652 22.0828 32.4765 22.0639C33.3857 20.4771 33.8761 18.6668 33.8761 16.806C33.8761 14.0011 32.7619 11.3112 30.7786 9.32784C28.7952 7.34451 26.1053 6.23028 23.3004 6.23028C20.4956 6.23028 17.8056 7.34451 15.8222 9.32784C13.8389 11.3112 12.7247 14.0011 12.7247 16.806C12.7247 19.6108 13.8389 22.3008 15.8222 24.2841C17.7981 26.26 20.4753 27.3733 23.2688 27.3817C23.289 27.3814 23.3092 27.3814 23.3293 27.3817C26.1238 27.374 28.8021 26.2607 30.7786 24.2841C31.4303 23.6324 31.9882 22.9044 32.4435 22.1211ZM33.7698 27.2754C31.8169 29.2283 29.3747 30.5793 26.7313 31.209L30.3477 37.474L31.9761 34.1796C32.3545 33.4141 33.1561 32.9512 34.0083 33.0061L37.6747 33.2425L34.0583 26.9787C33.9637 27.0788 33.8675 27.1777 33.7698 27.2754Z" fill="#FBBC43"/>
</g>
</svg>
