<svg width="46" height="46" viewBox="0 0 46 46" fill="none" xmlns="http://www.w3.org/2000/svg">
<mask id="mask0_795_16100" style="mask-type:alpha" maskUnits="userSpaceOnUse" x="0" y="0" width="46" height="46">
<rect width="46" height="46" fill="#D9D9D9"/>
</mask>
<g mask="url(#mask0_795_16100)">
<path d="M20.8408 33H12.2316C7.13312 32.992 3 28.9792 3 24.0287C3 19.0802 7.13312 15.0674 12.2316 15.0674C13.0107 11.5444 15.7879 8.66927 19.5166 7.52361C23.2434 6.37995 27.3586 7.13773 30.3083 9.52302C33.258 11.9023 34.5941 15.5352 33.817 19.0582H35.7795C38.531 19.0582 40.9038 20.6977 42 23.071" stroke="#FBBC43" stroke-width="4" stroke-linecap="round" stroke-linejoin="round"/>
<path fill-rule="evenodd" clip-rule="evenodd" d="M42.4142 28.5858C43.1953 29.3668 43.1953 30.6332 42.4142 31.4142L34.4142 39.4142C33.6332 40.1953 32.3668 40.1953 31.5858 39.4142L27.5858 35.4142C26.8047 34.6332 26.8047 33.3668 27.5858 32.5858C28.3668 31.8047 29.6332 31.8047 30.4142 32.5858L33 35.1716L39.5858 28.5858C40.3668 27.8047 41.6332 27.8047 42.4142 28.5858Z" fill="#FBBC43"/>
</g>
</svg>
