<svg width="46" height="46" viewBox="0 0 46 46" fill="none" xmlns="http://www.w3.org/2000/svg">
<mask id="mask0_795_16071" style="mask-type:alpha" maskUnits="userSpaceOnUse" x="0" y="0" width="46" height="46">
<rect width="46" height="46" fill="#D9D9D9"/>
</mask>
<g mask="url(#mask0_795_16071)">
<path fill-rule="evenodd" clip-rule="evenodd" d="M21.7177 8.56124C23.7138 7.53668 25.9252 7.00228 28.1689 7.00228C30.4126 7.00228 32.624 7.53668 34.6201 8.56124C36.6162 9.58579 38.3396 11.071 39.6476 12.894C40.2974 13.7997 41.5583 14.0071 42.4639 13.3573C43.3696 12.7075 43.577 11.4466 42.9272 10.5409C41.2455 8.19709 39.0297 6.28748 36.4633 4.97019C33.8969 3.6529 31.0536 2.96582 28.1689 2.96582C25.2841 2.96582 22.4409 3.6529 19.8745 4.97019C17.308 6.28748 15.0923 8.19709 13.4106 10.5409C12.7608 11.4466 12.9682 12.7075 13.8738 13.3573C14.7795 14.0071 16.0404 13.7997 16.6902 12.894C17.9982 11.071 19.7216 9.58579 21.7177 8.56124ZM28.1687 14.9099C27.2072 14.9099 26.2594 15.1389 25.4039 15.578C24.5485 16.0171 23.8099 16.6536 23.2493 17.4349C22.5995 18.3405 21.3386 18.548 20.4329 17.8982C19.5273 17.2484 19.3199 15.9874 19.9697 15.0818C20.904 13.7797 22.1349 12.7188 23.5607 11.9869C24.9865 11.2551 26.5661 10.8734 28.1687 10.8734C29.7714 10.8734 31.351 11.2551 32.7768 11.9869C34.2025 12.7188 35.4335 13.7797 36.3678 15.0818C37.0176 15.9874 36.8102 17.2484 35.9045 17.8982C34.9989 18.548 33.738 18.3405 33.0882 17.4349C32.5276 16.6536 31.789 16.0171 30.9335 15.578C30.0781 15.1389 29.1303 14.9099 28.1687 14.9099ZM30.1872 20.7995C30.1872 19.6848 29.2836 18.7812 28.1689 18.7812C27.0543 18.7812 26.1507 19.6848 26.1507 20.7995V22.8177H7.98633C6.38053 22.8177 4.84049 23.4556 3.70502 24.591C2.56954 25.7265 1.93164 27.2665 1.93164 28.8723V36.9453C1.93164 38.5511 2.56954 40.0911 3.70502 41.2266C4.84049 42.3621 6.38053 43 7.98633 43H36.2416C37.8474 43 39.3874 42.3621 40.5229 41.2266C41.6584 40.0911 42.2963 38.5511 42.2963 36.9453V28.8723C42.2963 27.2665 41.6584 25.7265 40.5229 24.591C39.3874 23.4556 37.8474 22.8177 36.2416 22.8177H30.1872V20.7995ZM28.157 26.8541L28.1689 26.8542L28.1808 26.8541H36.2416C36.7768 26.8541 37.2902 27.0668 37.6687 27.4452C38.0472 27.8237 38.2598 28.3371 38.2598 28.8723V36.9453C38.2598 37.4805 38.0472 37.9939 37.6687 38.3724C37.2902 38.7509 36.7768 38.9635 36.2416 38.9635H7.98633C7.45107 38.9635 6.93772 38.7509 6.55923 38.3724C6.18074 37.9939 5.9681 37.4805 5.9681 36.9453V28.8723C5.9681 28.3371 6.18074 27.8237 6.55923 27.4452C6.93772 27.0668 7.45107 26.8541 7.98633 26.8541H28.157ZM34.2233 32.909C34.2233 31.7944 33.3198 30.8908 32.2051 30.8908C31.0905 30.8908 30.1869 31.7944 30.1869 32.909V32.9292C30.1869 34.0438 31.0905 34.9474 32.2051 34.9474C33.3198 34.9474 34.2233 34.0438 34.2233 32.9292V32.909ZM24.1323 30.8908C25.2469 30.8908 26.1505 31.7944 26.1505 32.909V32.9292C26.1505 34.0438 25.2469 34.9474 24.1323 34.9474C23.0176 34.9474 22.114 34.0438 22.114 32.9292V32.909C22.114 31.7944 23.0176 30.8908 24.1323 30.8908Z" fill="#FBBC43"/>
</g>
</svg>
