<svg width="440" height="269" viewBox="0 0 440 269" fill="none" xmlns="http://www.w3.org/2000/svg">
<path d="M75.4492 269C34.5519 269 0 233.245 0 190.92C0 148.595 33.4952 113.979 73.5819 112.867C73.4072 111.341 73.3177 109.832 73.3177 108.356C73.3177 86.1891 91.2474 68.1516 113.283 68.1516C121.478 68.1516 129.225 70.5786 135.879 75.2028C148.122 30.7574 188.124 0 234.296 0C258.929 0 282.707 8.9422 301.25 25.1786C319.014 40.7352 330.894 61.9831 334.875 85.2076C340.128 84.253 345.282 83.7892 350.557 83.7892C399.877 83.7892 440 124.376 440 174.269C440 224.163 399.918 263.768 350.647 264.704C322.516 265.146 75.888 269 75.4492 269ZM75.5342 117.275C36.979 117.275 4.40631 151 4.40631 190.92C4.40631 230.84 36.9387 264.565 75.4447 264.565C76.797 264.551 347.83 260.31 350.566 260.269C397.441 259.378 435.585 220.795 435.585 174.269C435.585 127.744 397.437 88.2243 350.553 88.2243C344.825 88.2243 339.246 88.8007 333.501 89.9894L331.217 90.4621L330.872 88.1433C323.797 40.42 282.277 4.43058 234.287 4.43058C189.042 4.43058 149.989 35.296 139.323 79.4892L138.494 82.9157L135.781 80.6779C129.355 75.3829 121.577 72.5822 113.275 72.5822C93.67 72.5822 77.7195 88.6296 77.7195 108.351C77.7195 110.404 77.912 112.534 78.2927 114.682L78.7584 117.307L75.5253 117.271L75.5342 117.275Z" fill="#5E5E5E"/>
</svg>
