<svg width="46" height="46" viewBox="0 0 46 46" fill="none" xmlns="http://www.w3.org/2000/svg">
<mask id="mask0_52_468" style="mask-type:alpha" maskUnits="userSpaceOnUse" x="0" y="0" width="46" height="46">
<rect width="46" height="46" fill="#D9D9D9"/>
</mask>
<g mask="url(#mask0_52_468)">
<path fill-rule="evenodd" clip-rule="evenodd" d="M21.8375 3.37253C22.5329 2.87582 23.4671 2.87582 24.1625 3.37253L24.9351 3.92441C28.5439 6.50215 32.9774 7.65687 37.3852 7.16712L38.7791 7.01223C39.3445 6.94941 39.91 7.13034 40.3338 7.50974C40.7577 7.88915 41 8.43111 41 9V23.1115C41 29.9294 37.148 36.1621 31.0498 39.2111L23.8944 42.7889C23.3314 43.0704 22.6686 43.0704 22.1056 42.7889L14.9502 39.2111C8.85204 36.1621 5 29.9294 5 23.1115V9C5 8.43111 5.24226 7.88915 5.66616 7.50974C6.09005 7.13034 6.65546 6.94941 7.22086 7.01223L8.61484 7.16712C13.0226 7.65687 17.4561 6.50215 21.0649 3.92441L21.8375 3.37253ZM23 7.4515C18.8905 10.2549 13.9545 11.5808 9 11.2188V23.1115C9 28.4143 11.996 33.2619 16.739 35.6334L23 38.7639L29.261 35.6334C34.004 33.2619 37 28.4143 37 23.1115V11.2188C32.0455 11.5808 27.1095 10.2549 23 7.4515Z" fill="url(#paint0_linear_52_468)"/>
</g>
<defs>
<linearGradient id="paint0_linear_52_468" x1="23" y1="3" x2="23" y2="43" gradientUnits="userSpaceOnUse">
<stop stop-color="#E83181"/>
<stop offset="1" stop-color="#E94B57"/>
</linearGradient>
</defs>
</svg>
