<svg width="46" height="46" viewBox="0 0 46 46" fill="none" xmlns="http://www.w3.org/2000/svg">
<mask id="mask0_52_465" style="mask-type:alpha" maskUnits="userSpaceOnUse" x="0" y="0" width="46" height="46">
<rect width="46" height="46" fill="#D9D9D9"/>
</mask>
<g mask="url(#mask0_52_465)">
<path fill-rule="evenodd" clip-rule="evenodd" d="M23 11.75C18.408 11.75 14.4407 14.3828 12.5964 18.1971C12.2988 18.8125 11.6836 19.2218 10.9891 19.2663C6.99407 19.5225 3.83333 22.7759 3.83333 26.75C3.83333 30.7711 7.06888 34.0538 11.1309 34.2415L13.4239 34.25C14.4825 34.2539 15.3373 35.0966 15.3333 36.1321C15.3293 37.1676 14.4679 38.0039 13.4094 38L11.077 37.9913C11.0522 37.9912 11.0274 37.9907 11.0026 37.9896C4.88128 37.7341 0 32.8002 0 26.75C0 21.1591 4.16803 16.5219 9.63132 15.648C12.2586 11.0864 17.2591 8 23 8C30.1853 8 36.2138 12.8333 37.8779 19.3583C42.4771 20.0466 46 23.9333 46 28.625C46 33.6463 41.9655 37.7447 36.8934 37.9886C36.8635 37.99 36.8335 37.9908 36.8036 37.9908L32.5876 38C31.5291 38.0023 30.669 37.1647 30.6667 36.1292C30.6643 35.0936 31.5205 34.2523 32.5791 34.25L36.7469 34.2409C39.768 34.0744 42.1667 31.6231 42.1667 28.625C42.1667 25.5225 39.5991 23.0066 36.4292 23L36.308 23.0017C35.344 23.0149 34.52 22.3257 34.3837 21.3921C33.5875 15.9412 28.7924 11.75 23 11.75ZM23 17.375C24.0585 17.375 24.9167 18.2145 24.9167 19.25V29.7234L27.3947 27.2992C28.1432 26.5669 29.3568 26.5669 30.1053 27.2992C30.8538 28.0314 30.8538 29.2186 30.1053 29.9508L24.3553 35.5758C23.6068 36.3081 22.3932 36.3081 21.6447 35.5758L15.8947 29.9508C15.1462 29.2186 15.1462 28.0314 15.8947 27.2992C16.6432 26.5669 17.8568 26.5669 18.6053 27.2992L21.0833 29.7234V19.25C21.0833 18.2145 21.9415 17.375 23 17.375Z" fill="url(#paint0_linear_52_465)"/>
</g>
<defs>
<linearGradient id="paint0_linear_52_465" x1="23" y1="8" x2="23" y2="38" gradientUnits="userSpaceOnUse">
<stop stop-color="#E83181"/>
<stop offset="1" stop-color="#E94B57"/>
</linearGradient>
</defs>
</svg>
