<svg width="46" height="46" viewBox="0 0 46 46" fill="none" xmlns="http://www.w3.org/2000/svg">
<mask id="mask0_1150_1479" style="mask-type:alpha" maskUnits="userSpaceOnUse" x="0" y="0" width="46" height="46">
<rect width="46" height="46" fill="#D9D9D9"/>
</mask>
<g mask="url(#mask0_1150_1479)">
<path d="M9.40039 16.7803C9.40039 20.3343 10.8122 23.7428 13.3253 26.2559C15.8384 28.769 19.2469 30.1808 22.8009 30.1808C26.355 30.1808 29.7634 28.769 32.2765 26.2559C34.7896 23.7428 36.2015 20.3343 36.2015 16.7803C36.2015 13.2263 34.7896 9.81777 32.2765 7.30469C29.7634 4.7916 26.355 3.37976 22.8009 3.37976C19.2469 3.37976 15.8384 4.7916 13.3253 7.30469C10.8122 9.81777 9.40039 13.2263 9.40039 16.7803Z" stroke="#2D9BBC" stroke-width="4.46684" stroke-linecap="round" stroke-linejoin="round"/>
<path d="M22.8027 30.1807L30.3964 43.3356L33.9654 36.1149L42.0012 36.6331L34.4076 23.4805" stroke="#2D9BBC" stroke-width="4.46684" stroke-linecap="round" stroke-linejoin="round"/>
<path d="M11.1932 23.4805L3.59961 36.6353L11.6355 36.1149L15.2045 43.3334L22.7981 30.1807" stroke="#2D9BBC" stroke-width="4.46684" stroke-linecap="round" stroke-linejoin="round"/>
</g>
</svg>
