<svg width="46" height="46" viewBox="0 0 46 46" fill="none" xmlns="http://www.w3.org/2000/svg">
<mask id="mask0_1150_1453" style="mask-type:alpha" maskUnits="userSpaceOnUse" x="0" y="0" width="46" height="46">
<rect width="46" height="46" fill="#D9D9D9"/>
</mask>
<g mask="url(#mask0_1150_1453)">
<path d="M39.6778 24.2887L23.0236 40.7829L6.36945 24.2887C5.27096 23.2197 4.40569 21.9349 3.82814 20.5151C3.25058 19.0954 2.97326 17.5714 3.01362 16.0392C3.05398 14.507 3.41115 12.9997 4.06265 11.6123C4.71415 10.2249 5.64586 8.98741 6.7991 7.97778C7.95235 6.96815 9.30215 6.20824 10.7635 5.7459C12.2249 5.28356 13.7661 5.12882 15.2902 5.2914C16.8143 5.45398 18.2883 5.93038 19.6192 6.69058C20.9502 7.45079 22.1093 8.47833 23.0236 9.70852C23.9419 8.48727 25.1023 7.46869 26.4324 6.71656C27.7624 5.96442 29.2334 5.49491 30.7532 5.33741C32.273 5.1799 33.809 5.3378 35.265 5.80122C36.721 6.26463 38.0657 7.02359 39.2149 8.03059C40.3641 9.03759 41.293 10.271 41.9437 11.6535C42.5943 13.036 42.9525 14.538 42.9959 16.0653C43.0394 17.5927 42.7671 19.1125 42.1962 20.5298C41.6252 21.9471 40.7678 23.2313 39.6778 24.302" stroke="#2D9BBC" stroke-width="4.44111" stroke-linecap="round" stroke-linejoin="round"/>
<path d="M23.0249 9.69531L15.7126 17.0076C15.2964 17.424 15.0625 17.9887 15.0625 18.5775C15.0625 19.1663 15.2964 19.731 15.7126 20.1475L16.9184 21.3532C18.4506 22.8854 20.9376 22.8854 22.4698 21.3532L24.6903 19.1327C26.0154 17.8076 27.8126 17.0632 29.6866 17.0632C31.5605 17.0632 33.3577 17.8076 34.6828 19.1327L39.6791 24.1289" stroke="#2D9BBC" stroke-width="4.44111" stroke-linecap="round" stroke-linejoin="round"/>
<path d="M24.1348 30.7905L28.5759 35.2316" stroke="#2D9BBC" stroke-width="4.44111" stroke-linecap="round" stroke-linejoin="round"/>
<path d="M29.6875 25.2393L34.1286 29.6804" stroke="#2D9BBC" stroke-width="4.44111" stroke-linecap="round" stroke-linejoin="round"/>
</g>
</svg>
