<svg width="46" height="46" viewBox="0 0 46 46" fill="none" xmlns="http://www.w3.org/2000/svg">
<mask id="mask0_1150_1466" style="mask-type:alpha" maskUnits="userSpaceOnUse" x="0" y="0" width="46" height="46">
<rect width="46" height="46" fill="#D9D9D9"/>
</mask>
<g mask="url(#mask0_1150_1466)">
<path d="M3.18164 25.4515C7.6195 25.9789 11.7509 27.984 14.911 31.1441C18.0711 34.3042 20.0762 38.4356 20.6036 42.8734C22.8036 41.6052 24.6438 39.7968 25.9503 37.6193C27.2567 35.4418 27.9864 32.9671 28.0702 30.4292C32.2493 28.959 35.8985 26.2827 38.5566 22.7386C41.2147 19.1945 42.7621 14.9419 43.0033 10.5183C43.0033 8.53807 42.2167 6.63892 40.8164 5.23866C39.4162 3.83841 37.517 3.05176 35.5368 3.05176C31.1132 3.29295 26.8605 4.84041 23.3165 7.49848C19.7724 10.1565 17.0961 13.8058 15.6259 17.9849C13.0879 18.0687 10.6133 18.7983 8.43577 20.1048C6.25829 21.4113 4.44994 23.2515 3.18164 25.4515Z" stroke="#2D9BBC" stroke-width="4.97771" stroke-linecap="round" stroke-linejoin="round"/>
<path d="M10.6445 27.9402C8.05413 29.4026 5.95957 31.6052 4.62928 34.2658C3.29899 36.9264 2.7936 39.9236 3.17789 42.8733C6.12758 43.2576 9.12482 42.7522 11.7854 41.4219C14.446 40.0916 16.6486 37.9971 18.111 35.4068" stroke="#2D9BBC" stroke-width="4.97771" stroke-linecap="round" stroke-linejoin="round"/>
<path d="M28.0664 15.4961C28.0664 16.1561 28.3286 16.7892 28.7954 17.2559C29.2621 17.7227 29.8952 17.9849 30.5553 17.9849C31.2153 17.9849 31.8484 17.7227 32.3151 17.2559C32.7819 16.7892 33.0441 16.1561 33.0441 15.4961C33.0441 14.836 32.7819 14.2029 32.3151 13.7362C31.8484 13.2694 31.2153 13.0072 30.5553 13.0072C29.8952 13.0072 29.2621 13.2694 28.7954 13.7362C28.3286 14.2029 28.0664 14.836 28.0664 15.4961Z" stroke="#2D9BBC" stroke-width="4.97771" stroke-linecap="round" stroke-linejoin="round"/>
</g>
</svg>
