<svg width="46" height="46" viewBox="0 0 46 46" fill="none" xmlns="http://www.w3.org/2000/svg">
<mask id="mask0_1150_1411" style="mask-type:alpha" maskUnits="userSpaceOnUse" x="0" y="0" width="46" height="46">
<rect width="46" height="46" fill="#D9D9D9"/>
</mask>
<g mask="url(#mask0_1150_1411)">
<path d="M5 5V41H41" stroke="#2D9BBC" stroke-width="4" stroke-linecap="round" stroke-linejoin="round"/>
<path d="M13 17C13 18.0609 13.4214 19.0783 14.1716 19.8284C14.9217 20.5786 15.9391 21 17 21C18.0609 21 19.0783 20.5786 19.8284 19.8284C20.5786 19.0783 21 18.0609 21 17C21 15.9391 20.5786 14.9217 19.8284 14.1716C19.0783 13.4214 18.0609 13 17 13C15.9391 13 14.9217 13.4214 14.1716 14.1716C13.4214 14.9217 13 15.9391 13 17Z" stroke="#2D9BBC" stroke-width="4" stroke-linecap="round" stroke-linejoin="round"/>
<path d="M33 13C33 14.0609 33.4214 15.0783 34.1716 15.8284C34.9217 16.5786 35.9391 17 37 17C38.0609 17 39.0783 16.5786 39.8284 15.8284C40.5786 15.0783 41 14.0609 41 13C41 11.9391 40.5786 10.9217 39.8284 10.1716C39.0783 9.42143 38.0609 9 37 9C35.9391 9 34.9217 9.42143 34.1716 10.1716C33.4214 10.9217 33 11.9391 33 13Z" stroke="#2D9BBC" stroke-width="4" stroke-linecap="round" stroke-linejoin="round"/>
<path d="M23 29C23 30.0609 23.4214 31.0783 24.1716 31.8284C24.9217 32.5786 25.9391 33 27 33C28.0609 33 29.0783 32.5786 29.8284 31.8284C30.5786 31.0783 31 30.0609 31 29C31 27.9391 30.5786 26.9217 29.8284 26.1716C29.0783 25.4214 28.0609 25 27 25C25.9391 25 24.9217 25.4214 24.1716 26.1716C23.4214 26.9217 23 27.9391 23 29Z" stroke="#2D9BBC" stroke-width="4" stroke-linecap="round" stroke-linejoin="round"/>
<path d="M19.3203 20.2402L24.0003 26.0002" stroke="#2D9BBC" stroke-width="4" stroke-linecap="round" stroke-linejoin="round"/>
<path d="M29.1758 25.6559L34.8498 16.4839" stroke="#2D9BBC" stroke-width="4" stroke-linecap="round" stroke-linejoin="round"/>
</g>
</svg>
