<svg width="46" height="46" viewBox="0 0 46 46" fill="none" xmlns="http://www.w3.org/2000/svg">
<mask id="mask0_809_14636" style="mask-type:alpha" maskUnits="userSpaceOnUse" x="0" y="0" width="46" height="46">
<rect width="46" height="46" fill="#D9D9D9"/>
</mask>
<g mask="url(#mask0_809_14636)">
<path fill-rule="evenodd" clip-rule="evenodd" d="M19.7002 23C19.7002 21.1774 21.1777 19.7 23.0002 19.7C24.8227 19.7 26.3002 21.1774 26.3002 23C26.3002 24.8225 24.8227 26.3 23.0002 26.3C21.1777 26.3 19.7002 24.8225 19.7002 23Z" fill="#2D9BBC"/>
<path fill-rule="evenodd" clip-rule="evenodd" d="M16.2652 6.73962C18.4005 5.85514 20.6891 5.3999 23.0004 5.3999C25.3117 5.3999 27.6003 5.85514 29.7356 6.73962C31.871 7.62411 33.8112 8.92051 35.4455 10.5548C37.0798 12.1891 38.3762 14.1293 39.2607 16.2647C40.1452 18.4 40.6004 20.6886 40.6004 22.9999C40.6004 25.3112 40.1452 27.5998 39.2607 29.7351C38.3762 31.8705 37.0798 33.8107 35.4455 35.445C33.8112 37.0793 31.871 38.3757 29.7356 39.2602C27.6003 40.1447 25.3117 40.5999 23.0004 40.5999C20.6891 40.5999 18.4005 40.1447 16.2652 39.2602C14.1298 38.3757 12.1896 37.0793 10.5553 35.445C8.921 33.8107 7.62459 31.8705 6.74011 29.7351C5.85563 27.5998 5.40039 25.3112 5.40039 22.9999C5.40039 20.6886 5.85563 18.4 6.74011 16.2647C7.62459 14.1293 8.921 12.1891 10.5553 10.5548C12.1896 8.92051 14.1298 7.62411 16.2652 6.73962ZM23.0004 9.7999C21.2669 9.7999 19.5505 10.1413 17.949 10.8047C16.3475 11.4681 14.8923 12.4404 13.6666 13.6661C12.4408 14.8918 11.4685 16.347 10.8052 17.9485C10.1418 19.55 9.80039 21.2665 9.80039 22.9999C9.80039 24.7334 10.1418 26.4498 10.8052 28.0513C11.4685 29.6528 12.4408 31.108 13.6666 32.3337C14.8923 33.5594 16.3475 34.5318 17.949 35.1951C19.5505 35.8585 21.2669 36.1999 23.0004 36.1999C24.7338 36.1999 26.4503 35.8585 28.0518 35.1951C29.6533 34.5318 31.1085 33.5594 32.3342 32.3337C33.5599 31.108 34.5322 29.6528 35.1956 28.0513C35.859 26.4498 36.2004 24.7334 36.2004 22.9999C36.2004 21.2665 35.859 19.55 35.1956 17.9485C34.5322 16.347 33.5599 14.8918 32.3342 13.6661C31.1085 12.4404 29.6533 11.4681 28.0518 10.8047C26.4503 10.1413 24.7338 9.7999 23.0004 9.7999Z" fill="#2D9BBC"/>
<path fill-rule="evenodd" clip-rule="evenodd" d="M22.9998 1C24.2148 1 25.1998 1.98497 25.1998 3.2V7.6C25.1998 8.81503 24.2148 9.8 22.9998 9.8C21.7848 9.8 20.7998 8.81503 20.7998 7.6V3.2C20.7998 1.98497 21.7848 1 22.9998 1Z" fill="#2D9BBC"/>
<path fill-rule="evenodd" clip-rule="evenodd" d="M1 23C1 21.785 1.98497 20.8 3.2 20.8H7.6C8.81503 20.8 9.8 21.785 9.8 23C9.8 24.2151 8.81503 25.2 7.6 25.2H3.2C1.98497 25.2 1 24.2151 1 23Z" fill="#2D9BBC"/>
<path fill-rule="evenodd" clip-rule="evenodd" d="M22.9998 36.2C24.2148 36.2 25.1998 37.1849 25.1998 38.4V42.8C25.1998 44.015 24.2148 45 22.9998 45C21.7848 45 20.7998 44.015 20.7998 42.8V38.4C20.7998 37.1849 21.7848 36.2 22.9998 36.2Z" fill="#2D9BBC"/>
<path fill-rule="evenodd" clip-rule="evenodd" d="M36.2002 23C36.2002 21.785 37.1852 20.8 38.4002 20.8H42.8002C44.0152 20.8 45.0002 21.785 45.0002 23C45.0002 24.2151 44.0152 25.2 42.8002 25.2H38.4002C37.1852 25.2 36.2002 24.2151 36.2002 23Z" fill="#2D9BBC"/>
</g>
</svg>
