<svg width="46" height="46" viewBox="0 0 46 46" fill="none" xmlns="http://www.w3.org/2000/svg">
<mask id="mask0_809_14625" style="mask-type:alpha" maskUnits="userSpaceOnUse" x="0" y="0" width="46" height="46">
<rect width="46" height="46" fill="#D9D9D9"/>
</mask>
<g mask="url(#mask0_809_14625)">
<path d="M7 17.7596C7 13.7602 10.3371 10.5168 14.4514 10.5168C15.08 7.67012 17.32 5.34843 20.3303 4.42441C23.3406 3.49807 26.6617 4.11174 29.0411 6.03443C31.4229 7.95246 32.5017 10.8878 31.8731 13.7345H33.4571C34.9238 13.7314 36.3316 14.3231 37.371 15.3793C38.4104 16.4356 38.9964 17.8701 39 19.3673C38.9964 20.8645 38.4104 22.2989 37.371 23.3552C36.3316 24.4114 34.9238 25.0031 33.4571 25H14.4514C10.3371 25 7 21.7566 7 17.7596Z" stroke="#2D9BBC" stroke-width="4" stroke-linecap="round" stroke-linejoin="round"/>
<path d="M23 25V32" stroke="#2D9BBC" stroke-width="4" stroke-linecap="round" stroke-linejoin="round"/>
<path d="M18 37C18 38.3261 18.5268 39.5979 19.4645 40.5355C20.4021 41.4732 21.6739 42 23 42C24.3261 42 25.5979 41.4732 26.5355 40.5355C27.4732 39.5979 28 38.3261 28 37C28 35.6739 27.4732 34.4021 26.5355 33.4645C25.5979 32.5268 24.3261 32 23 32C21.6739 32 20.4021 32.5268 19.4645 33.4645C18.5268 34.4021 18 35.6739 18 37Z" stroke="#2D9BBC" stroke-width="4" stroke-linecap="round" stroke-linejoin="round"/>
<path d="M28 37H44" stroke="#2D9BBC" stroke-width="4" stroke-linecap="round" stroke-linejoin="round"/>
<path d="M2 37H18" stroke="#2D9BBC" stroke-width="4" stroke-linecap="round" stroke-linejoin="round"/>
</g>
</svg>
