<svg width="46" height="46" viewBox="0 0 46 46" fill="none" xmlns="http://www.w3.org/2000/svg">
<mask id="mask0_809_14648" style="mask-type:alpha" maskUnits="userSpaceOnUse" x="0" y="0" width="46" height="46">
<rect width="46" height="46" fill="#D9D9D9"/>
</mask>
<g mask="url(#mask0_809_14648)">
<path fill-rule="evenodd" clip-rule="evenodd" d="M14.581 2.67465C17.2501 1.56905 20.1109 1 23 1C25.8891 1 28.7499 1.56905 31.419 2.67465C34.0882 3.78025 36.5135 5.40076 38.5564 7.44365C40.5992 9.48654 42.2197 11.9118 43.3254 14.581C44.431 17.2501 45 20.1109 45 23C45 25.8891 44.431 28.7499 43.3254 31.419C42.2197 34.0882 40.5992 36.5135 38.5564 38.5564C36.5135 40.5992 34.0882 42.2197 31.419 43.3254C28.7499 44.431 25.8891 45 23 45C20.1109 45 17.2501 44.431 14.581 43.3254C11.9118 42.2197 9.48654 40.5992 7.44365 38.5564C5.40076 36.5135 3.78025 34.0882 2.67465 31.419C1.56905 28.7499 1 25.8891 1 23C1 20.1109 1.56905 17.2501 2.67465 14.581C3.78025 11.9118 5.40076 9.48654 7.44365 7.44365C9.48654 5.40076 11.9118 3.78025 14.581 2.67465ZM23 5.4C20.6887 5.4 18.4001 5.85524 16.2648 6.73972C14.1294 7.6242 12.1892 8.92061 10.5549 10.5549C8.92061 12.1892 7.6242 14.1294 6.73972 16.2648C5.85524 18.4001 5.4 20.6887 5.4 23C5.4 25.3113 5.85524 27.5999 6.73972 29.7352C7.6242 31.8706 8.92061 33.8108 10.5549 35.4451C12.1892 37.0794 14.1294 38.3758 16.2648 39.2603C18.4001 40.1448 20.6887 40.6 23 40.6C25.3113 40.6 27.5999 40.1448 29.7352 39.2603C31.8706 38.3758 33.8108 37.0794 35.4451 35.4451C37.0794 33.8108 38.3758 31.8706 39.2603 29.7352C40.1448 27.5999 40.6 25.3113 40.6 23C40.6 20.6887 40.1448 18.4001 39.2603 16.2648C38.3758 14.1294 37.0794 12.1892 35.4451 10.5549C33.8108 8.92061 31.8706 7.6242 29.7352 6.73972C27.5999 5.85524 25.3113 5.4 23 5.4Z" fill="#2D9BBC"/>
<path fill-rule="evenodd" clip-rule="evenodd" d="M31.1558 17.0443C32.015 17.9034 32.015 19.2964 31.1558 20.1555L22.3558 28.9555C21.4967 29.8147 20.1037 29.8147 19.2446 28.9555L14.8446 24.5555C13.9854 23.6964 13.9854 22.3034 14.8446 21.4443C15.7037 20.5851 17.0967 20.5851 17.9558 21.4443L20.8002 24.2886L28.0446 17.0443C28.9037 16.1851 30.2967 16.1851 31.1558 17.0443Z" fill="#2D9BBC"/>
</g>
</svg>
