<svg width="46" height="46" viewBox="0 0 46 46" fill="none" xmlns="http://www.w3.org/2000/svg">
<mask id="mask0_809_14656" style="mask-type:alpha" maskUnits="userSpaceOnUse" x="0" y="0" width="46" height="46">
<rect width="46" height="46" fill="#D9D9D9"/>
</mask>
<g mask="url(#mask0_809_14656)">
<path d="M14 11.5C14 14.0196 14.9482 16.4359 16.636 18.2175C18.3239 19.9991 20.6131 21 23 21C25.3869 21 27.6761 19.9991 29.364 18.2175C31.0518 16.4359 32 14.0196 32 11.5C32 8.98044 31.0518 6.56408 29.364 4.78249C27.6761 3.00089 25.3869 2 23 2C20.6131 2 18.3239 3.00089 16.636 4.78249C14.9482 6.56408 14 8.98044 14 11.5Z" stroke="#2D9BBC" stroke-width="4" stroke-linecap="round" stroke-linejoin="round"/>
<path d="M9 44V39.3333C9 36.858 9.98333 34.484 11.7337 32.7337C13.484 30.9833 15.858 30 18.3333 30H27.6667C30.142 30 32.516 30.9833 34.2663 32.7337C36.0167 34.484 37 36.858 37 39.3333V44" stroke="#2D9BBC" stroke-width="4" stroke-linecap="round" stroke-linejoin="round"/>
</g>
</svg>
