<svg width="46" height="46" viewBox="0 0 46 46" fill="none" xmlns="http://www.w3.org/2000/svg">
<mask id="mask0_809_12336" style="mask-type:alpha" maskUnits="userSpaceOnUse" x="0" y="0" width="46" height="46">
<rect width="46" height="46" fill="#D9D9D9"/>
</mask>
<g mask="url(#mask0_809_12336)">
<path fill-rule="evenodd" clip-rule="evenodd" d="M12.1744 6.318C14.9392 3.55323 18.6891 2 22.599 2C26.509 2 30.2588 3.55323 33.0236 6.318C35.7884 9.08277 37.3416 12.8326 37.3416 16.7426C37.3416 20.6526 35.7884 24.4024 33.0236 27.1672C30.2588 29.9319 26.509 31.4852 22.599 31.4852C18.6891 31.4852 14.9392 29.9319 12.1744 27.1672C9.40968 24.4024 7.85645 20.6526 7.85645 16.7426C7.85645 12.8326 9.40968 9.08277 12.1744 6.318ZM22.599 6.21217C19.8062 6.21217 17.1277 7.32162 15.1529 9.29645C13.1781 11.2713 12.0686 13.9497 12.0686 16.7426C12.0686 19.5354 13.1781 22.2139 15.1529 24.1887C17.1277 26.1635 19.8062 27.273 22.599 27.273C25.3919 27.273 28.0703 26.1635 30.0452 24.1887C32.02 22.2139 33.1294 19.5354 33.1294 16.7426C33.1294 13.9497 32.02 11.2713 30.0452 9.29645C28.0703 7.32162 25.3919 6.21217 22.599 6.21217Z" fill="#73BA69"/>
<path fill-rule="evenodd" clip-rule="evenodd" d="M32.4898 21.237C33.4971 20.6554 34.7851 21.0005 35.3667 22.0079L42.5274 34.4106C42.9158 35.0832 42.9024 35.915 42.4926 36.5748C42.0828 37.2346 41.3431 37.6153 40.568 37.5653L34.3916 37.1671L31.6483 42.7172C31.3041 43.4136 30.6045 43.8639 29.8282 43.889C29.0518 43.914 28.3246 43.5096 27.9363 42.8369L20.7756 30.4321C20.1941 29.4247 20.5393 28.1367 21.5467 27.5552C22.5541 26.9736 23.8421 27.3189 24.4236 28.3262L29.6164 37.322L31.2378 34.0418C31.6145 33.2795 32.4128 32.8186 33.2613 32.8733L36.912 33.1087L31.7189 24.1139C31.1373 23.1066 31.4824 21.8186 32.4898 21.237Z" fill="#73BA69"/>
<path fill-rule="evenodd" clip-rule="evenodd" d="M12.7044 21.2369C13.7118 21.8184 14.057 23.1064 13.4755 24.1138L8.28266 33.1097L11.9324 32.8733C12.7811 32.8184 13.5795 33.2792 13.9565 34.0416L15.5778 37.3207L20.7708 28.3261C21.3524 27.3188 22.6405 26.9737 23.6478 27.5552C24.6551 28.1368 25.0002 29.4249 24.4187 30.4322L17.258 42.8349C16.8696 43.5076 16.1426 43.9119 15.3662 43.8869C14.5899 43.8618 13.8904 43.4116 13.5461 42.7153L10.8031 37.1675L4.62695 37.5674C3.85179 37.6176 3.11193 37.237 2.70197 36.5772C2.292 35.9175 2.27851 35.0856 2.66685 34.4128L9.82753 22.008C10.409 21.0006 11.6971 20.6554 12.7044 21.2369Z" fill="#73BA69"/>
</g>
</svg>
