<svg width="46" height="46" viewBox="0 0 46 46" fill="none" xmlns="http://www.w3.org/2000/svg">
<mask id="mask0_809_12346" style="mask-type:alpha" maskUnits="userSpaceOnUse" x="0" y="0" width="46" height="46">
<rect width="46" height="46" fill="#D9D9D9"/>
</mask>
<g mask="url(#mask0_809_12346)">
<path fill-rule="evenodd" clip-rule="evenodd" d="M15.3463 4.52241C17.7728 3.51732 20.3736 3 23 3C25.6264 3 28.2272 3.51732 30.6537 4.52241C33.0802 5.5275 35.285 7.00069 37.1421 8.85786C38.9993 10.715 40.4725 12.9198 41.4776 15.3463C42.4827 17.7728 43 20.3736 43 23C43 25.6264 42.4827 28.2272 41.4776 30.6537C40.4725 33.0802 38.9993 35.285 37.1421 37.1421C35.285 38.9993 33.0802 40.4725 30.6537 41.4776C28.2272 42.4827 25.6264 43 23 43C20.3736 43 17.7728 42.4827 15.3463 41.4776C12.9198 40.4725 10.715 38.9993 8.85786 37.1421C7.00069 35.285 5.5275 33.0802 4.52241 30.6537C3.51732 28.2272 3 25.6264 3 23C3 20.3736 3.51732 17.7728 4.52241 15.3463C5.5275 12.9198 7.00069 10.715 8.85786 8.85786C10.715 7.00069 12.9198 5.5275 15.3463 4.52241ZM23 7C20.8988 7 18.8183 7.41385 16.8771 8.21793C14.9359 9.022 13.172 10.2006 11.6863 11.6863C10.2006 13.172 9.022 14.9359 8.21793 16.8771C7.41385 18.8183 7 20.8988 7 23C7 25.1012 7.41385 27.1817 8.21793 29.1229C9.022 31.0641 10.2006 32.828 11.6863 34.3137C13.172 35.7994 14.9359 36.978 16.8771 37.7821C18.8183 38.5861 20.8988 39 23 39C25.1012 39 27.1817 38.5861 29.1229 37.7821C31.0641 36.978 32.828 35.7994 34.3137 34.3137C35.7994 32.828 36.978 31.0641 37.7821 29.1229C38.5861 27.1817 39 25.1012 39 23C39 20.8988 38.5861 18.8183 37.7821 16.8771C36.978 14.9359 35.7994 13.172 34.3137 11.6863C32.828 10.2006 31.0641 9.022 29.1229 8.21793C27.1817 7.41385 25.1012 7 23 7Z" fill="#73BA69"/>
<path fill-rule="evenodd" clip-rule="evenodd" d="M30.4142 17.5858C31.1953 18.3668 31.1953 19.6332 30.4142 20.4142L22.4142 28.4142C21.6332 29.1953 20.3668 29.1953 19.5858 28.4142L15.5858 24.4142C14.8047 23.6332 14.8047 22.3668 15.5858 21.5858C16.3668 20.8047 17.6332 20.8047 18.4142 21.5858L21 24.1716L27.5858 17.5858C28.3668 16.8047 29.6332 16.8047 30.4142 17.5858Z" fill="#73BA69"/>
</g>
</svg>
