<svg width="46" height="46" viewBox="0 0 46 46" fill="none" xmlns="http://www.w3.org/2000/svg">
<g clip-path="url(#clip0_1307_1743)">
<path d="M7.66699 11.5C7.66699 13.025 9.28246 14.4875 12.158 15.5659C15.0336 16.6442 18.9337 17.25 23.0003 17.25C27.067 17.25 30.9671 16.6442 33.8426 15.5659C36.7182 14.4875 38.3337 13.025 38.3337 11.5C38.3337 9.97501 36.7182 8.51247 33.8426 7.43414C30.9671 6.3558 27.067 5.75 23.0003 5.75C18.9337 5.75 15.0336 6.3558 12.158 7.43414C9.28246 8.51247 7.66699 9.97501 7.66699 11.5Z" stroke="#73BA69" stroke-width="2" stroke-linecap="round" stroke-linejoin="round"/>
<path d="M7.66699 11.5V23C7.66699 24.525 9.28246 25.9875 12.158 27.0659C15.0336 28.1442 18.9337 28.75 23.0003 28.75C27.067 28.75 30.9671 28.1442 33.8426 27.0659C36.7182 25.9875 38.3337 24.525 38.3337 23V11.5" stroke="#73BA69" stroke-width="2" stroke-linecap="round" stroke-linejoin="round"/>
<path d="M7.66699 23V34.5C7.66699 36.025 9.28246 37.4875 12.158 38.5659C15.0336 39.6442 18.9337 40.25 23.0003 40.25C27.067 40.25 30.9671 39.6442 33.8426 38.5659C36.7182 37.4875 38.3337 36.025 38.3337 34.5V23" stroke="#73BA69" stroke-width="2" stroke-linecap="round" stroke-linejoin="round"/>
</g>
<defs>
<clipPath id="clip0_1307_1743">
<rect width="46" height="46" fill="white"/>
</clipPath>
</defs>
</svg>
