<svg width="46" height="46" viewBox="0 0 46 46" fill="none" xmlns="http://www.w3.org/2000/svg">
<mask id="mask0_809_12320" style="mask-type:alpha" maskUnits="userSpaceOnUse" x="0" y="0" width="46" height="46">
<rect width="46" height="46" fill="#D9D9D9"/>
</mask>
<g mask="url(#mask0_809_12320)">
<path fill-rule="evenodd" clip-rule="evenodd" d="M5.85499 14.2994C7.04272 13.1117 8.65363 12.4445 10.3333 12.4445C12.013 12.4445 13.6239 13.1117 14.8117 14.2994C15.9994 15.4872 16.6667 17.0981 16.6667 18.7778C16.6667 20.4575 15.9994 22.0684 14.8117 23.2561C13.6239 24.4439 12.013 25.1111 10.3333 25.1111C8.65363 25.1111 7.04272 24.4439 5.85499 23.2561C4.66726 22.0684 4 20.4575 4 18.7778C4 17.0981 4.66726 15.4872 5.85499 14.2994ZM10.3333 16.6667C9.77343 16.6667 9.23646 16.8891 8.84055 17.285C8.44464 17.6809 8.22222 18.2179 8.22222 18.7778C8.22222 19.3377 8.44464 19.8747 8.84055 20.2706C9.23646 20.6665 9.77343 20.8889 10.3333 20.8889C10.8932 20.8889 11.4302 20.6665 11.8261 20.2706C12.222 19.8747 12.4444 19.3377 12.4444 18.7778C12.4444 18.2179 12.222 17.6809 11.8261 17.285C11.4302 16.8891 10.8932 16.6667 10.3333 16.6667Z" fill="#73BA69"/>
<path fill-rule="evenodd" clip-rule="evenodd" d="M10.3338 4C11.4997 4 12.4449 4.94518 12.4449 6.11111V14.5556C12.4449 15.7215 11.4997 16.6667 10.3338 16.6667C9.16783 16.6667 8.22266 15.7215 8.22266 14.5556V6.11111C8.22266 4.94518 9.16783 4 10.3338 4Z" fill="#73BA69"/>
<path fill-rule="evenodd" clip-rule="evenodd" d="M10.3338 20.8889C11.4997 20.8889 12.4449 21.8341 12.4449 23V39.8889C12.4449 41.0549 11.4997 42 10.3338 42C9.16783 42 8.22266 41.0549 8.22266 39.8889V23C8.22266 21.8341 9.16783 20.8889 10.3338 20.8889Z" fill="#73BA69"/>
<path fill-rule="evenodd" clip-rule="evenodd" d="M18.522 26.9661C19.7097 25.7783 21.3206 25.1111 23.0003 25.1111C24.68 25.1111 26.2909 25.7783 27.4787 26.9661C28.6664 28.1538 29.3337 29.7647 29.3337 31.4444C29.3337 33.1241 28.6664 34.735 27.4787 35.9228C26.2909 37.1105 24.68 37.7778 23.0003 37.7778C21.3206 37.7778 19.7097 37.1105 18.522 35.9228C17.3343 34.735 16.667 33.1241 16.667 31.4444C16.667 29.7647 17.3343 28.1538 18.522 26.9661ZM23.0003 29.3333C22.4404 29.3333 21.9035 29.5557 21.5075 29.9516C21.1116 30.3475 20.8892 30.8845 20.8892 31.4444C20.8892 32.0043 21.1116 32.5413 21.5075 32.9372C21.9035 33.3331 22.4404 33.5555 23.0003 33.5555C23.5602 33.5555 24.0972 33.3331 24.4931 32.9372C24.889 32.5413 25.1114 32.0043 25.1114 31.4444C25.1114 30.8845 24.889 30.3475 24.4931 29.9516C24.0972 29.5557 23.5602 29.3333 23.0003 29.3333Z" fill="#73BA69"/>
<path fill-rule="evenodd" clip-rule="evenodd" d="M22.9998 4C24.1657 4 25.1109 4.94518 25.1109 6.11111V27.2222C25.1109 28.3882 24.1657 29.3333 22.9998 29.3333C21.8338 29.3333 20.8887 28.3882 20.8887 27.2222V6.11111C20.8887 4.94518 21.8338 4 22.9998 4Z" fill="#73BA69"/>
<path fill-rule="evenodd" clip-rule="evenodd" d="M22.9998 33.5555C24.1657 33.5555 25.1109 34.5007 25.1109 35.6667V39.8889C25.1109 41.0548 24.1657 42 22.9998 42C21.8338 42 20.8887 41.0548 20.8887 39.8889V35.6667C20.8887 34.5007 21.8338 33.5555 22.9998 33.5555Z" fill="#73BA69"/>
<path fill-rule="evenodd" clip-rule="evenodd" d="M31.188 7.96607C32.3757 6.77834 33.9866 6.11108 35.6663 6.11108C37.346 6.11108 38.957 6.77834 40.1447 7.96607C41.3324 9.1538 41.9997 10.7647 41.9997 12.4444C41.9997 14.1241 41.3324 15.735 40.1447 16.9228C38.957 18.1105 37.346 18.7778 35.6663 18.7778C33.9866 18.7778 32.3757 18.1105 31.188 16.9228C30.0003 15.735 29.333 14.1241 29.333 12.4444C29.333 10.7647 30.0003 9.1538 31.188 7.96607ZM35.6663 10.3333C35.1064 10.3333 34.5695 10.5557 34.1736 10.9516C33.7777 11.3475 33.5552 11.8845 33.5552 12.4444C33.5552 13.0043 33.7776 13.5413 34.1736 13.9372C34.5695 14.3331 35.1064 14.5555 35.6663 14.5555C36.2262 14.5555 36.7632 14.3331 37.1591 13.9372C37.555 13.5413 37.7775 13.0043 37.7775 12.4444C37.7775 11.8845 37.555 11.3475 37.1591 10.9516C36.7632 10.5557 36.2262 10.3333 35.6663 10.3333Z" fill="#73BA69"/>
<path fill-rule="evenodd" clip-rule="evenodd" d="M35.6668 4C36.8327 4 37.7779 4.94518 37.7779 6.11111V8.22222C37.7779 9.38816 36.8327 10.3333 35.6668 10.3333C34.5008 10.3333 33.5557 9.38816 33.5557 8.22222V6.11111C33.5557 4.94518 34.5008 4 35.6668 4Z" fill="#73BA69"/>
<path fill-rule="evenodd" clip-rule="evenodd" d="M35.6668 14.5555C36.8327 14.5555 37.7779 15.5007 37.7779 16.6667V39.8889C37.7779 41.0548 36.8327 42 35.6668 42C34.5008 42 33.5557 41.0548 33.5557 39.8889V16.6667C33.5557 15.5007 34.5008 14.5555 35.6668 14.5555Z" fill="#73BA69"/>
</g>
</svg>
