<svg width="48" height="48" viewBox="0 0 48 48" fill="none" xmlns="http://www.w3.org/2000/svg">
<mask id="mask0_809_12265" style="mask-type:alpha" maskUnits="userSpaceOnUse" x="0" y="0" width="48" height="48">
<rect width="48" height="48" fill="#D9D9D9"/>
</mask>
<g mask="url(#mask0_809_12265)">
<path fill-rule="evenodd" clip-rule="evenodd" d="M22.4077 0.602509C23.3168 -0.200836 24.6832 -0.200836 25.5923 0.602509C30.7378 5.14897 37.4534 7.51615 44.3164 7.20251C45.4223 7.15197 46.4196 7.86243 46.7318 8.92312C47.9127 12.935 48.274 17.1429 47.7943 21.297C47.3146 25.4511 46.0037 29.4664 43.9395 33.1045C41.8752 36.7426 39.0998 39.9291 35.7781 42.4748C32.4564 45.0204 28.6562 46.8732 24.6033 47.9231C24.2077 48.0256 23.7923 48.0256 23.3967 47.9231C19.3438 46.8732 15.5436 45.0204 12.2219 42.4748C8.9002 39.9291 6.12476 36.7426 4.06053 33.1045C1.9963 29.4664 0.685391 25.4511 0.205702 21.297C-0.273987 17.1429 0.0873333 12.935 1.26819 8.92312C1.5804 7.86243 2.57774 7.15197 3.68358 7.20251C10.5466 7.51615 17.2622 5.14897 22.4077 0.602509ZM5.429 12.0255C4.79655 14.8836 4.64351 17.831 4.98024 20.7471C5.38613 24.262 6.49536 27.6597 8.24202 30.738C9.98867 33.8164 12.3371 36.5127 15.1478 38.6667C17.793 40.694 20.7968 42.2019 24 43.113C27.2032 42.2019 30.207 40.694 32.8522 38.6667C35.6629 36.5127 38.0113 33.8164 39.758 30.738C41.5046 27.6597 42.6139 24.262 43.0198 20.7471C43.3565 17.831 43.2034 14.8836 42.571 12.0255C35.8398 11.9102 29.3244 9.62489 24 5.51337C18.6756 9.62489 12.1602 11.9102 5.429 12.0255Z" fill="#73BA69"/>
<path fill-rule="evenodd" clip-rule="evenodd" d="M20.4645 18.318C21.4021 17.4741 22.6739 17 24 17C25.3261 17 26.5979 17.4741 27.5355 18.318C28.4732 19.1619 29 20.3065 29 21.5C29 22.6935 28.4732 23.8381 27.5355 24.682C26.5979 25.5259 25.3261 26 24 26C22.6739 26 21.4021 25.5259 20.4645 24.682C19.5268 23.8381 19 22.6935 19 21.5C19 20.3065 19.5268 19.1619 20.4645 18.318Z" fill="#73BA69"/>
<path fill-rule="evenodd" clip-rule="evenodd" d="M24 22C25.1046 22 26 22.9949 26 24.2222V29.7778C26 31.0051 25.1046 32 24 32C22.8954 32 22 31.0051 22 29.7778V24.2222C22 22.9949 22.8954 22 24 22Z" fill="#73BA69"/>
</g>
</svg>
