<svg width="48" height="48" viewBox="0 0 48 48" fill="none" xmlns="http://www.w3.org/2000/svg">
<mask id="mask0_809_12303" style="mask-type:alpha" maskUnits="userSpaceOnUse" x="0" y="0" width="48" height="48">
<rect width="48" height="48" fill="#D9D9D9"/>
</mask>
<g mask="url(#mask0_809_12303)">
<path fill-rule="evenodd" clip-rule="evenodd" d="M14.3832 6.16241C16.2274 5.39499 18.2039 5 20.2 5C22.1961 5 24.1726 5.39499 26.0168 6.16241C27.8609 6.92984 29.5366 8.05467 30.948 9.47268C32.3595 10.8907 33.4791 12.5741 34.243 14.4268C35.0068 16.2796 35.4 18.2653 35.4 20.2707C35.4 22.2761 35.0068 24.2618 34.243 26.1145C33.4791 27.9673 32.3595 29.6507 30.948 31.0687C29.5366 32.4867 27.8609 33.6115 26.0168 34.379C24.1726 35.1464 22.1961 35.5414 20.2 35.5414C18.2039 35.5414 16.2274 35.1464 14.3832 34.379C12.5391 33.6115 10.8634 32.4867 9.45198 31.0687C8.04053 29.6507 6.9209 27.9673 6.15703 26.1145C5.39316 24.2618 5 22.2761 5 20.2707C5 18.2653 5.39316 16.2796 6.15703 14.4268C6.9209 12.5741 8.04053 10.8907 9.45198 9.47268C10.8634 8.05467 12.5391 6.92984 14.3832 6.16241ZM20.2 8.81767C18.7029 8.81767 17.2205 9.11391 15.8374 9.68948C14.4543 10.265 13.1976 11.1087 12.139 12.1722C11.0804 13.2357 10.2407 14.4983 9.66777 15.8878C9.09487 17.2774 8.8 18.7667 8.8 20.2707C8.8 21.7747 9.09487 23.264 9.66777 24.6536C10.2407 26.0431 11.0804 27.3057 12.139 28.3692C13.1976 29.4327 14.4543 30.2763 15.8374 30.8519C17.2205 31.4275 18.7029 31.7237 20.2 31.7237C21.6971 31.7237 23.1795 31.4275 24.5626 30.8519C25.9457 30.2763 27.2024 29.4327 28.261 28.3692C29.3196 27.3057 30.1593 26.0431 30.7322 24.6536C31.3051 23.264 31.6 21.7747 31.6 20.2707C31.6 18.7667 31.3051 17.2774 30.7322 15.8878C30.1593 14.4983 29.3196 13.2357 28.261 12.1722C27.2024 11.1087 25.9457 10.265 24.5626 9.68948C23.1795 9.11391 21.6971 8.81767 20.2 8.81767Z" fill="#73BA69"/>
<path fill-rule="evenodd" clip-rule="evenodd" d="M28.3563 28.4651C29.0983 27.7196 30.3013 27.7196 31.0433 28.4651L42.4433 39.9181C43.1853 40.6636 43.1853 41.8722 42.4433 42.6176C41.7013 43.3631 40.4983 43.3631 39.7563 42.6176L28.3563 31.1646C27.6143 30.4191 27.6143 29.2105 28.3563 28.4651Z" fill="#73BA69"/>
<path fill-rule="evenodd" clip-rule="evenodd" d="M15.8912 14.0331C16.782 13.1381 17.9902 12.6354 19.25 12.6354H24C25.0493 12.6354 25.9 13.49 25.9 14.5442C25.9 15.5984 25.0493 16.453 24 16.453H19.25C18.998 16.453 18.7564 16.5536 18.5782 16.7326C18.4001 16.9116 18.3 17.1543 18.3 17.4075C18.3 17.6606 18.4001 17.9034 18.5782 18.0823C18.7564 18.2613 18.998 18.3619 19.25 18.3619H21.15C22.4098 18.3619 23.618 18.8647 24.5088 19.7596C25.3996 20.6545 25.9 21.8683 25.9 23.134C25.9 24.3996 25.3996 25.6134 24.5088 26.5084C23.618 27.4033 22.4098 27.9061 21.15 27.9061H16.4C15.3507 27.9061 14.5 27.0514 14.5 25.9972C14.5 24.943 15.3507 24.0884 16.4 24.0884H21.15C21.402 24.0884 21.6436 23.9878 21.8218 23.8088C21.9999 23.6299 22.1 23.3871 22.1 23.134C22.1 22.8808 21.9999 22.6381 21.8218 22.4591C21.6436 22.2801 21.402 22.1796 21.15 22.1796H19.25C17.9902 22.1796 16.782 21.6768 15.8912 20.7818C15.0004 19.8869 14.5 18.6731 14.5 17.4075C14.5 16.1418 15.0004 14.928 15.8912 14.0331Z" fill="#73BA69"/>
<path fill-rule="evenodd" clip-rule="evenodd" d="M20.1998 10.7264C21.2491 10.7264 22.0998 11.5811 22.0998 12.6353V14.5441C22.0998 15.5983 21.2491 16.4529 20.1998 16.4529C19.1505 16.4529 18.2998 15.5983 18.2998 14.5441V12.6353C18.2998 11.5811 19.1505 10.7264 20.1998 10.7264ZM20.1998 24.0883C21.2491 24.0883 22.0998 24.9429 22.0998 25.9971V27.906C22.0998 28.9602 21.2491 29.8148 20.1998 29.8148C19.1505 29.8148 18.2998 28.9602 18.2998 27.906V25.9971C18.2998 24.9429 19.1505 24.0883 20.1998 24.0883Z" fill="#73BA69"/>
</g>
</svg>
