<svg width="48" height="48" viewBox="0 0 48 48" fill="none" xmlns="http://www.w3.org/2000/svg">
<mask id="mask0_809_12284" style="mask-type:alpha" maskUnits="userSpaceOnUse" x="0" y="0" width="48" height="48">
<rect width="48" height="48" fill="#D9D9D9"/>
</mask>
<g mask="url(#mask0_809_12284)">
<path fill-rule="evenodd" clip-rule="evenodd" d="M22.2272 3.11884C26.5121 2.66952 30.8351 3.50063 34.6353 5.50436C38.4355 7.5081 41.5377 10.592 43.5394 14.3561C45.5411 18.1201 46.35 22.3906 45.8612 26.6137C45.7265 27.7774 44.6609 28.6131 43.4812 28.4802C42.3014 28.3474 41.4543 27.2963 41.589 26.1325C41.98 22.7541 41.3329 19.3377 39.7315 16.3264C38.1301 13.3152 35.6484 10.8481 32.6082 9.24506C29.5681 7.64208 26.1097 6.97719 22.6818 7.33665C19.2538 7.69611 16.0145 9.06332 13.3839 11.2609C10.7533 13.4586 8.85288 16.3852 7.92909 19.6613C7.0053 22.9373 7.10079 26.4116 8.20317 29.6334C9.30554 32.8553 11.3639 35.676 14.1114 37.7299C16.8588 39.7837 20.1685 40.9757 23.6111 41.1515C24.797 41.212 25.7085 42.2093 25.6472 43.379C25.5858 44.5487 24.5748 45.4479 23.3889 45.3874C19.0856 45.1677 14.9485 43.6776 11.5142 41.1104C8.07993 38.5431 5.50693 35.0171 4.12896 30.9898C2.75099 26.9625 2.63163 22.6197 3.78637 18.5246C4.94111 14.4296 7.31666 10.7713 10.6049 8.02422C13.8931 5.27718 17.9423 3.56817 22.2272 3.11884Z" fill="#73BA69"/>
<path fill-rule="evenodd" clip-rule="evenodd" d="M24.859 11.8313C26.0464 11.8313 27.009 12.7802 27.009 13.9508V23.6704L32.8293 29.4082C33.6689 30.2359 33.6689 31.5779 32.8293 32.4056C31.9896 33.2334 30.6283 33.2334 29.7887 32.4056L23.3387 26.0471C22.9355 25.6496 22.709 25.1105 22.709 24.5484V13.9508C22.709 12.7802 23.6716 11.8313 24.859 11.8313Z" fill="#73BA69"/>
<path fill-rule="evenodd" clip-rule="evenodd" d="M45.3762 33.63C46.2071 34.4348 46.2071 35.7395 45.3762 36.5442L36.8658 44.7868C36.0349 45.5915 34.6878 45.5915 33.8569 44.7868L29.6017 40.6655C28.7708 39.8608 28.7708 38.556 29.6017 37.7513C30.4326 36.9466 31.7797 36.9466 32.6106 37.7513L35.3613 40.4155L42.3673 33.63C43.1982 32.8253 44.5453 32.8253 45.3762 33.63Z" fill="#73BA69"/>
</g>
</svg>
