<svg width="46" height="46" viewBox="0 0 46 46" fill="none" xmlns="http://www.w3.org/2000/svg">
<mask id="mask0_809_20610" style="mask-type:alpha" maskUnits="userSpaceOnUse" x="0" y="0" width="46" height="46">
<rect width="46" height="46" fill="#D9D9D9"/>
</mask>
<g mask="url(#mask0_809_20610)">
<path fill-rule="evenodd" clip-rule="evenodd" d="M10.2218 3.07538C12.2847 1.10625 15.0826 0 18 0C20.9174 0 23.7153 1.10625 25.7782 3.07538C27.8411 5.04451 29 7.71523 29 10.5C29 13.2848 27.8411 15.9555 25.7782 17.9246C23.7153 19.8938 20.9174 21 18 21C15.0826 21 12.2847 19.8938 10.2218 17.9246C8.15892 15.9555 7 13.2848 7 10.5C7 7.71523 8.15892 5.04451 10.2218 3.07538ZM18 4.2C16.2496 4.2 14.5708 4.86375 13.3331 6.04523C12.0954 7.22671 11.4 8.82913 11.4 10.5C11.4 12.1709 12.0954 13.7733 13.3331 14.9548C14.5708 16.1363 16.2496 16.8 18 16.8C19.7504 16.8 21.4292 16.1363 22.6669 14.9548C23.9046 13.7733 24.6 12.1709 24.6 10.5C24.6 8.82913 23.9046 7.22671 22.6669 6.04523C21.4292 4.86375 19.7504 4.2 18 4.2Z" fill="#E94B57"/>
<path fill-rule="evenodd" clip-rule="evenodd" d="M13.7692 30.5C12.0555 30.5 10.412 31.2112 9.20023 32.477C7.98846 33.7429 7.30769 35.4598 7.30769 37.25V41.75C7.30769 42.9926 6.34338 44 5.15385 44C3.96431 44 3 42.9926 3 41.75V37.25C3 34.2663 4.13461 31.4048 6.15423 29.2951C8.17386 27.1853 10.9131 26 13.7692 26H14.8462C16.0357 26 17 27.0074 17 28.25C17 29.4926 16.0357 30.5 14.8462 30.5H13.7692Z" fill="#E94B57"/>
<path fill-rule="evenodd" clip-rule="evenodd" d="M30.5013 30.076L29.3052 32.4786C28.9825 33.1267 28.3602 33.5756 27.6406 33.6794L24.982 34.0628L26.9006 35.9168C27.4239 36.4226 27.6627 37.1525 27.539 37.8678L27.0845 40.4941L29.4749 39.2483C30.1177 38.9133 30.8848 38.9133 31.5276 39.2483L33.9171 40.4936L33.4635 37.867C33.34 37.152 33.5789 36.4224 34.102 35.9168L36.0205 34.0628L33.3619 33.6794C32.6424 33.5756 32.0201 33.1267 31.6974 32.4786L30.5013 30.076ZM28.88 24.4591C29.3669 24.159 29.9284 24 30.5013 24C31.0741 24 31.6356 24.159 32.1226 24.4591C32.6096 24.7592 33.0027 25.1885 33.2577 25.6987L33.2593 25.702L35.1457 29.491L39.3637 30.0993C39.3632 30.0992 39.3642 30.0994 39.3637 30.0993C39.364 30.0993 39.3658 30.0996 39.3661 30.0996C39.933 30.1812 40.4658 30.4187 40.9043 30.7855C41.3434 31.1527 41.6704 31.6348 41.8483 32.1773C42.0263 32.7198 42.0481 33.301 41.9113 33.8551C41.7745 34.4093 41.4845 34.9143 41.0741 35.3131L41.0697 35.3173L38.02 38.2646L38.7378 42.4214C38.7377 42.4208 38.7379 42.4219 38.7378 42.4214C38.7379 42.4216 38.7382 42.4235 38.7382 42.4237C38.8356 42.9864 38.7726 43.565 38.5564 44.094C38.3398 44.6237 37.9783 45.0824 37.5129 45.418C37.0474 45.7536 36.4967 45.9526 35.9232 45.9925C35.3521 46.0323 34.7812 45.9126 34.2748 45.6469C34.2728 45.6459 34.2707 45.6448 34.2687 45.6437L30.5013 43.6803L26.7242 45.6488L26.7189 45.6516C26.2127 45.9136 25.6433 46.0306 25.0741 45.9894C24.505 45.9481 23.9586 45.7504 23.4959 45.4182C23.0332 45.086 22.6724 44.6324 22.4539 44.108C22.2354 43.5837 22.1676 43.0092 22.2583 42.4488L22.2621 42.4251L22.9823 38.2643L19.9368 35.3211C19.9359 35.3203 19.935 35.3194 19.9341 35.3185C19.5214 34.9207 19.2291 34.4157 19.0906 33.8608C18.9517 33.3048 18.9729 32.7211 19.1515 32.1764C19.3302 31.6317 19.6593 31.148 20.1011 30.7804C20.5406 30.4148 21.0741 30.1788 21.6413 30.0989L25.8568 29.491L27.7448 25.6987C27.9999 25.1885 28.393 24.7592 28.88 24.4591Z" fill="#E94B57"/>
</g>
</svg>
