<svg width="46" height="46" viewBox="0 0 46 46" fill="none" xmlns="http://www.w3.org/2000/svg">
<mask id="mask0_809_20634" style="mask-type:alpha" maskUnits="userSpaceOnUse" x="0" y="0" width="46" height="46">
<rect width="46" height="46" fill="#D9D9D9"/>
</mask>
<g mask="url(#mask0_809_20634)">
<path fill-rule="evenodd" clip-rule="evenodd" d="M23 1C24.1046 1 25 1.89543 25 3V5.11139C29.038 5.56274 32.8271 7.37122 35.7279 10.2721C38.6288 13.1729 40.4373 16.962 40.8886 21H43C44.1046 21 45 21.8954 45 23C45 24.1046 44.1046 25 43 25H40.8886C40.4373 29.038 38.6288 32.8271 35.7279 35.7279C32.8271 38.6288 29.038 40.4373 25 40.8886V43C25 44.1046 24.1046 45 23 45C21.8954 45 21 44.1046 21 43V40.8886C16.962 40.4373 13.1729 38.6288 10.2721 35.7279C7.37122 32.8271 5.56274 29.038 5.11139 25H3C1.89543 25 1 24.1046 1 23C1 21.8954 1.89543 21 3 21H5.11139C5.56274 16.962 7.37122 13.1729 10.2721 10.2721C13.1729 7.37122 16.962 5.56274 21 5.11139V3C21 1.89543 21.8954 1 23 1ZM9 23C9 26.713 10.475 30.274 13.1005 32.8995C15.726 35.525 19.287 37 23 37C26.713 37 30.274 35.525 32.8995 32.8995C35.525 30.274 37 26.713 37 23C37 19.287 35.525 15.726 32.8995 13.1005C30.274 10.475 26.713 9 23 9C19.287 9 15.726 10.475 13.1005 13.1005C10.475 15.726 9 19.287 9 23ZM23 15C20.8783 15 18.8434 15.8429 17.3431 17.3431C15.8429 18.8434 15 20.8783 15 23C15 25.1217 15.8429 27.1566 17.3431 28.6569C18.8434 30.1571 20.8783 31 23 31C25.1217 31 27.1566 30.1571 28.6569 28.6569C30.1571 27.1566 31 25.1217 31 23C31 20.8783 30.1571 18.8434 28.6569 17.3431C27.1566 15.8429 25.1217 15 23 15ZM20.1716 20.1716C20.9217 19.4214 21.9391 19 23 19C24.0609 19 25.0783 19.4214 25.8284 20.1716C26.5786 20.9217 27 21.9391 27 23C27 24.0609 26.5786 25.0783 25.8284 25.8284C25.0783 26.5786 24.0609 27 23 27C21.9391 27 20.9217 26.5786 20.1716 25.8284C19.4214 25.0783 19 24.0609 19 23C19 21.9391 19.4214 20.9217 20.1716 20.1716Z" fill="#E94B57"/>
</g>
</svg>
