<svg width="46" height="46" viewBox="0 0 46 46" fill="none" xmlns="http://www.w3.org/2000/svg">
<mask id="mask0_809_20602" style="mask-type:alpha" maskUnits="userSpaceOnUse" x="0" y="0" width="46" height="46">
<rect width="46" height="46" fill="#D9D9D9"/>
</mask>
<g mask="url(#mask0_809_20602)">
<path fill-rule="evenodd" clip-rule="evenodd" d="M21.474 0.577404C22.3453 -0.192468 23.6547 -0.192468 24.526 0.577404C29.457 4.93443 35.8929 7.20298 42.4699 6.9024C43.5297 6.85397 44.4854 7.53483 44.7846 8.55133C45.9163 12.396 46.2626 16.4286 45.8029 20.4096C45.3432 24.3906 44.0869 28.2387 42.1087 31.7251C40.1304 35.2116 37.4706 38.2654 34.2873 40.705C31.1041 43.1446 27.4622 44.9202 23.5782 45.9263C23.199 46.0246 22.801 46.0246 22.4218 45.9263C18.5378 44.9202 14.8959 43.1446 11.7127 40.705C8.52935 38.2654 5.86957 35.2116 3.89134 31.7251C1.91312 28.2387 0.656833 24.3906 0.197131 20.4096C-0.262571 16.4286 0.0836944 12.396 1.21535 8.55133C1.51455 7.53483 2.47033 6.85397 3.5301 6.9024C10.1071 7.20298 16.543 4.93443 21.474 0.577404ZM5.20279 11.5245C4.59669 14.2634 4.45003 17.0881 4.77273 19.8826C5.16171 23.2511 6.22472 26.5072 7.8986 29.4573C9.57248 32.4074 11.8231 34.9914 14.5166 37.0556C17.0516 38.9984 19.9303 40.4435 23 41.3166C26.0697 40.4435 28.9484 38.9984 31.4834 37.0556C34.1769 34.9914 36.4275 32.4074 38.1014 29.4573C39.7753 26.5072 40.8383 23.2511 41.2273 19.8826C41.55 17.0881 41.4033 14.2634 40.7972 11.5245C34.3465 11.4139 28.1026 9.22385 23 5.28364C17.8974 9.22386 11.6535 11.4139 5.20279 11.5245Z" fill="#E94B57"/>
<path fill-rule="evenodd" clip-rule="evenodd" d="M19.4645 17.318C20.4021 16.4741 21.6739 16 23 16C24.3261 16 25.5979 16.4741 26.5355 17.318C27.4732 18.1619 28 19.3065 28 20.5C28 21.6935 27.4732 22.8381 26.5355 23.682C25.5979 24.5259 24.3261 25 23 25C21.6739 25 20.4021 24.5259 19.4645 23.682C18.5268 22.8381 18 21.6935 18 20.5C18 19.3065 18.5268 18.1619 19.4645 17.318Z" fill="#E94B57"/>
<path fill-rule="evenodd" clip-rule="evenodd" d="M23 21C24.1046 21 25 21.9949 25 23.2222V28.7778C25 30.0051 24.1046 31 23 31C21.8954 31 21 30.0051 21 28.7778V23.2222C21 21.9949 21.8954 21 23 21Z" fill="#E94B57"/>
</g>
</svg>
