<svg width="46" height="46" viewBox="0 0 46 46" fill="none" xmlns="http://www.w3.org/2000/svg">
<mask id="mask0_809_20627" style="mask-type:alpha" maskUnits="userSpaceOnUse" x="0" y="0" width="46" height="46">
<rect width="46" height="46" fill="#D9D9D9"/>
</mask>
<g mask="url(#mask0_809_20627)">
<path fill-rule="evenodd" clip-rule="evenodd" d="M14.581 2.67465C17.2501 1.56905 20.1109 1 23 1C25.8891 1 28.7499 1.56905 31.419 2.67465C34.0882 3.78025 36.5135 5.40076 38.5564 7.44365C40.5992 9.48654 42.2197 11.9118 43.3254 14.581C44.431 17.2501 45 20.1109 45 23C45 25.8891 44.431 28.7499 43.3254 31.419C42.2197 34.0882 40.5992 36.5135 38.5564 38.5564C36.5135 40.5992 34.0882 42.2197 31.419 43.3254C28.7499 44.431 25.8891 45 23 45C20.1109 45 17.2501 44.431 14.581 43.3254C11.9118 42.2197 9.48654 40.5992 7.44365 38.5564C5.40076 36.5135 3.78025 34.0882 2.67465 31.419C1.56905 28.7499 1 25.8891 1 23C1 20.1109 1.56905 17.2501 2.67465 14.581C3.78025 11.9118 5.40076 9.48654 7.44365 7.44365C9.48654 5.40076 11.9118 3.78025 14.581 2.67465ZM23 5.4C20.6887 5.4 18.4001 5.85524 16.2648 6.73972C14.1294 7.6242 12.1892 8.92061 10.5549 10.5549C8.92061 12.1892 7.6242 14.1294 6.73972 16.2648C5.85524 18.4001 5.4 20.6887 5.4 23C5.4 25.3113 5.85524 27.5999 6.73972 29.7352C7.6242 31.8706 8.92061 33.8108 10.5549 35.4451C12.1892 37.0794 14.1294 38.3758 16.2648 39.2603C18.4001 40.1448 20.6887 40.6 23 40.6C25.3113 40.6 27.5999 40.1448 29.7352 39.2603C31.8706 38.3758 33.8108 37.0794 35.4451 35.4451C37.0794 33.8108 38.3758 31.8706 39.2603 29.7352C40.1448 27.5999 40.6 25.3113 40.6 23C40.6 20.6887 40.1448 18.4001 39.2603 16.2648C38.3758 14.1294 37.0794 12.1892 35.4451 10.5549C33.8108 8.92061 31.8706 7.6242 29.7352 6.73972C27.5999 5.85524 25.3113 5.4 23 5.4Z" fill="#E94B57"/>
<path fill-rule="evenodd" clip-rule="evenodd" d="M31.341 16.6834C32.2197 17.5946 32.2197 19.072 31.341 19.9832L22.341 29.3166C21.4623 30.2278 20.0377 30.2278 19.159 29.3166L14.659 24.6499C13.7803 23.7387 13.7803 22.2613 14.659 21.3501C15.5377 20.4389 16.9623 20.4389 17.841 21.3501L20.75 24.3668L28.159 16.6834C29.0377 15.7722 30.4623 15.7722 31.341 16.6834Z" fill="#E94B57"/>
</g>
</svg>
