<svg width="46" height="46" viewBox="0 0 46 46" fill="none" xmlns="http://www.w3.org/2000/svg">
<mask id="mask0_809_20618" style="mask-type:alpha" maskUnits="userSpaceOnUse" x="0" y="0" width="46" height="46">
<rect width="46" height="46" fill="#D9D9D9"/>
</mask>
<g mask="url(#mask0_809_20618)">
<path fill-rule="evenodd" clip-rule="evenodd" d="M12 1C13.1046 1 14 2.00356 14 3.24152V22.7585C14 23.9964 13.1046 25 12 25C10.8954 25 10 23.9964 10 22.7585V3.24152C10 2.00356 10.8954 1 12 1Z" fill="#E94B57"/>
<path fill-rule="evenodd" clip-rule="evenodd" d="M10.4444 1.6346C11.3035 0.788466 12.6965 0.788466 13.5556 1.6346L22.3556 10.3013C23.2148 11.1474 23.2148 12.5193 22.3556 13.3654C21.4965 14.2115 20.1035 14.2115 19.2444 13.3654L12 6.2308L4.75564 13.3654C3.89648 14.2115 2.50352 14.2115 1.64437 13.3654C0.785212 12.5193 0.785212 11.1474 1.64437 10.3013L10.4444 1.6346Z" fill="#E94B57"/>
<path fill-rule="evenodd" clip-rule="evenodd" d="M32.6346 8.64437C33.4807 7.78521 34.8526 7.78521 35.6987 8.64437L44.3654 17.4444C45.2115 18.3035 45.2115 19.6965 44.3654 20.5556L35.6987 29.3556C34.8526 30.2148 33.4807 30.2148 32.6346 29.3556C31.7885 28.4965 31.7885 27.1035 32.6346 26.2444L39.7692 19L32.6346 11.7556C31.7885 10.8965 31.7885 9.50352 32.6346 8.64437Z" fill="#E94B57"/>
<path fill-rule="evenodd" clip-rule="evenodd" d="M36.25 20.4615C30.4484 20.4615 24.8844 22.8118 20.782 26.9953C16.6797 31.1788 14.375 36.8529 14.375 42.7692C14.375 44.0013 13.3956 45 12.1875 45C10.9794 45 10 44.0013 10 42.7692C10 35.6696 12.7656 28.8607 17.6884 23.8405C22.6113 18.8203 29.2881 16 36.25 16L42 17C43.2081 17 44.5 17.768 44.5 19C44.5 20.232 44.0206 20.4615 42.8125 20.4615H36.25Z" fill="#E94B57"/>
</g>
</svg>
