<svg width="313" height="470" viewBox="0 0 313 470" fill="none" xmlns="http://www.w3.org/2000/svg">
<path d="M156.501 470C114.698 470 75.398 453.719 45.8392 424.156C16.2785 394.593 0 355.286 0 313.479V232.251C0 228.926 2.69554 226.232 6.01891 226.232H306.979C310.303 226.232 312.998 228.928 312.998 232.251V313.479C312.998 355.288 296.72 394.593 267.161 424.156C237.602 453.719 198.302 470 156.499 470H156.501ZM12.0378 238.269V313.477C12.0378 393.144 76.8435 457.959 156.499 457.959C236.155 457.959 300.96 393.144 300.96 313.477V238.269H12.0378Z" fill="#1E1E1E"/>
<path d="M178.358 380.773H134.333C132.517 380.773 130.799 379.954 129.654 378.542C128.511 377.13 128.067 375.278 128.443 373.501L138.494 326.21C133.536 321.463 130.851 314.53 130.851 306.252C130.851 291.411 142.927 279.336 157.769 279.336C172.611 279.336 184.681 291.409 184.681 306.252C184.681 314.62 181.937 321.613 176.869 326.368L184.301 373.821C184.574 375.56 184.072 377.329 182.929 378.666C181.785 380.002 180.115 380.771 178.356 380.771L178.358 380.773ZM141.767 368.734H171.324L164.436 324.762C164.068 322.412 165.119 320.066 167.117 318.775C171.688 315.821 172.647 310.333 172.647 306.252C172.647 298.049 165.974 291.375 157.773 291.375C149.572 291.375 142.893 298.049 142.893 306.252C142.893 310.337 143.852 315.825 148.419 318.773C150.519 320.128 151.564 322.638 151.043 325.084L141.767 368.736V368.734Z" fill="#1E1E1E"/>
<path d="M280.067 238.138H237.933C234.61 238.138 231.914 235.442 231.914 232.118V129.605C231.914 88.0178 198.085 54.1835 156.501 54.1835C114.918 54.1835 81.088 88.0178 81.088 129.605V232.118C81.088 235.444 78.3925 238.138 75.0691 238.138H32.9349C29.6097 238.138 26.916 235.442 26.916 232.118V129.605C26.9141 58.139 85.0468 0 156.499 0C227.952 0 286.084 58.139 286.084 129.603V232.116C286.084 235.442 283.389 238.136 280.065 238.136L280.067 238.138ZM243.95 226.096H274.046V129.603C274.046 64.7792 221.316 12.0395 156.499 12.0395C91.6822 12.0395 38.9519 64.7792 38.9519 129.603V226.096H69.0484V129.603C69.0484 81.3758 108.278 42.1402 156.499 42.1402C204.72 42.1402 243.95 81.3758 243.95 129.603V226.096Z" fill="#1E1E1E"/>
</svg>
