<svg width="36" height="37" viewBox="0 0 36 37" fill="none" xmlns="http://www.w3.org/2000/svg">
<g opacity="0.75" clip-path="url(#clip0_14_1915)">
<path d="M18 0C8.05896 0 0 8.28282 0 18.5C0 27.1758 5.81184 34.4559 13.6519 36.4554V24.1536H9.94032V18.5H13.6519V16.0639C13.6519 9.76726 16.4246 6.8487 22.4395 6.8487C23.58 6.8487 25.5478 7.07884 26.3527 7.30824V12.4327C25.9279 12.3869 25.1899 12.3639 24.2734 12.3639C21.3221 12.3639 20.1816 13.5131 20.1816 16.5005V18.5H26.0611L25.051 24.1536H20.1816V36.8646C29.0945 35.7583 36.0007 27.9587 36.0007 18.5C36 8.28282 27.941 0 18 0Z" fill="white"/>
</g>
<defs>
<clipPath id="clip0_14_1915">
<rect width="36" height="37" fill="white"/>
</clipPath>
</defs>
</svg>
