<svg width="208" height="69" viewBox="0 0 208 69" fill="none" xmlns="http://www.w3.org/2000/svg">
<path d="M129.186 24.8556C131.598 27.4054 133.118 30.8051 133.118 34.6392C133.118 38.4733 131.598 41.9109 129.186 44.4229C126.887 46.9349 123.468 48.5592 119.897 48.5592C116.154 48.5592 112.735 46.9349 110.361 44.4229C107.948 41.9109 106.505 38.4733 106.505 34.6392C106.505 30.8051 107.948 27.4054 110.361 24.8556C112.735 22.3058 116.154 20.7192 119.897 20.7192C123.468 20.7192 126.887 22.3058 129.186 24.8556ZM128.673 34.6392C128.673 32.0139 127.628 29.5774 126.032 27.8775C124.399 26.1399 122.214 25.1389 119.878 25.1389C117.389 25.1389 115.205 26.1399 113.571 27.8775C111.937 29.5774 110.931 32.0139 110.931 34.6392C110.931 37.2646 111.937 39.701 113.571 41.3631C115.205 43.1008 117.389 44.1396 119.878 44.1396C122.214 44.1396 124.399 43.1008 126.032 41.3631C127.628 39.701 128.673 37.2646 128.673 34.6392Z" fill="white"/>
<path d="M119.878 48.8426C116.23 48.8426 112.678 47.2939 110.152 44.6119C107.625 41.9676 106.22 38.4357 106.22 34.6393C106.22 30.8807 107.606 27.3488 110.152 24.6668C112.64 21.9848 116.192 20.436 119.878 20.436C123.449 20.436 127.001 22.0226 129.376 24.6668C131.959 27.4055 133.384 30.9374 133.384 34.6393C133.384 38.379 131.959 41.9299 129.376 44.6119C126.963 47.2561 123.411 48.8426 119.878 48.8426ZM119.878 20.9838C116.344 20.9838 112.944 22.457 110.551 25.0257C108.119 27.6132 106.77 31.013 106.77 34.6204C106.77 38.2657 108.119 41.6843 110.551 44.2152C112.982 46.7839 116.382 48.276 119.878 48.276C123.259 48.276 126.659 46.765 128.977 44.2341C131.465 41.6465 132.833 38.2279 132.833 34.6393C132.833 31.0885 131.465 27.6699 128.977 25.0445C126.697 22.4948 123.297 20.9838 119.878 20.9838ZM119.878 44.423C117.389 44.423 115.129 43.422 113.381 41.5521C111.652 39.7956 110.665 37.2647 110.665 34.6393C110.665 32.014 111.652 29.4831 113.381 27.6888C115.129 25.8378 117.37 24.8557 119.878 24.8557C122.252 24.8557 124.513 25.8567 126.222 27.6888C127.951 29.5397 128.939 32.0706 128.939 34.6393C128.939 37.2269 127.951 39.7578 126.222 41.5521C124.494 43.4031 122.233 44.423 119.878 44.423ZM119.878 25.4034C117.522 25.4034 115.414 26.3289 113.78 28.0665C112.146 29.7664 111.215 32.1651 111.215 34.6393C111.215 37.1325 112.146 39.5123 113.78 41.1744C115.433 42.9498 117.56 43.8752 119.878 43.8752C122.081 43.8752 124.19 42.912 125.823 41.1744C127.457 39.4745 128.388 37.0947 128.388 34.6393C128.388 32.2029 127.457 29.8042 125.823 28.0665C124.209 26.3478 122.1 25.4034 119.878 25.4034Z" fill="white"/>
<path d="M163.796 23.6094V46.4253C163.796 47.5774 162.79 48.5596 161.612 48.5596C160.415 48.5596 159.465 47.5963 159.465 46.4253V30.1444L153.861 37.8882C153.425 38.4737 152.817 38.7759 152.114 38.7759H152.076H152.038C151.335 38.7759 150.67 38.4737 150.252 37.8882L144.686 30.1444V46.4253C144.686 47.5774 143.718 48.5596 142.502 48.5596C141.343 48.5596 140.355 47.5963 140.355 46.4253V23.6094C140.355 22.4572 141.324 21.4751 142.502 21.4751C142.54 21.4751 142.54 21.4751 142.616 21.4751C143.243 21.4751 143.946 21.7773 144.325 22.3628L152.076 33.0341L159.826 22.3628C160.263 21.7773 160.871 21.4751 161.574 21.4751C161.574 21.4751 161.574 21.4751 161.612 21.4751C162.79 21.5318 163.796 22.4572 163.796 23.6094Z" fill="white"/>
<path d="M161.631 48.8426C160.301 48.8426 159.218 47.7661 159.218 46.444V31.013L154.108 38.058C153.633 38.7001 152.931 39.059 152.133 39.059H152.057C151.24 39.059 150.518 38.7001 150.043 38.058L144.971 31.013V46.444C144.971 47.7661 143.87 48.8426 142.521 48.8426C141.21 48.8426 140.108 47.7472 140.108 46.444V23.6091C140.108 22.3059 141.21 21.2104 142.521 21.2104H142.635C143.395 21.2104 144.154 21.6071 144.572 22.2304L152.076 32.5806L159.598 22.2115C160.073 21.5693 160.776 21.2104 161.574 21.2104C162.961 21.2482 164.062 22.3248 164.062 23.6091V46.4251C164.081 47.7283 162.961 48.8426 161.631 48.8426ZM159.75 29.3131V46.444C159.75 47.4639 160.586 48.2949 161.612 48.2949C162.638 48.2949 163.511 47.445 163.511 46.444V23.6091C163.511 22.627 162.657 21.796 161.593 21.7582C160.947 21.7582 160.396 22.0415 160.035 22.5326L152.076 33.5061L144.135 22.5326C143.813 22.0604 143.243 21.7582 142.654 21.7582H142.54C141.533 21.7582 140.678 22.6081 140.678 23.6091V46.4251C140.678 47.4261 141.533 48.276 142.54 48.276C143.585 48.276 144.439 47.445 144.439 46.4251V29.2942L150.499 37.718C150.86 38.2091 151.43 38.4924 152.057 38.4924H152.133C152.741 38.4924 153.292 38.2091 153.652 37.718L159.75 29.3131Z" fill="white"/>
<path d="M174.662 23.6094C174.662 22.4195 175.593 21.4751 176.809 21.4751C177.967 21.4751 178.993 22.4006 178.993 23.6094V46.4253C178.993 47.6152 177.986 48.5596 176.809 48.5596C175.612 48.5596 174.662 47.6341 174.662 46.4253V23.6094Z" fill="white"/>
<path d="M176.79 48.8426C175.441 48.8426 174.377 47.785 174.377 46.444V23.6091C174.377 22.2681 175.441 21.2104 176.79 21.2104C178.138 21.2104 179.24 22.287 179.24 23.6091V46.4251C179.259 47.7661 178.157 48.8426 176.79 48.8426ZM176.79 21.7582C175.745 21.7582 174.928 22.5703 174.928 23.6091V46.4251C174.928 47.4639 175.745 48.276 176.79 48.276C177.834 48.276 178.689 47.445 178.689 46.4251V23.6091C178.708 22.5892 177.853 21.7582 176.79 21.7582Z" fill="white"/>
<path d="M187.408 46.4442V23.6094C187.408 22.4195 188.339 21.4751 189.555 21.4751H194.152C201.655 21.4751 207.734 27.5568 207.734 34.9796C207.734 42.4778 201.674 48.5596 194.152 48.5596H189.555C188.358 48.5596 187.408 47.5963 187.408 46.4442ZM191.739 44.2721H194.152C199.281 44.2344 203.403 40.1358 203.403 34.9984C203.403 29.9366 199.281 25.8003 194.152 25.8003H191.739V44.2721Z" fill="white"/>
<path d="M194.152 48.8426H189.555C188.225 48.8426 187.142 47.7661 187.142 46.444V23.6091C187.142 22.2681 188.206 21.2104 189.555 21.2104H194.152C201.788 21.2104 208 27.3866 208 34.9793C208 42.6287 201.788 48.8426 194.152 48.8426ZM189.555 21.7582C188.51 21.7582 187.693 22.5703 187.693 23.6091V46.4251C187.693 47.445 188.529 48.276 189.555 48.276H194.152C201.484 48.276 207.449 42.3076 207.449 34.9793C207.449 27.6888 201.484 21.7582 194.152 21.7582H189.555ZM191.739 44.5363H191.473V25.5168H194.152C199.414 25.5168 203.688 29.7664 203.688 34.9982C203.688 40.3245 199.509 44.5174 194.152 44.5552H191.739V44.5363ZM192.005 43.9886H194.133C199.167 43.9508 203.118 39.9845 203.118 34.9793C203.118 30.0497 199.091 26.0456 194.133 26.0456H192.005V43.9886Z" fill="white"/>
<path d="M2.74844 35.3949C6.52864 33.5062 10.3088 31.5985 14.089 29.7098C15.7797 28.8599 14.298 26.329 12.5884 27.1789C8.80816 29.0676 5.02796 30.9753 1.24776 32.864C-0.442886 33.7139 1.0578 36.2448 2.74844 35.3949Z" fill="url(#paint0_linear_698_2621)"/>
<path d="M31.4893 28.2367C21.3455 33.6196 11.1826 39.0025 1.03878 44.3665C-0.632863 45.2542 0.848824 47.7851 2.53947 46.8974C12.6833 41.5145 22.8462 36.1316 32.99 30.7676C34.6427 29.8799 33.161 27.349 31.4893 28.2367Z" fill="url(#paint1_linear_698_2621)"/>
<path d="M25.0877 20.6061C22.7512 21.8715 20.4147 23.1181 18.0592 24.3835C16.3875 25.2901 17.8692 27.821 19.5599 26.9144C21.8964 25.649 24.2329 24.4024 26.5884 23.137C28.26 22.2493 26.7593 19.6995 25.0877 20.6061Z" fill="url(#paint2_linear_698_2621)"/>
<path d="M15.7606 18.8307C25.6386 13.5989 35.5165 8.34821 45.3754 3.11641C47.8259 4.41964 50.2574 5.72286 52.7078 7.02609C54.3795 7.9138 55.8802 5.38289 54.2085 4.49519C51.5111 3.05975 48.8327 1.62431 46.1352 0.188874C45.8693 0.0377747 45.6033 0 45.3754 0C45.1474 0 44.9005 0.0566621 44.6535 0.188874C34.5287 5.53399 24.4038 10.9169 14.279 16.2809C12.5883 17.1686 14.089 19.7184 15.7606 18.8307Z" fill="url(#paint3_linear_698_2621)"/>
<path d="M4.62902 24.4403C6.69959 23.3448 8.77015 22.2493 10.8407 21.1539C12.5124 20.2662 11.0307 17.7353 9.34003 18.623C7.26947 19.7184 5.1989 20.8139 3.12834 21.9094C1.4567 22.7971 2.95738 25.328 4.62902 24.4403Z" fill="url(#paint4_linear_698_2621)"/>
<path d="M57.9127 9.68903C67.2588 14.5997 76.6048 19.5293 85.9318 24.44C87.6035 25.3278 89.1041 22.7969 87.4325 21.9091C78.0865 16.9984 68.7404 12.0688 59.4134 7.15812C57.7228 6.27042 56.2221 8.80132 57.9127 9.68903Z" fill="url(#paint5_linear_698_2621)"/>
<path d="M46.1922 10.4634C45.6604 10.199 45.1665 10.2556 44.7676 10.4823C44.5776 10.5012 44.4066 10.5578 44.2167 10.6523C39.9046 12.8999 35.2696 15.4119 30.9575 17.6406C29.2668 18.5283 30.7675 21.0592 32.4582 20.1715C36.6563 17.9806 41.1963 15.5252 45.3944 13.3343C49.9725 15.6952 54.0946 17.8106 58.6536 20.1715C60.3443 21.0403 61.8449 18.5094 60.1543 17.6406C55.3483 15.1663 50.9982 12.9376 46.1922 10.4634Z" fill="url(#paint6_linear_698_2621)"/>
<path d="M73.2425 36.2071C63.0607 30.7487 56.3171 26.9901 46.1162 21.5316C45.8503 21.3805 45.5844 21.3428 45.3374 21.3428C45.1095 21.3428 44.8815 21.3994 44.6346 21.5316C42.1461 22.8538 39.6766 24.157 37.1881 25.4791C35.5165 26.3668 36.9982 28.8977 38.6888 28.01C40.9113 26.8201 43.1529 25.6491 45.3754 24.4592C55.3103 29.7854 61.8069 33.4118 71.7608 38.738C73.4325 39.6446 74.9331 37.1137 73.2425 36.2071Z" fill="url(#paint7_linear_698_2621)"/>
<path d="M89.731 44.6684C87.6794 43.5541 85.6089 42.4397 83.5573 41.3254C81.8857 40.4188 80.385 42.9497 82.0566 43.8563C84.1082 44.9706 86.1788 46.085 88.2303 47.1993C89.902 48.1059 91.4026 45.575 89.731 44.6684Z" fill="url(#paint8_linear_698_2621)"/>
<path d="M89.826 32.8638C86.3307 31.0695 82.8165 29.294 79.3212 27.4998C77.6305 26.6309 76.1299 29.1807 77.8205 30.0307C81.3158 31.825 84.83 33.6004 88.3253 35.3947C90.0349 36.2635 91.5166 33.7326 89.826 32.8638Z" fill="url(#paint9_linear_698_2621)"/>
<path d="M72.5206 24.2516C70.2031 22.9483 67.9046 21.6262 65.5871 20.323C63.9345 19.3786 62.5667 21.9851 64.2194 22.9295C66.5369 24.2327 68.8354 25.5548 71.1529 26.858C72.8056 27.7835 74.1733 25.1959 72.5206 24.2516Z" fill="url(#paint10_linear_698_2621)"/>
<path d="M3.05238 24.4403C12.5314 29.0111 22.0104 33.5818 31.5084 38.1714C33.218 39.0025 34.7187 36.4527 33.009 35.6405C23.5301 31.0698 14.0511 26.499 4.55307 21.9094C2.84343 21.0784 1.34275 23.6093 3.05238 24.4403Z" fill="url(#paint11_linear_698_2621)"/>
<path d="M37.3211 41.0989C39.8476 42.2888 42.3551 43.4598 44.8815 44.6497C45.1095 44.763 45.3375 44.8008 45.5654 44.8008C45.8313 44.8197 46.0973 44.7819 46.3822 44.6497C48.8707 43.4409 51.3592 42.2321 53.8477 41.0233C55.5573 40.1923 54.0566 37.6614 52.347 38.4924C50.1054 39.5879 47.8449 40.6645 45.6034 41.7599C43.3429 40.7022 41.0634 39.6257 38.8028 38.568C37.1122 37.7558 35.6115 40.2867 37.3211 41.0989Z" fill="url(#paint12_linear_698_2621)"/>
<path d="M13.1962 38.115C9.66295 36.3774 6.14869 34.6397 2.61544 32.9021C0.9248 32.0711 -0.575882 34.602 1.11476 35.433C4.64801 37.1706 8.16227 38.9083 11.6955 40.6459C13.4052 41.4958 14.9058 38.946 13.1962 38.115Z" fill="url(#paint13_linear_698_2621)"/>
<path d="M18.705 40.74C17.0144 39.9089 15.5137 42.4398 17.2044 43.2709C19.5789 44.4419 21.9723 45.6129 24.3468 46.8028C26.0375 47.6339 27.5382 45.103 25.8475 44.2719C23.473 43.082 21.0985 41.911 18.705 40.74Z" fill="url(#paint14_linear_698_2621)"/>
<path d="M8.5802 47.5208C6.47165 46.5009 4.3631 45.4809 2.25454 44.4421C0.544906 43.6111 -0.955777 46.142 0.753861 46.973C2.86241 47.993 4.97097 49.0129 7.07952 50.0517C8.78916 50.8827 10.2898 48.3518 8.5802 47.5208Z" fill="url(#paint15_linear_698_2621)"/>
<path d="M59.6604 38.1338C68.9684 33.582 78.2764 29.0112 87.5845 24.4594C89.2941 23.6283 87.7934 21.0974 86.0838 21.9285C76.7758 26.4803 67.4677 31.0511 58.1597 35.6029C56.45 36.4151 57.9507 38.9649 59.6604 38.1338Z" fill="url(#paint16_linear_698_2621)"/>
<path d="M59.0145 47.1619C54.5504 49.3717 50.0864 51.5815 45.6223 53.7914C41.1393 51.6193 36.6562 49.4284 32.1732 47.2563C30.4635 46.4253 28.9629 48.9562 30.6725 49.7872C35.4025 52.0915 40.1325 54.3958 44.8625 56.6811C45.1094 56.7945 45.3374 56.8511 45.5654 56.8322C45.8123 56.8511 46.0782 56.8133 46.3632 56.6811C51.0742 54.3391 55.7852 52.016 60.4962 49.6739C62.2248 48.8618 60.7241 46.3309 59.0145 47.1619Z" fill="url(#paint17_linear_698_2621)"/>
<path d="M88.2873 32.8454C84.849 34.5453 81.4108 36.264 77.9725 37.9639C76.2629 38.8138 77.7635 41.3447 79.4732 40.4948C82.9114 38.7949 86.3497 37.0762 89.788 35.3763C91.4976 34.5264 89.9969 31.9955 88.2873 32.8454Z" fill="url(#paint18_linear_698_2621)"/>
<path d="M72.4637 40.6081C70.0892 41.798 67.6957 42.969 65.3212 44.1589C63.6115 45.0089 65.1122 47.5398 66.8219 46.6898C69.1964 45.4999 71.5899 44.3289 73.9644 43.139C75.655 42.2891 74.1733 39.7582 72.4637 40.6081Z" fill="url(#paint19_linear_698_2621)"/>
<path d="M75.579 50.9582C65.5871 55.9444 55.6143 60.9307 45.6224 65.917C35.6305 60.9874 25.6196 56.0389 15.6277 51.1093C13.9371 50.2782 12.4364 52.8091 14.127 53.6402C24.3849 58.702 34.6237 63.7638 44.8815 68.8256C45.1285 68.9389 45.3754 68.9956 45.6034 68.9956C45.8503 69.0145 46.1163 68.9767 46.3822 68.8256C56.621 63.726 66.8409 58.6075 77.0797 53.508C78.7704 52.658 77.2887 50.1082 75.579 50.9582Z" fill="url(#paint20_linear_698_2621)"/>
<path d="M88.2873 44.6687C86.1788 45.7075 84.0892 46.7274 81.9807 47.7662C80.271 48.5973 81.7717 51.1282 83.4814 50.2971C85.5899 49.2583 87.6795 48.2384 89.788 47.1996C91.4977 46.3686 89.997 43.8377 88.2873 44.6687Z" fill="url(#paint21_linear_698_2621)"/>
<defs>
<linearGradient id="paint0_linear_698_2621" x1="84.1018" y1="31.056" x2="4.67694" y2="31.3037" gradientUnits="userSpaceOnUse">
<stop offset="0.00119895" stop-color="#E73587"/>
<stop offset="0.5001" stop-color="#7F2483"/>
<stop offset="0.5983" stop-color="#73348B"/>
<stop offset="0.791" stop-color="#545EA0"/>
<stop offset="1" stop-color="#2D93BB"/>
</linearGradient>
<linearGradient id="paint1_linear_698_2621" x1="84.2608" y1="37.3621" x2="4.83595" y2="37.6097" gradientUnits="userSpaceOnUse">
<stop offset="0.00119895" stop-color="#E73587"/>
<stop offset="0.5001" stop-color="#7F2483"/>
<stop offset="0.5983" stop-color="#73348B"/>
<stop offset="0.791" stop-color="#545EA0"/>
<stop offset="1" stop-color="#2D93BB"/>
</linearGradient>
<linearGradient id="paint2_linear_698_2621" x1="84.2168" y1="23.5662" x2="4.79191" y2="23.8139" gradientUnits="userSpaceOnUse">
<stop offset="0.00119895" stop-color="#E73587"/>
<stop offset="0.5001" stop-color="#7F2483"/>
<stop offset="0.5983" stop-color="#73348B"/>
<stop offset="0.791" stop-color="#545EA0"/>
<stop offset="1" stop-color="#2D93BB"/>
</linearGradient>
<linearGradient id="paint3_linear_698_2621" x1="84.1724" y1="9.33275" x2="4.74751" y2="9.58043" gradientUnits="userSpaceOnUse">
<stop offset="0.00119895" stop-color="#E73587"/>
<stop offset="0.5001" stop-color="#7F2483"/>
<stop offset="0.5983" stop-color="#73348B"/>
<stop offset="0.791" stop-color="#545EA0"/>
<stop offset="1" stop-color="#2D93BB"/>
</linearGradient>
<linearGradient id="paint4_linear_698_2621" x1="84.1523" y1="21.2923" x2="4.72747" y2="21.54" gradientUnits="userSpaceOnUse">
<stop offset="0.00119895" stop-color="#E73587"/>
<stop offset="0.5001" stop-color="#7F2483"/>
<stop offset="0.5983" stop-color="#73348B"/>
<stop offset="0.791" stop-color="#545EA0"/>
<stop offset="1" stop-color="#2D93BB"/>
</linearGradient>
<linearGradient id="paint5_linear_698_2621" x1="84.1924" y1="15.7605" x2="4.76756" y2="16.0082" gradientUnits="userSpaceOnUse">
<stop offset="0.00119895" stop-color="#E73587"/>
<stop offset="0.5001" stop-color="#7F2483"/>
<stop offset="0.5983" stop-color="#73348B"/>
<stop offset="0.791" stop-color="#545EA0"/>
<stop offset="1" stop-color="#2D93BB"/>
</linearGradient>
<linearGradient id="paint6_linear_698_2621" x1="83.6685" y1="15.2271" x2="4.51521" y2="15.4739" gradientUnits="userSpaceOnUse">
<stop offset="0.00119895" stop-color="#E73587"/>
<stop offset="0.5001" stop-color="#7F2483"/>
<stop offset="0.5983" stop-color="#73348B"/>
<stop offset="0.791" stop-color="#545EA0"/>
<stop offset="1" stop-color="#2D93BB"/>
</linearGradient>
<linearGradient id="paint7_linear_698_2621" x1="80.2228" y1="30.0765" x2="7.47218" y2="30.3034" gradientUnits="userSpaceOnUse">
<stop offset="0.00119895" stop-color="#E73587"/>
<stop offset="0.5001" stop-color="#7F2483"/>
<stop offset="0.5983" stop-color="#73348B"/>
<stop offset="0.791" stop-color="#545EA0"/>
<stop offset="1" stop-color="#2D93BB"/>
</linearGradient>
<linearGradient id="paint8_linear_698_2621" x1="84.4309" y1="44.27" x2="5.00611" y2="44.5177" gradientUnits="userSpaceOnUse">
<stop offset="0.00119895" stop-color="#E73587"/>
<stop offset="0.5001" stop-color="#7F2483"/>
<stop offset="0.5983" stop-color="#73348B"/>
<stop offset="0.791" stop-color="#545EA0"/>
<stop offset="1" stop-color="#2D93BB"/>
</linearGradient>
<linearGradient id="paint9_linear_698_2621" x1="84.2851" y1="31.4607" x2="4.86021" y2="31.7084" gradientUnits="userSpaceOnUse">
<stop offset="0.00119895" stop-color="#E73587"/>
<stop offset="0.5001" stop-color="#7F2483"/>
<stop offset="0.5983" stop-color="#73348B"/>
<stop offset="0.791" stop-color="#545EA0"/>
<stop offset="1" stop-color="#2D93BB"/>
</linearGradient>
<linearGradient id="paint10_linear_698_2621" x1="74.8353" y1="33.8252" x2="32.9016" y2="-33.2448" gradientUnits="userSpaceOnUse">
<stop offset="0.00119895" stop-color="#E73587"/>
<stop offset="0.5001" stop-color="#7F2483"/>
<stop offset="0.5983" stop-color="#73348B"/>
<stop offset="0.791" stop-color="#545EA0"/>
<stop offset="1" stop-color="#2D93BB"/>
</linearGradient>
<linearGradient id="paint11_linear_698_2621" x1="4.60578" y1="30.3744" x2="90.6795" y2="28.1451" gradientUnits="userSpaceOnUse">
<stop stop-color="#2993BE"/>
<stop offset="0.0776092" stop-color="#2F9ABC"/>
<stop offset="0.1896" stop-color="#40ADB7"/>
<stop offset="0.2086" stop-color="#43B1B6"/>
<stop offset="0.2405" stop-color="#4FB1AE"/>
<stop offset="0.2985" stop-color="#70B199"/>
<stop offset="0.3762" stop-color="#A4B277"/>
<stop offset="0.4696" stop-color="#EDB248"/>
<stop offset="0.4836" stop-color="#F8B241"/>
<stop offset="0.5305" stop-color="#F7AB43"/>
<stop offset="0.6009" stop-color="#F49647"/>
<stop offset="0.6858" stop-color="#EE744E"/>
<stop offset="0.7585" stop-color="#E95255"/>
<stop offset="0.8236" stop-color="#E94E5A"/>
<stop offset="0.9043" stop-color="#E8446A"/>
<stop offset="0.993" stop-color="#E73383"/>
<stop offset="1" stop-color="#E73185"/>
</linearGradient>
<linearGradient id="paint12_linear_698_2621" x1="4.92098" y1="42.5444" x2="90.9947" y2="40.3152" gradientUnits="userSpaceOnUse">
<stop stop-color="#2993BE"/>
<stop offset="0.0776092" stop-color="#2F9ABC"/>
<stop offset="0.1896" stop-color="#40ADB7"/>
<stop offset="0.2086" stop-color="#43B1B6"/>
<stop offset="0.2405" stop-color="#4FB1AE"/>
<stop offset="0.2985" stop-color="#70B199"/>
<stop offset="0.3762" stop-color="#A4B277"/>
<stop offset="0.4696" stop-color="#EDB248"/>
<stop offset="0.4836" stop-color="#F8B241"/>
<stop offset="0.5305" stop-color="#F7AB43"/>
<stop offset="0.6009" stop-color="#F49647"/>
<stop offset="0.6858" stop-color="#EE744E"/>
<stop offset="0.7585" stop-color="#E95255"/>
<stop offset="0.8236" stop-color="#E94E5A"/>
<stop offset="0.9043" stop-color="#E8446A"/>
<stop offset="0.993" stop-color="#E73383"/>
<stop offset="1" stop-color="#E73185"/>
</linearGradient>
<linearGradient id="paint13_linear_698_2621" x1="4.77302" y1="36.8337" x2="90.8468" y2="34.6044" gradientUnits="userSpaceOnUse">
<stop stop-color="#2993BE"/>
<stop offset="0.0776092" stop-color="#2F9ABC"/>
<stop offset="0.1896" stop-color="#40ADB7"/>
<stop offset="0.2086" stop-color="#43B1B6"/>
<stop offset="0.2405" stop-color="#4FB1AE"/>
<stop offset="0.2985" stop-color="#70B199"/>
<stop offset="0.3762" stop-color="#A4B277"/>
<stop offset="0.4696" stop-color="#EDB248"/>
<stop offset="0.4836" stop-color="#F8B241"/>
<stop offset="0.5305" stop-color="#F7AB43"/>
<stop offset="0.6009" stop-color="#F49647"/>
<stop offset="0.6858" stop-color="#EE744E"/>
<stop offset="0.7585" stop-color="#E95255"/>
<stop offset="0.8236" stop-color="#E94E5A"/>
<stop offset="0.9043" stop-color="#E8446A"/>
<stop offset="0.993" stop-color="#E73383"/>
<stop offset="1" stop-color="#E73185"/>
</linearGradient>
<linearGradient id="paint14_linear_698_2621" x1="4.96362" y1="44.192" x2="91.0373" y2="41.9628" gradientUnits="userSpaceOnUse">
<stop stop-color="#2993BE"/>
<stop offset="0.0776092" stop-color="#2F9ABC"/>
<stop offset="0.1896" stop-color="#40ADB7"/>
<stop offset="0.2086" stop-color="#43B1B6"/>
<stop offset="0.2405" stop-color="#4FB1AE"/>
<stop offset="0.2985" stop-color="#70B199"/>
<stop offset="0.3762" stop-color="#A4B277"/>
<stop offset="0.4696" stop-color="#EDB248"/>
<stop offset="0.4836" stop-color="#F8B241"/>
<stop offset="0.5305" stop-color="#F7AB43"/>
<stop offset="0.6009" stop-color="#F49647"/>
<stop offset="0.6858" stop-color="#EE744E"/>
<stop offset="0.7585" stop-color="#E95255"/>
<stop offset="0.8236" stop-color="#E94E5A"/>
<stop offset="0.9043" stop-color="#E8446A"/>
<stop offset="0.993" stop-color="#E73383"/>
<stop offset="1" stop-color="#E73185"/>
</linearGradient>
<linearGradient id="paint15_linear_698_2621" x1="5.0427" y1="47.245" x2="91.1164" y2="45.0158" gradientUnits="userSpaceOnUse">
<stop stop-color="#2993BE"/>
<stop offset="0.0776092" stop-color="#2F9ABC"/>
<stop offset="0.1896" stop-color="#40ADB7"/>
<stop offset="0.2086" stop-color="#43B1B6"/>
<stop offset="0.2405" stop-color="#4FB1AE"/>
<stop offset="0.2985" stop-color="#70B199"/>
<stop offset="0.3762" stop-color="#A4B277"/>
<stop offset="0.4696" stop-color="#EDB248"/>
<stop offset="0.4836" stop-color="#F8B241"/>
<stop offset="0.5305" stop-color="#F7AB43"/>
<stop offset="0.6009" stop-color="#F49647"/>
<stop offset="0.6858" stop-color="#EE744E"/>
<stop offset="0.7585" stop-color="#E95255"/>
<stop offset="0.8236" stop-color="#E94E5A"/>
<stop offset="0.9043" stop-color="#E8446A"/>
<stop offset="0.993" stop-color="#E73383"/>
<stop offset="1" stop-color="#E73185"/>
</linearGradient>
<linearGradient id="paint16_linear_698_2621" x1="4.63292" y1="31.7683" x2="90.7067" y2="29.5391" gradientUnits="userSpaceOnUse">
<stop stop-color="#2993BE"/>
<stop offset="0.0776092" stop-color="#2F9ABC"/>
<stop offset="0.1896" stop-color="#40ADB7"/>
<stop offset="0.2086" stop-color="#43B1B6"/>
<stop offset="0.2405" stop-color="#4FB1AE"/>
<stop offset="0.2985" stop-color="#70B199"/>
<stop offset="0.3762" stop-color="#A4B277"/>
<stop offset="0.4696" stop-color="#EDB248"/>
<stop offset="0.4836" stop-color="#F8B241"/>
<stop offset="0.5305" stop-color="#F7AB43"/>
<stop offset="0.6009" stop-color="#F49647"/>
<stop offset="0.6858" stop-color="#EE744E"/>
<stop offset="0.7585" stop-color="#E95255"/>
<stop offset="0.8236" stop-color="#E94E5A"/>
<stop offset="0.9043" stop-color="#E8446A"/>
<stop offset="0.993" stop-color="#E73383"/>
<stop offset="1" stop-color="#E73185"/>
</linearGradient>
<linearGradient id="paint17_linear_698_2621" x1="5.18749" y1="52.8371" x2="91.2613" y2="50.6079" gradientUnits="userSpaceOnUse">
<stop stop-color="#2993BE"/>
<stop offset="0.0776092" stop-color="#2F9ABC"/>
<stop offset="0.1896" stop-color="#40ADB7"/>
<stop offset="0.2086" stop-color="#43B1B6"/>
<stop offset="0.2405" stop-color="#4FB1AE"/>
<stop offset="0.2985" stop-color="#70B199"/>
<stop offset="0.3762" stop-color="#A4B277"/>
<stop offset="0.4696" stop-color="#EDB248"/>
<stop offset="0.4836" stop-color="#F8B241"/>
<stop offset="0.5305" stop-color="#F7AB43"/>
<stop offset="0.6009" stop-color="#F49647"/>
<stop offset="0.6858" stop-color="#EE744E"/>
<stop offset="0.7585" stop-color="#E95255"/>
<stop offset="0.8236" stop-color="#E94E5A"/>
<stop offset="0.9043" stop-color="#E8446A"/>
<stop offset="0.993" stop-color="#E73383"/>
<stop offset="1" stop-color="#E73185"/>
</linearGradient>
<linearGradient id="paint18_linear_698_2621" x1="4.8211" y1="38.6915" x2="90.8949" y2="36.4623" gradientUnits="userSpaceOnUse">
<stop stop-color="#2993BE"/>
<stop offset="0.0776092" stop-color="#2F9ABC"/>
<stop offset="0.1896" stop-color="#40ADB7"/>
<stop offset="0.2086" stop-color="#43B1B6"/>
<stop offset="0.2405" stop-color="#4FB1AE"/>
<stop offset="0.2985" stop-color="#70B199"/>
<stop offset="0.3762" stop-color="#A4B277"/>
<stop offset="0.4696" stop-color="#EDB248"/>
<stop offset="0.4836" stop-color="#F8B241"/>
<stop offset="0.5305" stop-color="#F7AB43"/>
<stop offset="0.6009" stop-color="#F49647"/>
<stop offset="0.6858" stop-color="#EE744E"/>
<stop offset="0.7585" stop-color="#E95255"/>
<stop offset="0.8236" stop-color="#E94E5A"/>
<stop offset="0.9043" stop-color="#E8446A"/>
<stop offset="0.993" stop-color="#E73383"/>
<stop offset="1" stop-color="#E73185"/>
</linearGradient>
<linearGradient id="paint19_linear_698_2621" x1="4.99222" y1="45.2968" x2="91.066" y2="43.0675" gradientUnits="userSpaceOnUse">
<stop stop-color="#2993BE"/>
<stop offset="0.0776092" stop-color="#2F9ABC"/>
<stop offset="0.1896" stop-color="#40ADB7"/>
<stop offset="0.2086" stop-color="#43B1B6"/>
<stop offset="0.2405" stop-color="#4FB1AE"/>
<stop offset="0.2985" stop-color="#70B199"/>
<stop offset="0.3762" stop-color="#A4B277"/>
<stop offset="0.4696" stop-color="#EDB248"/>
<stop offset="0.4836" stop-color="#F8B241"/>
<stop offset="0.5305" stop-color="#F7AB43"/>
<stop offset="0.6009" stop-color="#F49647"/>
<stop offset="0.6858" stop-color="#EE744E"/>
<stop offset="0.7585" stop-color="#E95255"/>
<stop offset="0.8236" stop-color="#E94E5A"/>
<stop offset="0.9043" stop-color="#E8446A"/>
<stop offset="0.993" stop-color="#E73383"/>
<stop offset="1" stop-color="#E73185"/>
</linearGradient>
<linearGradient id="paint20_linear_698_2621" x1="5.38867" y1="60.6034" x2="91.4624" y2="58.3742" gradientUnits="userSpaceOnUse">
<stop stop-color="#2993BE"/>
<stop offset="0.0776092" stop-color="#2F9ABC"/>
<stop offset="0.1896" stop-color="#40ADB7"/>
<stop offset="0.2086" stop-color="#43B1B6"/>
<stop offset="0.2405" stop-color="#4FB1AE"/>
<stop offset="0.2985" stop-color="#70B199"/>
<stop offset="0.3762" stop-color="#A4B277"/>
<stop offset="0.4696" stop-color="#EDB248"/>
<stop offset="0.4836" stop-color="#F8B241"/>
<stop offset="0.5305" stop-color="#F7AB43"/>
<stop offset="0.6009" stop-color="#F49647"/>
<stop offset="0.6858" stop-color="#EE744E"/>
<stop offset="0.7585" stop-color="#E95255"/>
<stop offset="0.8236" stop-color="#E94E5A"/>
<stop offset="0.9043" stop-color="#E8446A"/>
<stop offset="0.993" stop-color="#E73383"/>
<stop offset="1" stop-color="#E73185"/>
</linearGradient>
<linearGradient id="paint21_linear_698_2621" x1="5.10258" y1="49.5574" x2="91.1763" y2="47.3282" gradientUnits="userSpaceOnUse">
<stop stop-color="#2993BE"/>
<stop offset="0.0776092" stop-color="#2F9ABC"/>
<stop offset="0.1896" stop-color="#40ADB7"/>
<stop offset="0.2086" stop-color="#43B1B6"/>
<stop offset="0.2405" stop-color="#4FB1AE"/>
<stop offset="0.2985" stop-color="#70B199"/>
<stop offset="0.3762" stop-color="#A4B277"/>
<stop offset="0.4696" stop-color="#EDB248"/>
<stop offset="0.4836" stop-color="#F8B241"/>
<stop offset="0.5305" stop-color="#F7AB43"/>
<stop offset="0.6009" stop-color="#F49647"/>
<stop offset="0.6858" stop-color="#EE744E"/>
<stop offset="0.7585" stop-color="#E95255"/>
<stop offset="0.8236" stop-color="#E94E5A"/>
<stop offset="0.9043" stop-color="#E8446A"/>
<stop offset="0.993" stop-color="#E73383"/>
<stop offset="1" stop-color="#E73185"/>
</linearGradient>
</defs>
</svg>
