<svg width="65" height="65" viewBox="0 0 65 65" fill="none" xmlns="http://www.w3.org/2000/svg">
<mask id="mask0_68_991" style="mask-type:alpha" maskUnits="userSpaceOnUse" x="0" y="0" width="65" height="65">
<rect x="0.53125" y="0.949463" width="64" height="64" fill="#D9D9D9"/>
</mask>
<g mask="url(#mask0_68_991)">
<path fill-rule="evenodd" clip-rule="evenodd" d="M59.5422 7.09097C60.0807 7.62941 60.3832 8.35969 60.3832 9.12116C60.3832 9.19129 60.3832 9.26136 60.3832 9.33138C60.3835 13.4801 60.3838 17.4359 59.1854 21.4307C58.0401 25.2483 55.8713 28.9178 52.0102 33.0081L53.0784 38.3491C54.208 43.997 52.4402 49.8359 48.3673 53.9087L45.0069 57.2691C42.3093 59.9667 37.7797 59.3323 35.9269 55.9974L30.7929 46.7561L19.8771 35.8403L10.6358 30.7063C7.30091 28.8535 6.6665 24.3239 9.36414 21.6263L12.7245 18.2659C16.7973 14.193 22.6362 12.4252 28.2841 13.5548L33.6251 14.623C37.7154 10.7619 41.3849 8.59306 45.2025 7.44779C49.1973 6.24936 53.153 6.24968 57.3018 6.25002C57.3718 6.25003 57.4419 6.25003 57.512 6.25003C58.2735 6.25003 59.0038 6.55253 59.5422 7.09097ZM29.2963 19.6132L27.158 19.1855C23.3927 18.4325 19.5001 19.611 16.7849 22.3262L13.4245 25.6866L20.92 29.8508L29.2963 19.6132ZM25.4904 33.3329L33.3461 41.1885C33.3487 41.1865 33.3513 41.1845 33.3538 41.1825C34.577 40.2274 36.2401 38.9214 38.0024 37.516C41.5933 34.6523 45.3941 31.5343 46.8685 30.06C50.937 25.9914 52.7801 22.7982 53.6853 19.7807C54.4019 17.3922 54.5814 14.9799 54.6261 12.0071C51.6533 12.0518 49.241 12.2313 46.8525 12.9479C43.8598 13.8457 40.6942 15.666 36.6732 19.665L25.4904 33.3329ZM36.8125 45.7673L40.9466 53.2087L44.3069 49.8483C47.0222 47.1331 48.2007 43.2405 47.4477 39.4752L47.0621 37.5472C45.3449 38.9848 43.3845 40.5685 41.5826 42.0055C39.8006 43.4267 38.1212 44.7454 36.8879 45.7084C36.8626 45.7282 36.8374 45.7478 36.8125 45.7673ZM46.6222 20.0125C47.7434 21.1337 47.7434 22.9516 46.6222 24.0728L43.751 26.944C42.6298 28.0652 40.8119 28.0652 39.6906 26.944C38.5694 25.8227 38.5694 24.0048 39.6906 22.8836L42.5618 20.0125C43.683 18.8912 45.5009 18.8912 46.6222 20.0125ZM17.3162 46.4458L16.2815 46.4458C14.9129 46.4458 13.7345 47.4119 13.4661 48.7539L12.3628 54.2704L17.8793 53.1671C19.2213 52.8987 20.1874 51.7203 20.1874 50.3517L20.1874 49.317C20.1874 47.7313 18.9019 46.4458 17.3162 46.4458ZM17.3162 40.7036C22.0733 40.7036 25.9296 44.5599 25.9296 49.317L25.9296 50.3517C25.9296 54.4575 23.0316 57.9926 19.0055 58.7978L9.26592 60.7457C8.32459 60.934 7.35145 60.6394 6.67265 59.9606C5.99384 59.2817 5.6992 58.3086 5.88747 57.3673L7.83537 47.6277C8.64059 43.6016 12.1757 40.7036 16.2815 40.7036L17.3162 40.7036Z" fill="#E94B57"/>
</g>
</svg>
