<svg width="65" height="65" viewBox="0 0 65 65" fill="none" xmlns="http://www.w3.org/2000/svg">
<mask id="mask0_68_1034" style="mask-type:alpha" maskUnits="userSpaceOnUse" x="0" y="0" width="65" height="65">
<rect x="0.53125" y="0.554199" width="64" height="64" fill="#D9D9D9"/>
</mask>
<g mask="url(#mask0_68_1034)">
<path fill-rule="evenodd" clip-rule="evenodd" d="M30.9009 5.02788C31.8762 4.33127 33.1863 4.33127 34.1616 5.02788L35.2451 5.80186C40.3063 9.41698 46.5239 11.0364 52.7056 10.3496L54.6605 10.1323C55.4535 10.0442 56.2464 10.298 56.8409 10.8301C57.4354 11.3622 57.7751 12.1222 57.7751 12.9201V32.7105C57.7751 42.2722 52.3729 51.0132 43.8207 55.2893L33.7856 60.3069C32.996 60.7017 32.0665 60.7017 31.2769 60.3069L21.2418 55.2893C12.6896 51.0132 7.28735 42.2722 7.28735 32.7105V12.9201C7.28735 12.1222 7.62711 11.3622 8.2216 10.8301C8.81608 10.298 9.60903 10.0442 10.402 10.1323L12.3569 10.3496C18.5386 11.0364 24.7562 9.41698 29.8174 5.80186L30.9009 5.02788ZM32.5312 10.7484C26.7679 14.6799 19.8455 16.5394 12.8971 16.0318V32.7105C12.8971 40.1474 17.0989 46.946 23.7506 50.2718L32.5312 54.6622L41.3119 50.2718C47.9636 46.946 52.1654 40.1474 52.1654 32.7105V16.0318C45.217 16.5394 38.2946 14.6799 32.5312 10.7484Z" fill="#E94B57"/>
</g>
</svg>
