<svg width="65" height="65" viewBox="0 0 65 65" fill="none" xmlns="http://www.w3.org/2000/svg">
<mask id="mask0_68_1042" style="mask-type:alpha" maskUnits="userSpaceOnUse" x="0" y="0" width="65" height="65">
<rect x="0.03125" y="0.554199" width="64" height="64" fill="#D9D9D9"/>
</mask>
<g mask="url(#mask0_68_1042)">
<path fill-rule="evenodd" clip-rule="evenodd" d="M13.131 6.77701C17.4093 5.17272 23.1387 4.23565 29.3342 4.23565C35.5296 4.23565 41.2591 5.17272 45.5374 6.77701C47.6666 7.57542 49.5771 8.59121 51.0038 9.85603C52.4273 11.1181 53.6072 12.8582 53.6072 15.0237V31.2057C53.6072 32.6952 52.3998 33.9027 50.9102 33.9027C49.4207 33.9027 48.2132 32.6952 48.2132 31.2057V22.0796C47.3795 22.5209 46.4799 22.9169 45.5374 23.2703C41.2591 24.8746 35.5296 25.8117 29.3342 25.8117C23.1387 25.8117 17.4093 24.8746 13.131 23.2703C12.1885 22.9169 11.2889 22.5209 10.4552 22.0796V31.2057C10.4552 31.2747 10.4828 31.6632 11.243 32.3372C12.0001 33.0084 13.2495 33.7361 15.0248 34.4018C18.5557 35.7258 23.6143 36.5997 29.3342 36.5997C31.5389 36.5997 33.6525 36.4709 35.6275 36.2311C37.1061 36.0515 38.4504 37.1046 38.63 38.5832C38.8096 40.0619 37.7565 41.4061 36.2778 41.5857C34.0778 41.8529 31.7467 41.9938 29.3342 41.9938C23.1387 41.9938 17.4093 41.0567 13.131 39.4524C12.1885 39.099 11.2889 38.703 10.4552 38.2617V47.3878C10.4552 47.4568 10.4828 47.8453 11.243 48.5193C12.0001 49.1905 13.2495 49.9182 15.0248 50.5839C18.5557 51.9079 23.6143 52.7818 29.3342 52.7818C29.7743 52.7818 30.2116 52.7767 30.6458 52.7664C32.1349 52.7312 33.3707 53.9097 33.4059 55.3988C33.4412 56.8879 32.2626 58.1237 30.7735 58.1589C30.2962 58.1702 29.8164 58.1758 29.3342 58.1758C23.1387 58.1758 17.4093 57.2388 13.131 55.6345C11.0017 54.8361 9.09127 53.8203 7.66463 52.5555C6.24112 51.2934 5.06114 49.5533 5.06114 47.3878V31.2058V31.2058V31.2057V15.0237V15.0237C5.06114 12.8582 6.24112 11.1181 7.66463 9.85603C9.09127 8.59121 11.0017 7.57542 13.131 6.77701ZM11.243 13.8922C10.4828 14.5662 10.4552 14.9547 10.4552 15.0237C10.4552 15.0926 10.4828 15.4811 11.243 16.1551C12.0001 16.8264 13.2495 17.554 15.0248 18.2197C18.5557 19.5437 23.6143 20.4177 29.3342 20.4177C35.0541 20.4177 40.1127 19.5437 43.6435 18.2197C45.4189 17.554 46.6683 16.8264 47.4254 16.1551C48.1856 15.4811 48.2132 15.0926 48.2132 15.0237C48.2132 14.9547 48.1856 14.5662 47.4254 13.8922C46.6683 13.221 45.4189 12.4933 43.6435 11.8276C40.1127 10.5036 35.0541 9.62966 29.3342 9.62966C23.6143 9.62966 18.5557 10.5036 15.0248 11.8276C13.2495 12.4933 12.0001 13.221 11.243 13.8922ZM45.5165 48.5047V58.1758C45.5165 59.6653 46.724 60.8728 48.2135 60.8728C49.7031 60.8728 50.9106 59.6653 50.9106 58.1758V48.5051L54.3973 51.9918C55.4505 53.0451 57.1582 53.0451 58.2114 51.9918C59.2647 50.9386 59.2647 49.2309 58.2114 48.1777L50.1405 40.1068C50.0667 40.0314 49.9886 39.9604 49.9065 39.8941C49.7323 39.7533 49.5448 39.6374 49.3485 39.5464C49.007 39.3878 48.6268 39.2985 48.2259 39.2967C48.2218 39.2967 48.2177 39.2967 48.2135 39.2967C48.2009 39.2967 48.1884 39.2968 48.1758 39.297C48.1925 39.2967 48.2092 39.2967 48.2259 39.2967M45.5165 48.5047L42.0294 51.9918C40.9761 53.0451 39.2685 53.0451 38.2153 51.9918C37.162 50.9386 37.162 49.2309 38.2153 48.1777L46.3063 40.0867C46.5884 39.8046 46.9174 39.598 47.2682 39.467" fill="#E94B57"/>
</g>
</svg>
