<svg width="65" height="65" viewBox="0 0 65 65" fill="none" xmlns="http://www.w3.org/2000/svg">
<mask id="mask0_68_1050" style="mask-type:alpha" maskUnits="userSpaceOnUse" x="0" y="0" width="65" height="65">
<rect x="0.53125" y="0.554199" width="64" height="64" fill="#D9D9D9"/>
</mask>
<g mask="url(#mask0_68_1050)">
<path fill-rule="evenodd" clip-rule="evenodd" d="M20.7759 4.17423C24.5028 2.63049 28.4973 1.83594 32.5312 1.83594C36.5652 1.83594 40.5597 2.63049 44.2866 4.17423C48.0135 5.71796 51.3999 7.98065 54.2523 10.8331C57.1048 13.6856 59.3675 17.0719 60.9112 20.7988C62.455 24.5257 63.2495 28.5202 63.2495 32.5542C63.2495 36.5882 62.455 40.5827 60.9112 44.3096C59.3675 48.0365 57.1048 51.4228 54.2523 54.2753C51.3999 57.1277 48.0135 59.3904 44.2866 60.9342C40.5597 62.4779 36.5652 63.2725 32.5312 63.2725C28.4973 63.2725 24.5028 62.4779 20.7759 60.9342C17.049 59.3904 13.6626 57.1277 10.8102 54.2753C7.9577 51.4228 5.69501 48.0365 4.15128 44.3096C2.60754 40.5827 1.81299 36.5882 1.81299 32.5542C1.81299 28.5202 2.60754 24.5257 4.15128 20.7988C5.69501 17.0719 7.9577 13.6856 10.8102 10.8331C13.6626 7.98065 17.049 5.71796 20.7759 4.17423ZM32.5312 7.97959C29.3041 7.97959 26.1085 8.61523 23.127 9.85022C20.1454 11.0852 17.4363 12.8954 15.1544 15.1773C12.8724 17.4593 11.0623 20.1684 9.82727 23.1499C8.59228 26.1314 7.95664 29.327 7.95664 32.5542C7.95664 35.7814 8.59228 38.977 9.82727 41.9585C11.0623 44.94 12.8724 47.6491 15.1544 49.9311C17.4363 52.213 20.1454 54.0232 23.127 55.2582C26.1085 56.4932 29.3041 57.1288 32.5312 57.1288C35.7584 57.1288 38.954 56.4932 41.9355 55.2582C44.9171 54.0232 47.6262 52.213 49.9081 49.9311C52.1901 47.6491 54.0002 44.94 55.2352 41.9585C56.4702 38.977 57.1059 35.7814 57.1059 32.5542C57.1059 29.327 56.4702 26.1314 55.2352 23.1499C54.0002 20.1684 52.1901 17.4593 49.9081 15.1773C47.6262 12.8954 44.9171 11.0852 41.9355 9.85022C38.954 8.61523 35.7584 7.97959 32.5312 7.97959Z" fill="#E94B57"/>
<path fill-rule="evenodd" clip-rule="evenodd" d="M43.9188 24.2384C45.1185 25.4381 45.1185 27.383 43.9188 28.5827L31.6315 40.87C30.4319 42.0696 28.4869 42.0696 27.2873 40.87L21.1437 34.7263C19.9441 33.5267 19.9441 31.5817 21.1437 30.3821C22.3433 29.1825 24.2883 29.1825 25.4879 30.3821L29.4594 34.3536L39.5746 24.2384C40.7743 23.0388 42.7192 23.0388 43.9188 24.2384Z" fill="#E94B57"/>
</g>
</svg>
