<svg width="65" height="65" viewBox="0 0 65 65" fill="none" xmlns="http://www.w3.org/2000/svg">
<mask id="mask0_68_1020" style="mask-type:alpha" maskUnits="userSpaceOnUse" x="0" y="0" width="65" height="65">
<rect x="0.03125" y="0.949463" width="64" height="64" fill="#D9D9D9"/>
</mask>
<g mask="url(#mask0_68_1020)">
<path d="M4.03125 4.94946V60.9495H60.0312M26.3073 28.6565L33.5873 37.6165M41.638 37.0808L50.4642 22.8133M16.4757 23.6161C16.4757 25.2664 17.1312 26.849 18.2981 28.0159C19.465 29.1828 21.0477 29.8384 22.6979 29.8384C24.3482 29.8384 25.9308 29.1828 27.0977 28.0159C28.2646 26.849 28.9201 25.2664 28.9201 23.6161C28.9201 21.9659 28.2646 20.3832 27.0977 19.2164C25.9308 18.0495 24.3482 17.3939 22.6979 17.3939C21.0477 17.3939 19.465 18.0495 18.2981 19.2164C17.1312 20.3832 16.4757 21.9659 16.4757 23.6161ZM47.5868 17.3939C47.5868 19.0441 48.2424 20.6268 49.4093 21.7937C50.5761 22.9606 52.1588 23.6161 53.809 23.6161C55.4593 23.6161 57.0419 22.9606 58.2088 21.7937C59.3757 20.6268 60.0312 19.0441 60.0312 17.3939C60.0312 15.7437 59.3757 14.161 58.2088 12.9941C57.0419 11.8272 55.4593 11.1717 53.809 11.1717C52.1588 11.1717 50.5761 11.8272 49.4093 12.9941C48.2424 14.161 47.5868 15.7437 47.5868 17.3939ZM32.0312 42.2828C32.0312 43.933 32.6868 45.5157 33.8537 46.6826C35.0206 47.8495 36.6032 48.505 38.2535 48.505C39.9037 48.505 41.4864 47.8495 42.6532 46.6826C43.8201 45.5157 44.4757 43.933 44.4757 42.2828C44.4757 40.6326 43.8201 39.0499 42.6532 37.883C41.4864 36.7161 39.9037 36.0606 38.2535 36.0606C36.6032 36.0606 35.0206 36.7161 33.8537 37.883C32.6868 39.0499 32.0312 40.6326 32.0312 42.2828Z" stroke="#E94B57" stroke-width="6" stroke-linecap="round" stroke-linejoin="round"/>
</g>
</svg>
