<svg width="65" height="65" viewBox="0 0 65 65" fill="none" xmlns="http://www.w3.org/2000/svg">
<mask id="mask0_68_1007" style="mask-type:alpha" maskUnits="userSpaceOnUse" x="0" y="0" width="65" height="65">
<rect x="0.53125" y="0.949463" width="64" height="64" fill="#D9D9D9"/>
</mask>
<g mask="url(#mask0_68_1007)">
<path d="M55.4018 34.7091L32.5566 57.335L9.71144 34.7091C8.20459 33.2428 7.01766 31.4804 6.22541 29.5328C5.43315 27.5853 5.05273 25.4948 5.1081 23.393C5.16346 21.2912 5.65341 19.2236 6.5471 17.3204C7.44079 15.4173 8.71885 13.7198 10.3008 12.3348C11.8828 10.9499 13.7343 9.90746 15.7389 9.27326C17.7436 8.63905 19.8578 8.42678 21.9484 8.6498C24.0391 8.87282 26.061 9.52631 27.8867 10.5691C29.7124 11.6119 31.3024 13.0214 32.5566 14.7089C33.8163 13.0337 35.4081 11.6365 37.2326 10.6047C39.057 9.57301 41.0748 8.92896 43.1596 8.71291C45.2444 8.49685 47.3514 8.71345 49.3487 9.34914C51.3459 9.98482 53.1905 11.0259 54.7669 12.4073C56.3433 13.7886 57.6176 15.4805 58.51 17.3769C59.4025 19.2734 59.8939 21.3337 59.9535 23.4288C60.0131 25.524 59.6396 27.6088 58.8564 29.553C58.0732 31.4971 56.8971 33.2587 55.4018 34.7274" stroke="#E94B57" stroke-width="6" stroke-linecap="round" stroke-linejoin="round"/>
<path d="M32.5583 14.6909L22.5277 24.7214C21.9567 25.2927 21.6359 26.0673 21.6359 26.875C21.6359 27.6827 21.9567 28.4573 22.5277 29.0285L24.1817 30.6825C26.2834 32.7843 29.695 32.7843 31.7968 30.6825L34.8428 27.6365C36.6605 25.8188 39.1258 24.7977 41.6963 24.7977C44.2669 24.7977 46.7322 25.8188 48.5499 27.6365L55.4035 34.4901" stroke="#E94B57" stroke-width="6" stroke-linecap="round" stroke-linejoin="round"/>
<path d="M34.0817 43.6281L40.1737 49.7202" stroke="#E94B57" stroke-width="6" stroke-linecap="round" stroke-linejoin="round"/>
<path d="M41.6968 36.0131L47.7888 42.1051" stroke="#E94B57" stroke-width="6" stroke-linecap="round" stroke-linejoin="round"/>
</g>
</svg>
