<svg width="1920" height="1121" viewBox="0 0 1920 1121" fill="none" xmlns="http://www.w3.org/2000/svg">
<path d="M-161.46 190.477L-233.361 148.953V151.262L-162.455 192.209L-233.361 233.155V235.464L-232.863 235.166L-161.46 193.94V278.103L-233.361 319.607V321.916L-160.445 279.815L-87.5491 321.896L-233.361 406.099V408.408L-86.5538 323.648V407.811L-160.943 450.748C-161.261 450.927 -161.44 451.245 -161.44 451.604V537.498L-233.341 579.002V583.601L-161.44 625.124V709.287L-233.361 667.803V670.112L-162.455 711.039L-233.361 751.986V754.295L-161.46 712.771V796.933L-233.361 838.457V843.056L-161.46 884.579V968.742L-233.361 927.218V929.527L-162.455 970.454L-233.361 1011.4V1013.71L-161.46 972.186V1056.35L-233.361 1097.87V1102.47L-161.46 1143.99V1172.36H-159.469V1143.99L-86.5737 1101.89V1172.34H-84.5831V1100.16C-84.5831 1099.8 -84.7821 1099.46 -85.0807 1099.29L-159.45 1056.35V972.186L-11.6475 1057.52V1172.36H-9.65686V1057.52L138.145 972.186V1056.35L63.7764 1099.29C63.7764 1099.29 63.7565 1099.29 63.7366 1099.29C63.4181 1099.46 63.239 1099.78 63.239 1100.14V1172.34H65.2296V1101.89L138.125 1143.97V1172.34H140.116V1143.97L213.012 1101.89V1172.34H215.002V1101.77L357.529 1172.34H362.048L216.137 1100.08L288.913 1058.08L363.302 1101.02C363.461 1101.12 363.621 1101.16 363.8 1101.16C363.979 1101.16 364.138 1101.12 364.297 1101.02L438.686 1058.08L511.463 1100.08L365.552 1172.34H370.05L512.577 1101.77V1172.34H514.568V1101.89L587.464 1143.97V1172.34H589.454V1143.97L662.35 1101.89V1172.34H664.341V1100.16C664.341 1099.8 664.142 1099.48 663.843 1099.31L514.548 1013.11V927.795L587.444 885.714V970.474C587.444 970.832 587.643 971.151 587.941 971.33L737.237 1057.52V1172.36H739.227V1057.52L887.029 972.206V1056.37L812.66 1099.31C812.66 1099.31 812.641 1099.31 812.621 1099.31C812.322 1099.48 812.123 1099.8 812.123 1100.16V1172.36H814.114V1101.91L887.01 1143.99V1172.36H889V1143.99L960.901 1102.47V1097.87L889 1056.35V970.454C889 970.096 888.801 969.757 888.502 969.598L814.094 926.641V842.478L887.487 884.858C887.646 884.938 887.826 884.997 887.985 884.997C888.144 884.997 888.323 884.958 888.483 884.858C888.781 884.679 888.98 884.36 888.98 884.002V712.771L960.881 754.295V751.986L889.975 711.039L960.881 670.112V667.803L887.487 710.163C887.189 710.342 886.99 710.661 886.99 711.019V796.913L812.621 839.831C812.621 839.831 812.621 839.831 812.601 839.831C812.302 840.01 812.103 840.328 812.103 840.687V926.581L739.207 968.662V798.028L813.596 755.071C813.895 754.892 814.094 754.573 814.094 754.215V667.723C814.094 667.365 813.895 667.047 813.596 666.867C813.278 666.688 812.899 666.688 812.601 666.867L739.207 709.247V625.085L813.596 582.147C813.895 581.968 814.094 581.65 814.094 581.292V495.397L886.99 453.316V624.527C886.99 624.886 887.189 625.224 887.487 625.383C887.646 625.463 887.826 625.523 887.985 625.523C888.144 625.523 888.323 625.483 888.483 625.383L960.881 583.581V578.982L888.98 537.458V453.296L960.881 494.8V492.491L889.975 451.564L959.208 411.593L960.881 410.637V408.328L888.98 449.832V365.67L960.881 324.146V319.547L888.98 278.043V193.881L960.881 235.385V233.076L889.975 192.149L960.881 151.202V146.604L888.98 105.1V-22H886.99V105.16L739.207 190.477V106.314L813.596 63.3769C813.895 63.1977 814.094 62.8593 814.094 62.5209V-22H812.103V60.7493L739.207 18.668V-22H737.217V18.668L664.321 60.7493V-22H662.33V60.7493L519.047 -22H515.046L583.841 17.7125L586.508 19.2453L514.608 60.7493V-22H512.617V60.7493L439.721 18.668V-22H437.731V18.668L364.835 60.7493V-22H362.824V62.4811C362.824 62.6603 362.864 62.8394 362.964 62.9788C363.043 63.138 363.183 63.2574 363.322 63.357L512.597 149.53V233.693L289.909 105.12V-22H287.918V18.668L215.022 60.7493V-22H213.032V60.7493L141.131 19.2453L212.594 -22H208.593L138.643 18.3893C138.324 18.5685 138.145 18.9068 138.145 19.2453C138.145 19.6036 138.344 19.942 138.643 20.1211L212.036 62.4811L139.141 104.562L64.7518 61.6052C64.4532 61.4261 64.0551 61.4261 63.7565 61.6052L-10.6322 104.562L-83.5281 62.4811L62.801 -22H58.78L-9.65686 17.5134V-22H-11.6475V18.668L-84.5432 60.7493V-22H-86.5339V60.7493L-158.434 19.2453L-150.452 14.647L-86.9917 -22H-90.9928L-160.943 18.3893L-233.361 60.172V64.7703L-161.46 106.274V190.477ZM961 1100.18L888.104 1142.26L815.208 1100.18L888.104 1058.1L961 1100.18ZM848.71 821.418L887.089 799.262V882.27L815.188 840.766L848.69 821.418H848.71ZM889.1 107.449L891.229 108.683L961 148.953L889.1 190.457V107.449ZM-159.45 453.356L-86.5538 495.437V579.599L-159.45 537.518V453.356ZM-233.361 581.331L-160.485 539.25L-87.5889 581.331L-160.485 623.413L-233.361 581.331ZM-86.5538 583.063V667.226L-159.45 709.327V625.164L-86.5538 583.083V583.063ZM-87.569 754.275L-159.469 795.779V712.771L-87.569 754.275ZM-123.28 1079.56L-87.569 1100.18L-160.465 1142.26L-233.361 1100.18L-160.465 1058.1L-123.3 1079.56H-123.28ZM-160.445 882.828L-233.361 840.746L-85.0807 755.131C-84.7622 754.951 -84.5831 754.633 -84.5831 754.275C-84.5831 753.916 -84.7821 753.578 -85.0807 753.419L-158.474 711.039L-85.5983 668.957L-11.2095 711.915C-10.9109 712.094 -10.5128 712.094 -10.2142 711.915L64.1745 668.957L137.07 711.059L-160.505 882.848L-160.445 882.828ZM63.239 408.965V579.599L-9.65686 537.518V451.624C-9.65686 451.445 -9.69667 451.265 -9.79619 451.126C-9.87582 450.967 -10.0152 450.847 -10.1545 450.768L-84.5632 407.83V323.668L63.239 409.005V408.965ZM-83.548 321.916L-10.6522 279.855L63.7366 322.792C64.0352 322.971 64.4333 322.971 64.7319 322.792L138.125 280.412V364.575L64.2343 407.233L-83.548 321.916ZM-9.65686 625.144L63.239 583.063V667.226L-9.65686 709.307V625.144ZM-10.6522 623.413L-83.548 581.331L-10.6522 539.25L62.2437 581.331L-10.6522 623.413ZM-11.6673 537.518L-84.5831 579.599V495.437L-11.6873 453.356V537.518H-11.6673ZM-11.6673 625.144V709.307L-84.5632 667.226V583.063L-11.6673 625.144ZM-159.45 884.579L138.145 712.771V796.933L63.7764 839.871C63.7764 839.871 63.7764 839.871 63.7565 839.871C63.438 840.05 63.2589 840.368 63.2589 840.727V926.621L-9.63695 968.702V883.942C-9.63695 883.584 -9.836 883.266 -10.1346 883.086C-10.4332 882.907 -10.8313 882.907 -11.1299 883.086L-86.0163 926.322C-86.0163 926.322 -86.0163 926.322 -86.0362 926.342L-159.41 968.702V884.54L-159.45 884.579ZM138.125 799.242V882.25L66.2249 840.746L138.125 799.242ZM-11.6673 885.714V968.722L-83.5679 927.218L-11.6673 885.714ZM-10.6522 1055.79L-158.454 970.474L-85.5585 928.373L-11.1697 971.33C-10.8711 971.509 -10.473 971.509 -10.1744 971.33L64.2144 928.373L137.11 970.454L-10.6721 1055.77L-10.6522 1055.79ZM139.141 1142.26L66.2448 1100.18L139.141 1058.12L212.036 1100.2L139.141 1142.28V1142.26ZM287.918 1056.37L215.022 1098.45V928.95L283.021 968.205L287.938 971.031V1056.35L287.918 1056.37ZM287.918 968.742L279.319 963.766L214.525 926.362C214.525 926.362 214.385 926.342 214.326 926.322C214.226 926.283 214.107 926.243 214.007 926.243C213.927 926.243 213.848 926.283 213.768 926.302C213.689 926.322 213.589 926.322 213.509 926.362C213.509 926.362 213.49 926.382 213.47 926.402H213.43C213.35 926.462 213.31 926.541 213.251 926.601C213.211 926.641 213.171 926.681 213.131 926.74C213.072 926.84 213.052 926.959 213.032 927.079C213.032 927.119 212.992 927.158 212.992 927.198V1098.41L140.096 1056.33V970.434C140.096 970.255 140.056 970.076 139.957 969.936C139.877 969.777 139.738 969.658 139.598 969.578L65.2097 926.621V842.458L138.603 884.838C138.762 884.918 138.922 884.978 139.101 884.978C139.28 884.978 139.439 884.938 139.598 884.838C139.917 884.659 140.096 884.341 140.096 883.982V711.019C140.096 710.661 139.897 710.342 139.598 710.163L65.2097 667.206V583.043L213.012 668.36V840.727C213.012 841.085 213.211 841.403 213.509 841.582L287.898 884.54V968.702L287.918 968.742ZM364.815 579.599V496.591L436.716 538.095L364.815 579.599ZM437.711 539.827V622.835L365.81 581.331L437.711 539.827ZM437.711 625.144V709.307L364.815 667.226V583.063L437.711 625.144ZM436.716 711.039L363.82 753.12L290.924 711.039L363.82 668.957L436.716 711.039ZM287.918 796.933L216.336 838.258L215.022 839.015V668.36L362.824 583.043V667.206L288.456 710.143C288.456 710.143 288.456 710.143 288.436 710.143C288.117 710.322 287.938 710.641 287.938 710.999V796.893L287.918 796.933ZM290.924 538.095L362.824 496.591V579.599L290.924 538.095ZM289.929 712.771L362.824 754.852V839.015L289.929 796.933V712.771ZM362.824 494.282L215.042 579.58V495.417L289.431 452.48C289.749 452.301 289.929 451.962 289.929 451.624V365.729L362.824 323.648V494.282ZM287.918 449.892L215.022 407.811V323.648L287.918 365.729V449.892ZM286.923 451.604L214.027 493.685L141.131 451.604L214.027 409.522L286.923 451.604ZM213.032 495.437V579.599L140.136 537.518V453.356L213.032 495.437ZM213.509 582.187C213.669 582.267 213.828 582.327 214.007 582.327C214.186 582.327 214.345 582.287 214.505 582.187L288.893 539.23L361.789 581.311L214.007 666.629L66.205 581.311L139.101 539.23L213.49 582.167L213.509 582.187ZM216.038 840.746L288.933 798.665L361.829 840.746L288.933 882.828L216.038 840.746ZM362.824 1098.45L289.929 1056.37V971.051L362.824 928.97V1098.45ZM512.617 1098.45L439.721 1056.37V972.206L512.617 1014.29V1098.45ZM512.617 1011.98L440.717 970.474L512.597 928.95V1011.96L512.617 1011.98ZM661.415 1100.18L588.519 1142.26L515.623 1100.18L588.519 1058.1L661.415 1100.18ZM586.508 1056.95L514.608 1098.45V1015.44L586.508 1056.95ZM587.504 883.405L438.248 969.578C438.248 969.578 438.228 969.578 438.208 969.578C437.91 969.757 437.711 970.076 437.711 970.434V1056.33L364.815 1098.41V927.178C364.815 926.82 364.616 926.482 364.317 926.322C364.019 926.143 363.621 926.143 363.322 926.322L289.929 968.702V884.54L364.317 841.582C364.636 841.403 364.815 841.085 364.815 840.727V754.832L437.711 712.731V883.962C437.711 884.321 437.91 884.639 438.208 884.818C438.368 884.898 438.547 884.958 438.706 884.958C438.865 884.958 439.044 884.918 439.204 884.818L514.09 841.582C514.389 841.403 514.588 841.085 514.588 840.727V754.832L587.484 712.751V883.385L587.504 883.405ZM439.721 709.327V626.319L511.622 667.823L439.721 709.327ZM513.612 668.957L586.508 711.039L513.612 753.12L440.717 711.039L513.612 668.957ZM512.617 754.872V839.034L439.721 796.953V712.791L512.617 754.872ZM511.622 840.746L439.721 882.25V799.242L511.622 840.746ZM587.504 709.307L439.721 623.99V538.095C439.721 538.095 439.721 538.076 439.721 538.056C439.721 537.876 439.662 537.717 439.582 537.578C439.542 537.498 439.482 537.458 439.423 537.419C439.363 537.359 439.323 537.279 439.244 537.239L364.855 494.302V323.668L437.751 365.749V451.644C437.751 452.002 437.95 452.32 438.248 452.5C438.248 452.5 438.248 452.5 438.268 452.5L512.637 495.437V581.331C512.637 581.69 512.836 582.008 513.135 582.187L587.523 625.124V709.287L587.504 709.307ZM664.401 840.746C664.401 840.388 664.201 840.07 663.903 839.89L589.514 796.933V712.771L737.316 798.108V968.742L664.42 926.641V840.766L664.401 840.746ZM661.415 840.746L589.514 882.25V799.242L661.415 840.746ZM589.016 450.748L514.628 407.791V323.628L662.43 408.945V579.58L589.534 537.498V451.604C589.534 451.245 589.335 450.907 589.036 450.748H589.016ZM586.508 451.624L513.612 493.705L440.717 451.624L509.83 411.732L513.612 409.542L586.508 451.624ZM587.504 453.356V537.518L514.588 579.599V495.437L587.484 453.356H587.504ZM512.617 407.811L439.721 449.892V365.729L512.617 323.648V407.811ZM515.603 581.331L588.499 539.25L661.395 581.331L588.499 623.413L515.603 581.331ZM662.41 583.063V667.226L589.514 709.327V625.164L662.41 583.083V583.063ZM589.514 884.579L662.41 842.498V926.661L589.514 968.742V884.579ZM813.198 928.393L886.094 970.474L738.312 1055.79L590.509 970.474L663.405 928.393L737.794 971.35C738.112 971.529 738.491 971.529 738.789 971.35L813.178 928.393H813.198ZM812.203 669.535V753.717L738.312 796.376L590.509 711.039L663.385 668.957L737.774 711.915C738.093 712.094 738.471 712.094 738.769 711.915L812.163 669.535H812.203ZM664.401 667.226V583.063L737.296 625.144V709.307L664.401 667.226ZM738.292 623.413L665.396 581.331L738.272 539.25L811.167 581.331L738.272 623.413H738.292ZM664.401 579.599V408.965L812.203 323.628V407.791L737.814 450.728C737.515 450.907 737.316 451.226 737.316 451.584V537.478L664.401 579.56V579.599ZM812.203 579.599L739.307 537.518V453.356L812.203 495.437V579.599ZM813.198 493.705L740.302 451.624L813.198 409.542L886.094 451.644L813.198 493.725V493.705ZM849.307 428.075L814.193 407.791V323.628L887.089 365.709V449.872L849.307 428.055V428.075ZM961 581.331L889.1 622.835V539.827L961 581.331ZM887.089 107.449V190.457L815.188 148.953L887.089 107.449ZM813.198 150.127L886.094 192.209L813.198 234.29L740.322 192.209L813.218 150.127H813.198ZM887.089 193.921V276.929L815.188 235.425L887.089 193.921ZM800.319 229.154L811.187 235.425L739.287 276.929V193.921L800.299 229.154H800.319ZM738.292 20.3998L811.187 62.4811L738.292 104.562L665.396 62.4811L738.292 20.3998ZM664.401 64.2129L737.296 106.294V190.457L664.401 148.376V64.2129ZM663.405 150.107L736.301 192.189L663.405 234.27L590.509 192.189L663.405 150.107ZM737.296 193.921V278.083L664.401 320.164V236.002L737.296 193.921ZM662.41 236.022V320.184L589.514 278.103V193.94L662.41 236.022ZM662.41 148.376L588.021 191.333C587.723 191.512 587.523 191.85 587.523 192.189V276.929L514.628 234.847V149.53L662.43 64.2129V148.376H662.41ZM365.83 62.4811L438.726 20.3998L513.115 63.357C513.274 63.4366 513.453 63.4963 513.612 63.4963C513.772 63.4963 513.951 63.4565 514.11 63.357L588.499 20.3998L661.395 62.4811L513.612 147.798L365.83 62.4811ZM513.115 236.3L662.888 322.772C662.927 322.772 662.967 322.772 662.987 322.792C663.047 322.812 663.087 322.852 663.146 322.872C663.206 322.872 663.246 322.872 663.286 322.872C663.306 322.872 663.345 322.892 663.365 322.892C663.385 322.892 663.425 322.892 663.445 322.872C663.584 322.872 663.704 322.832 663.823 322.772C663.823 322.772 663.843 322.772 663.863 322.772L813.138 236.599L960.94 321.916L888.064 363.997L813.656 321.04C813.337 320.861 812.959 320.861 812.66 321.04L663.365 407.233L514.07 321.04C513.752 320.861 513.374 320.861 513.075 321.04L442.707 361.668L438.686 363.997L365.79 321.916L439.184 279.536C439.482 279.357 439.682 279.039 439.682 278.68C439.682 278.322 439.482 277.984 439.184 277.824L290.904 192.209L363.8 150.127L513.095 236.32L513.115 236.3ZM361.829 148.953L289.929 190.457V107.449L361.829 148.953ZM289.929 193.921L436.735 278.66L363.84 320.742L289.929 278.083V193.921ZM293.233 282.303L361.829 321.896L288.953 363.997L216.057 321.916L288.953 279.835L293.253 282.323L293.233 282.303ZM287.918 20.9771V103.985L216.038 62.4811L287.918 20.9771ZM215.022 64.2129L287.918 106.294V190.457L215.022 148.376V64.2129ZM215.022 150.705L286.923 192.209L215.022 233.713V150.705ZM139.618 193.065C139.937 192.885 140.116 192.547 140.116 192.209V106.314L213.012 64.2328V235.444C213.012 235.803 213.211 236.121 213.509 236.3C213.808 236.48 214.206 236.48 214.505 236.3L287.898 193.921V278.083L213.509 321.02C213.191 321.2 213.012 321.538 213.012 321.876V407.771L138.623 450.708C138.305 450.887 138.125 451.206 138.125 451.564V537.458L65.2296 579.56V408.925L139.618 365.968C139.937 365.789 140.116 365.451 140.116 365.112V278.64C140.116 278.282 139.917 277.944 139.618 277.785C139.32 277.605 138.922 277.605 138.623 277.785L65.2296 320.164V236.002L139.618 193.065ZM65.2296 127.315V64.2129L138.125 106.294V190.457L65.2296 148.376V127.295V127.315ZM64.2343 150.107L137.13 192.189L64.2343 234.27L-8.66154 192.189L64.2343 150.107ZM-9.65686 106.294L63.239 64.2129V148.376L-9.65686 190.457V106.294ZM-84.5632 64.2129L-11.6673 106.294V192.189C-11.6673 192.547 -11.4683 192.865 -11.1697 193.045L63.1992 235.982V320.145L-84.603 234.807V64.1731L-84.5632 64.2129ZM-48.6129 257.918L-12.6627 278.68L-84.5632 320.184V237.176L-48.6129 257.938V257.918ZM-85.5585 409.542L-12.6627 451.624L-85.5585 493.705L-158.454 451.624L-85.5585 409.542ZM-159.45 278.103V193.94L-86.5538 236.022V320.184L-159.45 278.103ZM-158.454 192.209L-86.5538 150.705V233.713L-158.454 192.189V192.209ZM-86.5538 148.376L-159.45 190.457V106.294L-86.5538 64.2129V148.376ZM-160.445 20.3998L-87.5491 62.4811L-160.445 104.582L-233.361 62.4811L-160.465 20.3998H-160.445Z" fill="url(#paint0_linear_3_689)"/>
<path d="M2083.46 106.286L2155.36 64.7844V60.1864L2013.01 -22H2009.01L2080.47 19.2425L2008.57 60.7438V-22H2006.58V60.7438L1933.68 18.6653V-22H1931.69V17.5108L1863.22 -22H1859.19L2005.55 62.4954L1932.65 104.574L1858.26 61.6196C1857.96 61.4404 1857.56 61.4404 1857.26 61.6196L1782.87 104.574L1709.98 62.4954L1783.37 20.1382C1783.69 19.9591 1783.87 19.6207 1783.87 19.2823C1783.87 18.924 1783.67 18.5856 1783.37 18.4065L1713.42 -22H1709.42L1780.88 19.2425L1708.98 60.7438V-22H1706.99V60.7438L1634.09 18.6653V-22H1632.1V105.131L1409.41 233.696V149.539L1558.69 63.3712C1558.85 63.2717 1558.97 63.1522 1559.05 62.993C1559.13 62.8338 1559.19 62.6745 1559.19 62.4954V-22H1557.19V60.7438L1484.3 18.6653V-22H1482.31V18.6653L1409.41 60.7438V-22H1407.42V60.7438L1335.52 19.2425L1338.19 17.7098L1406.94 -22H1402.94L1259.6 60.7637V-22H1257.6V60.7438L1184.71 18.6653V-22H1182.72V18.6653L1109.82 60.7438V-22H1107.83V62.4954C1107.83 62.8537 1108.03 63.1721 1108.33 63.3513L1182.72 106.286V190.443L1034.93 105.131V-22H1032.94V105.151L961.04 146.652V151.25L1031.95 192.194L961.04 233.118V235.427L1032.94 193.926V278.083L961.04 319.584V324.182L1032.94 365.703V449.86L961.04 408.359V410.668L962.712 411.624L1031.95 451.592L961.04 492.516V494.825L1032.94 453.324V537.481L961.04 579.002V583.6L1033.44 625.4C1033.6 625.479 1033.78 625.539 1033.94 625.539C1034.1 625.539 1034.28 625.499 1034.43 625.4C1034.73 625.221 1034.93 624.902 1034.93 624.544V453.344L1107.83 495.422V581.311C1107.83 581.669 1108.03 581.988 1108.33 582.167L1182.72 625.101V709.258L1109.32 666.881C1109 666.702 1108.63 666.702 1108.33 666.881C1108.03 667.06 1107.83 667.379 1107.83 667.737V754.223C1107.83 754.581 1108.03 754.9 1108.33 755.079L1182.72 798.033V968.656L1109.82 926.578V840.689C1109.82 840.331 1109.62 840.012 1109.32 839.833C1109.32 839.833 1109.32 839.833 1109.3 839.833L1034.93 796.919V711.03C1034.93 710.672 1034.73 710.353 1034.43 710.174L961.04 667.817V670.126L1031.95 711.05L961.04 751.994V754.303L1032.94 712.781V884.002C1032.94 884.36 1033.14 884.678 1033.44 884.857C1033.6 884.937 1033.78 884.997 1033.94 884.997C1034.1 884.997 1034.28 884.957 1034.43 884.857L1107.83 842.48V926.637L1033.42 969.592C1033.12 969.771 1032.92 970.089 1032.92 970.448V1056.34L961.02 1097.86V1102.46L1032.92 1143.98V1172.34H1034.91V1143.98L1107.81 1101.9V1172.34H1109.8V1100.17C1109.8 1099.81 1109.6 1099.49 1109.3 1099.31C1109.3 1099.31 1109.28 1099.31 1109.26 1099.31L1034.89 1056.38V972.219L1182.7 1057.53V1172.36H1184.69V1057.53L1333.99 971.343C1334.28 971.164 1334.48 970.846 1334.48 970.487V885.733L1407.38 927.812V1013.12L1258.08 1099.31C1257.78 1099.49 1257.58 1099.81 1257.58 1100.17V1172.34H1259.58V1101.9L1332.47 1143.98V1172.34H1334.46V1143.98L1407.36 1101.9V1172.34H1409.35V1101.78L1551.88 1172.34H1556.38L1410.47 1100.09L1483.24 1058.09L1557.63 1101.02C1557.79 1101.1 1557.95 1101.16 1558.13 1101.16C1558.31 1101.16 1558.47 1101.12 1558.63 1101.02L1633.02 1058.09L1705.8 1100.09L1559.88 1172.34H1564.4L1706.93 1101.78V1172.34H1708.92V1101.9L1781.82 1143.98V1172.34H1783.81V1143.98L1856.71 1101.9V1172.34H1858.7V1100.15C1858.7 1099.79 1858.5 1099.47 1858.2 1099.29C1858.2 1099.29 1858.18 1099.29 1858.16 1099.29L1783.79 1056.36V972.199L1931.59 1057.53V1172.36H1933.58V1057.53L2081.39 972.199V1056.36L2007.02 1099.29C2006.7 1099.47 2006.52 1099.79 2006.52 1100.15V1172.32H2008.51V1101.88L2081.41 1143.98V1172.34H2083.4V1143.98L2155.3 1102.46V1097.86L2083.4 1056.34V972.179L2155.3 1013.7V1011.39L2084.39 970.467L2155.3 929.543V927.234L2083.4 968.756V884.599L2155.3 843.077V838.479L2083.4 796.958V712.801L2155.3 754.322V752.013L2084.39 711.07L2155.3 670.146V667.837L2083.4 709.358V625.201L2155.3 583.68V579.082L2083.4 537.58V451.692C2083.4 451.333 2083.2 450.995 2082.9 450.836L2008.51 407.901V323.744L2155.32 408.499V406.19L2009.53 322.013L2082.42 279.934L2155.34 322.033V319.724L2083.44 278.202V194.045L2154.84 235.268L2155.34 235.567V233.258L2084.43 192.314L2155.34 151.39V149.081L2083.44 190.582V106.425L2083.46 106.286ZM1033.9 1058.03L1106.79 1100.11L1033.9 1142.19L961 1100.11L1033.9 1058.03ZM1106.79 840.689L1034.89 882.19V799.188L1106.77 840.689H1106.79ZM1032.9 190.463L961 148.961L1030.77 108.694L1032.9 107.46V190.463ZM2081.47 537.481L2008.57 579.559V495.402L2081.47 453.324V537.481ZM2082.46 623.37L2009.57 581.291L2082.46 539.213L2155.34 581.291L2082.44 623.37H2082.46ZM2081.47 709.258L2008.57 667.16V583.003L2081.47 625.081V709.258ZM2081.47 712.722V795.724L2009.57 754.223L2081.47 712.722ZM2082.46 1058.03L2155.36 1100.11L2082.46 1142.19L2009.57 1100.11L2082.44 1058.03H2082.46ZM1784.86 710.99L1857.76 668.892L1932.15 711.846C1932.45 712.025 1932.85 712.025 1933.15 711.846L2007.54 668.892L2080.41 710.97L2007.02 753.347C2006.7 753.526 2006.52 753.845 2006.52 754.203C2006.52 754.561 2006.72 754.88 2007.02 755.059L2155.3 840.669L2082.4 882.747L1784.82 710.97L1784.86 710.99ZM2006.56 407.782L1932.15 450.716C1931.99 450.796 1931.87 450.935 1931.79 451.075C1931.71 451.214 1931.65 451.393 1931.65 451.572V537.461L1858.76 579.539V408.917L2006.56 323.585V407.782ZM1857.76 407.205L1783.87 364.549V280.392L1857.26 322.769C1857.56 322.948 1857.96 322.948 1858.26 322.769L1932.65 279.835L2005.55 321.893L1857.76 407.205ZM1931.67 709.258L1858.78 667.18V583.023L1931.67 625.101V709.258ZM1859.77 581.291L1932.67 539.213L2005.57 581.291L1932.67 623.37L1859.77 581.291ZM1933.66 453.324L2006.56 495.402V579.559L1933.64 537.481V453.324H1933.66ZM2006.56 583.023V667.18L1933.66 709.258V625.101L2006.56 583.023ZM2081.47 968.676L2008.09 926.319C2008.09 926.319 2008.09 926.319 2008.07 926.299L1933.19 883.066C1932.89 882.887 1932.49 882.887 1932.19 883.066C1931.87 883.245 1931.69 883.564 1931.69 883.922V968.676L1858.8 926.598V840.709C1858.8 840.351 1858.6 840.012 1858.3 839.833C1858.3 839.833 1858.3 839.833 1858.28 839.833L1783.91 796.899V712.742L2081.51 884.539V968.696L2081.47 968.676ZM1855.75 840.689L1783.85 882.19V799.188L1855.75 840.689ZM2005.55 927.155L1933.64 968.656V885.654L2005.55 927.155ZM1784.86 970.408L1857.76 928.329L1932.15 971.284C1932.45 971.463 1932.85 971.463 1933.15 971.284L2007.54 928.329L2080.43 970.428L1932.63 1055.74L1784.84 970.428L1784.86 970.408ZM1709.98 1100.11L1782.87 1058.03L1855.77 1100.09L1782.87 1142.17L1709.98 1100.09V1100.11ZM1634.07 970.985L1638.99 968.159L1706.99 928.906V1098.39L1634.09 1056.32V971.005L1634.07 970.985ZM1634.07 884.519L1708.46 841.565C1708.78 841.386 1708.96 841.067 1708.96 840.709V668.354L1856.77 583.043V667.2L1782.38 710.154C1782.06 710.333 1781.88 710.652 1781.88 711.01V883.962C1781.88 884.32 1782.08 884.638 1782.38 884.818C1782.53 884.897 1782.69 884.957 1782.87 884.957C1783.05 884.957 1783.21 884.917 1783.37 884.818L1856.77 842.441V926.598L1782.38 969.552C1782.22 969.631 1782.1 969.771 1782.02 969.91C1781.94 970.049 1781.88 970.229 1781.88 970.408V1056.3L1708.98 1098.37V927.175C1708.98 927.175 1708.96 927.095 1708.94 927.055C1708.94 926.936 1708.9 926.817 1708.84 926.717C1708.82 926.657 1708.76 926.617 1708.72 926.578C1708.66 926.518 1708.62 926.418 1708.54 926.379H1708.5C1708.5 926.379 1708.48 926.359 1708.46 926.339C1708.38 926.299 1708.3 926.299 1708.2 926.279C1708.12 926.259 1708.05 926.219 1707.97 926.219C1707.85 926.219 1707.75 926.259 1707.65 926.299C1707.59 926.319 1707.51 926.299 1707.45 926.339L1642.65 963.74L1634.05 968.716V884.559L1634.07 884.519ZM1485.27 538.058L1557.18 496.557V579.559L1485.27 538.058ZM1556.18 581.291L1484.28 622.792V539.79L1556.18 581.291ZM1557.18 583.023V667.2L1484.28 709.278V625.121L1557.18 583.043V583.023ZM1558.17 668.911L1631.07 710.99L1558.17 753.069L1485.27 710.99L1558.17 668.911ZM1634.07 710.99C1634.07 710.632 1633.87 710.293 1633.58 710.114C1633.58 710.114 1633.58 710.114 1633.56 710.114L1559.19 667.18V583.023L1706.99 668.334V838.977L1705.68 838.221L1634.09 796.899V711.01L1634.07 710.99ZM1559.19 579.559V496.557L1631.09 538.058L1559.19 579.559ZM1632.08 796.879L1559.19 838.957V754.8L1632.08 712.722V796.879ZM1559.17 323.625L1632.06 365.703V451.592C1632.06 451.95 1632.26 452.269 1632.56 452.448L1706.95 495.382V579.539L1559.17 494.248V323.625ZM1634.07 365.703L1706.97 323.625V407.782L1634.07 449.86V365.703ZM1707.97 409.514L1780.86 451.592L1707.97 493.671L1635.07 451.592L1707.97 409.514ZM1781.88 453.324V537.481L1708.98 579.559V495.402L1781.88 453.324ZM1782.87 539.213L1855.77 581.291L1707.97 666.603L1560.18 581.291L1633.08 539.213L1707.47 582.167C1707.63 582.246 1707.79 582.306 1707.97 582.306C1708.14 582.306 1708.3 582.266 1708.46 582.167L1782.85 539.232L1782.87 539.213ZM1633.08 882.767L1560.18 840.689L1633.08 798.61L1705.97 840.689L1633.08 882.767ZM1559.17 928.887L1632.06 970.965V1056.28L1559.17 1098.35V928.887ZM1409.39 1014.22L1482.29 972.139V1056.3L1409.39 1098.37V1014.22ZM1409.39 928.906L1481.27 970.428L1409.37 1011.93V928.926L1409.39 928.906ZM1333.49 1058.03L1406.38 1100.11L1333.49 1142.19L1260.59 1100.11L1333.49 1058.03ZM1407.38 1015.37V1098.37L1335.48 1056.87L1407.38 1015.37ZM1334.48 712.722L1407.38 754.8V840.689C1407.38 841.047 1407.58 841.366 1407.88 841.545L1482.77 884.778C1482.92 884.857 1483.1 884.917 1483.26 884.917C1483.42 884.917 1483.6 884.877 1483.76 884.778C1484.06 884.599 1484.26 884.28 1484.26 883.922V712.702L1557.16 754.8V840.689C1557.16 841.047 1557.35 841.366 1557.65 841.545L1632.04 884.499V968.656L1558.65 926.279C1558.35 926.1 1557.95 926.1 1557.65 926.279C1557.33 926.458 1557.16 926.777 1557.16 927.135V1098.35L1484.26 1056.28V970.388C1484.26 970.03 1484.06 969.691 1483.76 969.532C1483.76 969.532 1483.74 969.532 1483.72 969.532L1334.46 883.365V712.742L1334.48 712.722ZM1410.39 667.757L1482.29 626.256V709.258L1410.39 667.757ZM1481.29 710.99L1408.4 753.069L1335.5 710.99L1408.4 668.911L1481.29 710.99ZM1482.29 712.722V796.879L1409.39 838.957V754.8L1482.29 712.722ZM1482.29 799.188V882.19L1410.39 840.689L1482.29 799.188ZM1334.48 625.101L1408.87 582.167C1409.17 581.988 1409.37 581.669 1409.37 581.311V495.422L1483.74 452.488C1483.74 452.488 1483.74 452.488 1483.76 452.488C1484.06 452.309 1484.26 451.97 1484.26 451.632V365.743L1557.16 323.665V494.288L1482.77 537.222C1482.77 537.222 1482.65 537.341 1482.59 537.401C1482.53 537.461 1482.47 537.501 1482.43 537.56C1482.35 537.7 1482.29 537.859 1482.29 538.038C1482.29 538.038 1482.29 538.058 1482.29 538.078V623.967L1334.5 709.298V625.141L1334.48 625.101ZM1257.58 840.709V926.578L1184.69 968.676V798.053L1332.49 712.722V796.879L1258.1 839.833C1257.8 840.012 1257.6 840.331 1257.6 840.689L1257.58 840.709ZM1332.49 799.188V882.19L1260.59 840.689L1332.49 799.188ZM1332.49 451.592V537.481L1259.6 579.559V408.936L1407.4 323.625V407.782L1333.01 450.736C1332.71 450.915 1332.51 451.234 1332.51 451.592H1332.49ZM1408.38 409.514L1412.16 411.703L1481.27 451.592L1408.38 493.671L1335.48 451.592L1408.38 409.514ZM1407.38 495.402V579.559L1334.46 537.481V453.324L1407.36 495.402H1407.38ZM1409.39 323.625L1482.29 365.703V449.86L1409.39 407.782V323.625ZM1333.49 623.37L1260.59 581.291L1333.49 539.213L1406.38 581.291L1333.49 623.37ZM1332.49 709.258L1259.6 667.16V583.003L1332.49 625.081V709.258ZM1332.49 968.676L1259.6 926.598V842.441L1332.49 884.519V968.676ZM1183.19 971.264C1183.51 971.443 1183.89 971.443 1184.19 971.264L1258.58 928.309L1331.48 970.388L1183.67 1055.7L1035.89 970.388L1108.78 928.309L1183.17 971.264H1183.19ZM1183.19 711.866C1183.51 712.045 1183.89 712.045 1184.19 711.866L1258.58 668.911L1331.46 710.99L1183.65 796.321L1109.76 753.666V669.489L1183.15 711.866H1183.19ZM1184.69 709.258V625.101L1257.58 583.023V667.18L1184.69 709.258ZM1110.8 581.291L1183.69 539.213L1256.57 581.291L1183.67 623.37L1110.78 581.291H1110.8ZM1197.25 544.726L1184.69 537.481V451.592C1184.69 451.234 1184.49 450.895 1184.19 450.736L1109.8 407.802V323.645L1257.6 408.976V579.599L1197.25 544.766V544.726ZM1109.8 495.402L1182.7 453.324V537.481L1109.8 579.559V495.402ZM1035.89 451.592L1108.78 409.494L1181.68 451.572L1108.78 493.651L1035.89 451.572V451.592ZM1034.89 365.703L1107.79 323.625V407.782L1034.89 449.88V365.703ZM1032.9 539.79V622.792L961 581.291L1032.9 539.79ZM1106.79 148.961L1034.89 190.463V107.46L1106.79 148.961ZM1181.68 192.194L1108.8 234.273L1035.91 192.194L1108.8 150.116L1181.7 192.194H1181.68ZM1106.79 235.427L1034.89 276.929V193.926L1106.79 235.427ZM1182.7 193.906V276.909L1110.8 235.407L1182.68 193.906H1182.7ZM1256.59 62.4755L1183.69 104.554L1110.8 62.4755L1183.69 20.397L1256.59 62.4755ZM1257.58 148.364L1184.69 190.443V106.286L1257.58 64.2072V148.364ZM1331.48 192.194L1258.58 234.273L1185.68 192.194L1258.58 150.116L1331.48 192.194ZM1257.58 236.004V320.161L1184.69 278.083V193.926L1257.58 236.004ZM1332.49 193.906V278.063L1259.6 320.142V235.985L1332.49 193.906ZM1259.6 64.2072L1407.4 149.519V234.83L1334.5 276.909V192.174C1334.5 191.816 1334.3 191.498 1334.01 191.318L1259.61 148.364V64.2072H1259.6ZM1408.38 147.787L1260.59 62.4755L1333.49 20.397L1407.88 63.3513C1408.04 63.4309 1408.22 63.4906 1408.38 63.4906C1408.53 63.4906 1408.71 63.4508 1408.87 63.3513L1483.26 20.397L1556.16 62.4755L1408.38 147.787ZM1558.17 150.096L1631.07 192.174L1482.79 277.784C1482.49 277.964 1482.29 278.282 1482.29 278.64C1482.29 278.999 1482.49 279.317 1482.79 279.496L1556.18 321.873L1483.28 363.952L1479.26 361.623L1408.89 320.998C1408.57 320.818 1408.2 320.818 1407.9 320.998L1258.6 407.185L1109.3 320.998C1108.98 320.818 1108.61 320.818 1108.31 320.998L1033.9 363.952L961.02 321.873L1108.82 236.562L1258.1 322.729C1258.1 322.729 1258.12 322.729 1258.14 322.729C1258.26 322.789 1258.38 322.829 1258.52 322.829C1258.54 322.829 1258.58 322.849 1258.6 322.849C1258.62 322.849 1258.66 322.849 1258.68 322.829C1258.74 322.829 1258.78 322.829 1258.82 322.829C1258.88 322.829 1258.92 322.769 1258.98 322.749C1259.02 322.749 1259.06 322.749 1259.08 322.729L1558.17 150.076V150.096ZM1632.08 107.44V190.443L1560.18 148.941L1632.08 107.44ZM1632.08 278.083L1558.17 320.739L1485.27 278.66L1632.08 193.926V278.083ZM1633.08 279.815L1705.97 321.893L1633.08 363.972L1560.2 321.873L1628.8 282.283L1633.1 279.795L1633.08 279.815ZM1705.96 62.4755L1634.07 103.977V20.9742L1705.96 62.4755ZM1706.97 148.364L1634.07 190.443V106.286L1706.97 64.2072V148.364ZM1706.97 233.696L1635.07 192.194L1706.97 150.693V233.696ZM1856.77 320.161L1783.37 277.784C1783.07 277.605 1782.67 277.605 1782.38 277.784C1782.06 277.964 1781.88 278.282 1781.88 278.64V365.106C1781.88 365.465 1782.08 365.783 1782.38 365.962L1856.77 408.917V579.539L1783.87 537.441V451.552C1783.87 451.194 1783.67 450.856 1783.37 450.696L1708.98 407.762V321.873C1708.98 321.515 1708.78 321.197 1708.48 321.017L1634.09 278.083V193.926L1707.49 236.303C1707.79 236.482 1708.18 236.482 1708.48 236.303C1708.8 236.124 1708.98 235.786 1708.98 235.447V64.2072L1781.88 106.286V192.174C1781.88 192.533 1782.08 192.851 1782.38 193.03L1856.77 235.965V320.161ZM1856.77 148.364L1783.87 190.443V106.286L1856.77 64.2072V148.384V148.364ZM1930.66 192.194L1857.76 234.273L1784.86 192.194L1857.76 150.116L1930.66 192.194ZM1931.67 190.463L1858.78 148.384V64.2271L1931.67 106.306V190.463ZM2006.56 148.941V234.83L1858.76 320.161V236.004L1933.13 193.07C1933.44 192.891 1933.62 192.553 1933.62 192.214V106.326L2006.52 64.247V148.981L2006.56 148.941ZM2006.56 320.161L1934.66 278.66L2006.56 237.139V320.161ZM2080.45 451.592L2007.56 493.671L1934.66 451.592L2007.56 409.514L2080.45 451.592ZM2008.55 320.161V236.004L2081.45 193.926V278.083L2008.55 320.161ZM2033.81 219.105L2008.55 233.696V150.693L2080.45 192.194L2033.81 219.125V219.105ZM2008.55 64.2072L2081.45 106.286V190.443L2008.55 148.364V64.2072ZM2155.36 62.4755L2082.46 104.554L2009.57 62.4556L2082.46 20.3771L2155.36 62.4556V62.4755Z" fill="url(#paint1_linear_3_689)"/>
<rect x="-23" width="1668" height="1121" fill="url(#paint2_linear_3_689)"/>
<rect x="1975" y="1121" width="1998" height="1121" transform="rotate(-180 1975 1121)" fill="url(#paint3_linear_3_689)"/>
<defs>
<linearGradient id="paint0_linear_3_689" x1="961" y1="679.78" x2="961" y2="1148.2" gradientUnits="userSpaceOnUse">
<stop stop-color="#969696"/>
<stop offset="1" stop-color="#969696" stop-opacity="0"/>
</linearGradient>
<linearGradient id="paint1_linear_3_689" x1="961" y1="679.78" x2="961" y2="1148.2" gradientUnits="userSpaceOnUse">
<stop stop-color="#969696"/>
<stop offset="1" stop-color="#969696" stop-opacity="0"/>
</linearGradient>
<linearGradient id="paint2_linear_3_689" x1="1645" y1="559.615" x2="-23" y2="559.614" gradientUnits="userSpaceOnUse">
<stop offset="0.231233" stop-color="#1E1E1E" stop-opacity="0"/>
<stop offset="1" stop-color="#1E1E1E"/>
</linearGradient>
<linearGradient id="paint3_linear_3_689" x1="2974" y1="2242" x2="2974" y2="1121" gradientUnits="userSpaceOnUse">
<stop stop-color="#1E1E1E"/>
<stop offset="1" stop-color="#1E1E1E" stop-opacity="0"/>
</linearGradient>
</defs>
</svg>
