<svg width="16" height="17" viewBox="0 0 16 17" fill="none" xmlns="http://www.w3.org/2000/svg">
<path fill-rule="evenodd" clip-rule="evenodd" d="M2.52632 1.71412C2.30298 1.71412 2.08878 1.80284 1.93086 1.96076C1.77803 2.1136 1.69001 2.31912 1.68449 2.53464C1.87816 5.60321 3.1845 8.4962 5.3591 10.6708C7.53371 12.8454 10.4267 14.1517 13.4953 14.3454C13.7108 14.3399 13.9163 14.2519 14.0691 14.0991C14.2271 13.9411 14.3158 13.7269 14.3158 13.5036V10.7053L11.3005 9.49918L10.4063 10.9895C10.1808 11.3653 9.70479 11.5053 9.31174 11.3115C7.31684 10.3276 5.70228 8.71307 4.71843 6.71817C4.52458 6.32511 4.66462 5.84908 5.04042 5.6236L6.53072 4.72942L5.3246 1.71412H2.52632ZM0.739941 0.769848C1.21372 0.296072 1.8563 0.0299072 2.52632 0.0299072H5.89474C6.23908 0.0299072 6.54873 0.23955 6.67661 0.559262L8.36082 4.76979C8.51433 5.15355 8.36663 5.59199 8.01221 5.80464L6.60252 6.65045C7.2963 7.78192 8.24799 8.7336 9.37946 9.42738L10.2253 8.0177C10.4379 7.66328 10.8764 7.51558 11.2601 7.66909L15.4706 9.3533C15.7904 9.48118 16 9.79083 16 10.1352V13.5036C16 14.1736 15.7338 14.8162 15.2601 15.29C14.7863 15.7637 14.1437 16.0299 13.4737 16.0299C13.4566 16.0299 13.4396 16.0294 13.4226 16.0284C9.93247 15.8163 6.64064 14.3342 4.16819 11.8617C1.69574 9.38927 0.213648 6.09744 0.00155067 2.6073C0.000517142 2.5903 0 2.57326 0 2.55622C0 1.8862 0.266164 1.24362 0.739941 0.769848Z" fill="white"/>
</svg>
