<svg width="16" height="19" viewBox="0 0 16 19" fill="none" xmlns="http://www.w3.org/2000/svg">
<path fill-rule="evenodd" clip-rule="evenodd" d="M4.54315 2.8563C5.56639 2.1726 6.76938 1.80768 8 1.80768C9.23063 1.80768 10.4336 2.1726 11.4568 2.8563C12.4801 3.53999 13.2776 4.51175 13.7486 5.64869C14.2195 6.78563 14.3427 8.0367 14.1027 9.24368C13.8626 10.4507 13.27 11.5594 12.3999 12.4296L8.62867 16.2008C8.46199 16.3673 8.23604 16.4608 8.00044 16.4608C7.76485 16.4608 7.5389 16.3673 7.37222 16.2008L3.60002 12.4295C2.72991 11.5593 2.13737 10.4506 1.89732 9.24368C1.65726 8.0367 1.7805 6.78563 2.25145 5.64869C2.7224 4.51175 3.51992 3.53999 4.54315 2.8563ZM8 0.0299072C6.41777 0.0299072 4.87107 0.499088 3.55548 1.37812C2.2399 2.25715 1.21452 3.50656 0.609007 4.96834C0.00349362 6.43013 -0.154957 8.03864 0.153691 9.59047C0.462339 11.1423 1.22431 12.5679 2.34309 13.6867L6.11578 17.4585C6.6158 17.958 7.29367 18.2386 8.00044 18.2386C8.70722 18.2386 9.38541 17.9577 9.88543 17.4582L13.657 13.6866C14.7758 12.5678 15.5377 11.1423 15.8463 9.59047C16.155 8.03864 15.9965 6.43013 15.391 4.96834C14.7855 3.50656 13.7601 2.25715 12.4445 1.37812C11.1289 0.499088 9.58223 0.0299072 8 0.0299072ZM7.99999 4.47384C7.057 4.47384 6.15263 4.84844 5.48583 5.51524C4.81904 6.18203 4.44444 7.0864 4.44444 8.0294C4.44444 8.97239 4.81904 9.87676 5.48583 10.5436C6.15263 11.2103 7.057 11.5849 7.99999 11.5849C8.94298 11.5849 9.84735 11.2103 10.5141 10.5436C11.1809 9.87676 11.5555 8.97239 11.5555 8.0294C11.5555 7.0864 11.1809 6.18203 10.5141 5.51524C9.84735 4.84844 8.94298 4.47384 7.99999 4.47384ZM6.74291 6.77232C7.07631 6.43892 7.52849 6.25162 7.99999 6.25162C8.47149 6.25162 8.92367 6.43892 9.25707 6.77232C9.59047 7.10571 9.77777 7.5579 9.77777 8.0294C9.77777 8.50089 9.59047 8.95308 9.25707 9.28647C8.92367 9.61987 8.47149 9.80717 7.99999 9.80717C7.52849 9.80717 7.07631 9.61987 6.74291 9.28647C6.40951 8.95308 6.22221 8.50089 6.22221 8.0294C6.22221 7.5579 6.40951 7.10571 6.74291 6.77232Z" fill="white"/>
</svg>
