<svg width="16" height="17" viewBox="0 0 16 17" fill="none" xmlns="http://www.w3.org/2000/svg">
<path fill-rule="evenodd" clip-rule="evenodd" d="M7.89765 1.63016C9.45555 1.60449 10.9693 2.14824 12.1547 3.15937C13.3402 4.17049 14.1159 5.57949 14.3363 7.12193C14.5567 8.66437 14.2066 10.2342 13.3517 11.5369C12.4969 12.8395 11.196 13.7854 9.69324 14.1971C8.19049 14.6087 6.58918 14.4578 5.1898 13.7726C5.0373 13.698 4.865 13.6738 4.69784 13.7036L2.12694 14.1617L2.85272 12.4902C2.9638 12.2344 2.93357 11.9392 2.77295 11.7112C1.87564 10.4374 1.47402 8.87994 1.64347 7.33108C1.81291 5.78222 2.54178 4.34843 3.69328 3.2988C4.84478 2.24916 6.33976 1.65583 7.89765 1.63016ZM13.1926 1.9425C11.7108 0.678592 9.81867 -0.00109548 7.8713 0.0309937C5.92393 0.0630828 4.05521 0.804742 2.61584 2.11679C1.17646 3.42883 0.265378 5.22106 0.0535681 7.15714C-0.141622 8.94131 0.269398 10.7346 1.2129 12.2511L0.0661731 14.8921C-0.0511764 15.1623 -0.0104107 15.4752 0.172268 15.7064C0.354947 15.9376 0.649942 16.0495 0.940009 15.9978L4.72864 15.3226C6.41899 16.0813 8.32347 16.2306 10.1158 15.7396C11.9942 15.2251 13.6203 14.0427 14.6889 12.4144C15.7575 10.7861 16.1951 8.82375 15.9196 6.8957C15.6441 4.96765 14.6745 3.20641 13.1926 1.9425ZM5.9977 4.41455C5.67957 4.41455 5.37446 4.54092 5.1495 4.76588C4.92454 4.99084 4.79816 5.29595 4.79816 5.61409V6.41378C4.79816 7.68633 5.30368 8.90676 6.20351 9.80658C7.10334 10.7064 8.32377 11.2119 9.59632 11.2119H10.396C10.7141 11.2119 11.0193 11.0856 11.2442 10.8606C11.4692 10.6356 11.5955 10.3305 11.5955 10.0124C11.5955 9.69426 11.4692 9.38915 11.2442 9.16419C11.0193 8.93923 10.7141 8.81285 10.396 8.81285H9.59632C9.27818 8.81285 8.97307 8.93923 8.74812 9.16419C8.66722 9.24508 8.59908 9.33634 8.54497 9.43484C8.0936 9.27775 7.67881 9.02001 7.33445 8.67565C6.99008 8.33129 6.73235 7.91649 6.57526 7.46512C6.67376 7.41102 6.76501 7.34287 6.8459 7.26198C7.07086 7.03702 7.19724 6.73191 7.19724 6.41378V5.61409C7.19724 5.29595 7.07086 4.99084 6.8459 4.76588C6.62095 4.54092 6.31584 4.41455 5.9977 4.41455Z" fill="white"/>
</svg>
