<svg width="85" height="84" viewBox="0 0 85 84" fill="none" xmlns="http://www.w3.org/2000/svg">
<g filter="url(#filter0_b_68_770)">
<rect x="1.5" y="1" width="82" height="82" rx="41" stroke="#616161" stroke-opacity="0.8" stroke-width="2"/>
</g>
<path fill-rule="evenodd" clip-rule="evenodd" d="M36.095 26.5367C38.1256 25.6956 40.302 25.2627 42.5 25.2627C44.698 25.2627 46.8744 25.6956 48.905 26.5367C50.9357 27.3779 52.7808 28.6107 54.335 30.1649C55.8892 31.7191 57.122 33.5642 57.9631 35.5948C58.8043 37.6255 59.2372 39.8019 59.2372 41.9999C59.2372 44.1978 58.8043 46.3743 57.9631 48.4049C57.122 50.4356 55.8892 52.2807 54.335 53.8349C52.7808 55.389 50.9357 56.6219 48.905 57.463C46.8744 58.3041 44.698 58.7371 42.5 58.7371C40.302 58.7371 38.1256 58.3041 36.095 57.463C34.0643 56.6219 32.2192 55.389 30.665 53.8349C29.1108 52.2807 27.878 50.4356 27.0369 48.4049C26.1957 46.3743 25.7628 44.1978 25.7628 41.9999C25.7628 39.8019 26.1957 37.6255 27.0369 35.5948C27.878 33.5642 29.1108 31.7191 30.665 30.1649C32.2192 28.6107 34.0643 27.3779 36.095 26.5367ZM42.5 28.6101C40.7416 28.6101 39.0005 28.9565 37.376 29.6294C35.7514 30.3023 34.2754 31.2885 33.032 32.5319C31.7887 33.7753 30.8024 35.2513 30.1295 36.8758C29.4566 38.5004 29.1103 40.2415 29.1103 41.9999C29.1103 43.7582 29.4566 45.4994 30.1295 47.1239C30.8024 48.7484 31.7887 50.2245 33.032 51.4679C34.2754 52.7112 35.7514 53.6975 37.376 54.3704C39.0005 55.0433 40.7416 55.3896 42.5 55.3896C44.2584 55.3896 45.9995 55.0433 47.624 54.3704C49.2486 53.6975 50.7246 52.7112 51.968 51.4679C53.2113 50.2245 54.1976 48.7484 54.8705 47.1239C55.5434 45.4994 55.8897 43.7582 55.8897 41.9999C55.8897 40.2415 55.5434 38.5004 54.8705 36.8758C54.1976 35.2513 53.2113 33.7753 51.968 32.5319C50.7246 31.2885 49.2486 30.3023 47.624 29.6294C45.9995 28.9565 44.2584 28.6101 42.5 28.6101Z" fill="#73BA69"/>
<path fill-rule="evenodd" clip-rule="evenodd" d="M48.7047 37.469C49.3583 38.1226 49.3583 39.1823 48.7047 39.836L42.0098 46.5308C41.3562 47.1845 40.2964 47.1845 39.6428 46.5308L36.2954 43.1834C35.6417 42.5298 35.6417 41.47 36.2954 40.8164C36.949 40.1628 38.0087 40.1628 38.6623 40.8164L40.8263 42.9804L46.3377 37.469C46.9913 36.8154 48.051 36.8154 48.7047 37.469Z" fill="#73BA69"/>
<defs>
<filter id="filter0_b_68_770" x="-3.5" y="-4" width="92" height="92" filterUnits="userSpaceOnUse" color-interpolation-filters="sRGB">
<feFlood flood-opacity="0" result="BackgroundImageFix"/>
<feGaussianBlur in="BackgroundImageFix" stdDeviation="2"/>
<feComposite in2="SourceAlpha" operator="in" result="effect1_backgroundBlur_68_770"/>
<feBlend mode="normal" in="SourceGraphic" in2="effect1_backgroundBlur_68_770" result="shape"/>
</filter>
</defs>
</svg>
