<svg width="85" height="84" viewBox="0 0 85 84" fill="none" xmlns="http://www.w3.org/2000/svg">
<g filter="url(#filter0_b_68_735)">
<rect x="1.5" y="1" width="82" height="82" rx="41" stroke="#616161" stroke-opacity="0.8" stroke-width="2"/>
</g>
<path fill-rule="evenodd" clip-rule="evenodd" d="M34.1823 28.7307C36.3888 26.5242 39.3813 25.2847 42.5017 25.2847C45.6221 25.2847 48.6147 26.5242 50.8211 28.7307C53.0275 30.9371 54.2671 33.9297 54.2671 37.0501C54.2671 40.1704 53.0275 43.163 50.8211 45.3694C48.6147 47.5759 45.6221 48.8155 42.5017 48.8155C39.3813 48.8155 36.3888 47.5759 34.1823 45.3694C31.9759 43.163 30.7363 40.1704 30.7363 37.0501C30.7363 33.9297 31.9759 30.9371 34.1823 28.7307ZM42.5017 28.6462C40.2729 28.6462 38.1353 29.5316 36.5593 31.1076C34.9833 32.6837 34.0979 34.8212 34.0979 37.0501C34.0979 39.2789 34.9833 41.4165 36.5593 42.9925C38.1353 44.5685 40.2729 45.4539 42.5017 45.4539C44.7305 45.4539 46.8681 44.5685 48.4441 42.9925C50.0202 41.4165 50.9056 39.2789 50.9056 37.0501C50.9056 34.8212 50.0202 32.6837 48.4441 31.1076C46.8681 29.5316 44.7305 28.6462 42.5017 28.6462Z" fill="#73BA69"/>
<path fill-rule="evenodd" clip-rule="evenodd" d="M50.3948 40.6368C51.1987 40.1727 52.2267 40.4481 52.6908 41.252L58.4054 51.1501C58.7154 51.6869 58.7047 52.3507 58.3776 52.8773C58.0506 53.4038 57.4603 53.7077 56.8417 53.6678L51.9126 53.3499L49.7233 57.7792C49.4486 58.335 48.8903 58.6944 48.2707 58.7144C47.6511 58.7344 47.0708 58.4116 46.7609 57.8747L41.0463 47.975C40.5822 47.1711 40.8577 46.1432 41.6617 45.6791C42.4656 45.215 43.4935 45.4905 43.9576 46.2945L48.1017 53.4736L49.3957 50.8558C49.6964 50.2474 50.3334 49.8796 51.0106 49.9233L53.924 50.1111L49.7796 42.9328C49.3155 42.1289 49.5909 41.101 50.3948 40.6368Z" fill="#73BA69"/>
<path fill-rule="evenodd" clip-rule="evenodd" d="M34.605 40.6368C35.409 41.1008 35.6845 42.1288 35.2204 42.9327L31.0762 50.1119L33.989 49.9233C34.6662 49.8794 35.3034 50.2472 35.6042 50.8556L36.8981 53.4726L41.0425 46.2944C41.5066 45.4905 42.5345 45.215 43.3384 45.6791C44.1423 46.1433 44.4178 47.1712 43.9536 47.9751L38.239 57.8732C37.9291 58.41 37.3489 58.7327 36.7293 58.7127C36.1098 58.6927 35.5515 58.3334 35.2768 57.7777L33.0877 53.3502L28.1588 53.6694C27.5402 53.7095 26.9497 53.4058 26.6225 52.8792C26.2954 52.3527 26.2846 51.6888 26.5945 51.1519L32.3091 41.2522C32.7732 40.4482 33.8011 40.1727 34.605 40.6368Z" fill="#73BA69"/>
<defs>
<filter id="filter0_b_68_735" x="-3.5" y="-4" width="92" height="92" filterUnits="userSpaceOnUse" color-interpolation-filters="sRGB">
<feFlood flood-opacity="0" result="BackgroundImageFix"/>
<feGaussianBlur in="BackgroundImageFix" stdDeviation="2"/>
<feComposite in2="SourceAlpha" operator="in" result="effect1_backgroundBlur_68_735"/>
<feBlend mode="normal" in="SourceGraphic" in2="effect1_backgroundBlur_68_735" result="shape"/>
</filter>
</defs>
</svg>
