<svg width="85" height="84" viewBox="0 0 85 84" fill="none" xmlns="http://www.w3.org/2000/svg">
<g filter="url(#filter0_b_68_777)">
<rect x="1.5" y="1" width="82" height="82" rx="41" stroke="#616161" stroke-opacity="0.8" stroke-width="2"/>
</g>
<mask id="mask0_68_777" style="mask-type:alpha" maskUnits="userSpaceOnUse" x="24" y="26" width="37" height="37">
<rect x="24.3837" y="26.2888" width="36.2327" height="36.2327" fill="#D9D9D9"/>
</mask>
<g mask="url(#mask0_68_777)">
<path fill-rule="evenodd" clip-rule="evenodd" d="M41.298 26.7436C41.9843 26.1372 43.0157 26.1372 43.702 26.7436C47.586 30.1755 52.6553 31.9624 57.8358 31.7256C58.6705 31.6875 59.4234 32.2238 59.659 33.0244C60.5504 36.0527 60.8232 39.2291 60.4611 42.3648C60.099 45.5005 59.1094 48.5315 57.5513 51.2777C55.9931 54.0239 53.898 56.4292 51.3907 58.3508C48.8833 60.2724 46.0147 61.671 42.9554 62.4635C42.6568 62.5408 42.3432 62.5408 42.0446 62.4635C38.9853 61.671 36.1167 60.2724 33.6093 58.3508C31.102 56.4292 29.0069 54.0239 27.4487 51.2777C25.8906 48.5315 24.901 45.5005 24.5389 42.3648C24.1768 39.2291 24.4496 36.0527 25.341 33.0244C25.5766 32.2238 26.3295 31.6875 27.1642 31.7256C32.3447 31.9624 37.414 30.1755 41.298 26.7436ZM28.4817 35.3663C28.0043 37.5236 27.8888 39.7485 28.143 41.9497C28.4494 44.603 29.2867 47.1676 30.6051 49.4913C31.9236 51.815 33.6963 53.8503 35.8179 55.4763C37.8147 57.0065 40.0821 58.1448 42.5 58.8325C44.9179 58.1448 47.1853 57.0065 49.1821 55.4763C51.3037 53.8503 53.0764 51.815 54.3949 49.4913C55.7133 47.1676 56.5506 44.603 56.857 41.9497C57.1112 39.7485 56.9957 37.5237 56.5183 35.3663C51.4373 35.2792 46.5191 33.5541 42.5 30.4506C38.4809 33.5541 33.5627 35.2792 28.4817 35.3663Z" fill="#73BA69"/>
<path fill-rule="evenodd" clip-rule="evenodd" d="M39.7152 39.9298C40.4537 39.265 41.4555 38.8916 42.5 38.8916C43.5445 38.8916 44.5462 39.265 45.2848 39.9298C46.0234 40.5945 46.4383 41.496 46.4383 42.4361C46.4383 43.3762 46.0234 44.2777 45.2848 44.9424C44.5462 45.6072 43.5445 45.9806 42.5 45.9806C41.4555 45.9806 40.4537 45.6072 39.7152 44.9424C38.9766 44.2777 38.5616 43.3762 38.5616 42.4361C38.5616 41.496 38.9766 40.5945 39.7152 39.9298Z" fill="#73BA69"/>
<path fill-rule="evenodd" clip-rule="evenodd" d="M42.5 42.8298C43.37 42.8298 44.0753 43.6135 44.0753 44.5802V48.9561C44.0753 49.9228 43.37 50.7065 42.5 50.7065C41.63 50.7065 40.9247 49.9228 40.9247 48.9561V44.5802C40.9247 43.6135 41.63 42.8298 42.5 42.8298Z" fill="#73BA69"/>
</g>
<defs>
<filter id="filter0_b_68_777" x="-3.5" y="-4" width="92" height="92" filterUnits="userSpaceOnUse" color-interpolation-filters="sRGB">
<feFlood flood-opacity="0" result="BackgroundImageFix"/>
<feGaussianBlur in="BackgroundImageFix" stdDeviation="2"/>
<feComposite in2="SourceAlpha" operator="in" result="effect1_backgroundBlur_68_777"/>
<feBlend mode="normal" in="SourceGraphic" in2="effect1_backgroundBlur_68_777" result="shape"/>
</filter>
</defs>
</svg>
