<svg width="85" height="84" viewBox="0 0 85 84" fill="none" xmlns="http://www.w3.org/2000/svg">
<g filter="url(#filter0_b_68_763)">
<rect x="1.5" y="1" width="82" height="82" rx="41" stroke="#616161" stroke-opacity="0.8" stroke-width="2"/>
</g>
<path fill-rule="evenodd" clip-rule="evenodd" d="M42.5 28.5523C40.2587 28.5523 38.3731 30.078 37.8515 32.1401C37.6371 32.9877 36.7696 33.5026 35.9139 33.2903C35.0582 33.078 34.5383 32.2187 34.7527 31.3712C35.6219 27.9348 38.7587 25.3882 42.5 25.3882C46.9108 25.3882 50.4864 28.9298 50.4864 33.2985L50.4864 36.4627C53.1329 36.4627 55.2783 38.5876 55.2783 41.2089V53.8655C55.2783 56.4867 53.1329 58.6117 50.4864 58.6117H34.5136C31.8671 58.6117 29.7217 56.4867 29.7217 53.8655V41.2089C29.7217 38.5876 31.8671 36.4627 34.5136 36.4627H47.2918V33.2985C47.2918 30.6773 45.1465 28.5523 42.5 28.5523ZM34.5136 39.6268C33.6314 39.6268 32.9163 40.3352 32.9163 41.2089V53.8655C32.9163 54.7392 33.6314 55.4476 34.5136 55.4476H50.4864C51.3686 55.4476 52.0837 54.7392 52.0837 53.8655V41.2089C52.0837 40.3351 51.3686 39.6268 50.4864 39.6268H34.5136ZM42.5 44.373C43.3822 44.373 44.0973 45.0814 44.0973 45.9551V49.1193C44.0973 49.993 43.3822 50.7013 42.5 50.7013C41.6178 50.7013 40.9027 49.993 40.9027 49.1193V45.9551C40.9027 45.0814 41.6178 44.373 42.5 44.373Z" fill="#73BA69"/>
<defs>
<filter id="filter0_b_68_763" x="-3.5" y="-4" width="92" height="92" filterUnits="userSpaceOnUse" color-interpolation-filters="sRGB">
<feFlood flood-opacity="0" result="BackgroundImageFix"/>
<feGaussianBlur in="BackgroundImageFix" stdDeviation="2"/>
<feComposite in2="SourceAlpha" operator="in" result="effect1_backgroundBlur_68_763"/>
<feBlend mode="normal" in="SourceGraphic" in2="effect1_backgroundBlur_68_763" result="shape"/>
</filter>
</defs>
</svg>
