<svg width="85" height="84" viewBox="0 0 85 84" fill="none" xmlns="http://www.w3.org/2000/svg">
<g filter="url(#filter0_b_68_742)">
<rect x="1.5" y="1" width="82" height="82" rx="41" stroke="#616161" stroke-opacity="0.8" stroke-width="2"/>
</g>
<path fill-rule="evenodd" clip-rule="evenodd" d="M43.0452 22C44.1943 22 45.1258 22.8954 45.1258 24V26.0993C45.9352 26.24 46.7262 26.4439 47.4779 26.7065C49.4059 27.38 51.2559 28.5057 52.4178 30.1406C53.066 31.0526 52.8224 32.2971 51.8735 32.9202C50.9247 33.5433 49.6301 33.309 48.9819 32.397C48.4627 31.6666 47.4608 30.9565 46.0566 30.4659C45.7555 30.3608 45.4441 30.2687 45.1258 30.1904V39.1679C47.0761 39.7428 49.2144 40.4745 50.8719 41.6689C51.8717 42.3894 52.7561 43.3157 53.3301 44.5248C53.9064 45.7388 54.1094 47.1112 53.9448 48.6308C53.41 53.5654 49.3104 56.0353 45.1258 56.6535V60C45.1258 61.1046 44.1943 62 43.0452 62C41.8961 62 40.9646 61.1046 40.9646 60V56.6948C37.1829 56.2407 33.3646 54.4658 31.3047 51.2198C30.7063 50.2768 31.0164 49.046 31.9974 48.4708C32.9784 47.8956 34.2588 48.1937 34.8572 49.1367C36.0184 50.9666 38.3544 52.2336 40.9646 52.6577V42.1519C39.396 41.6903 37.7654 41.1442 36.4134 40.3919C35.3881 39.8214 34.4026 39.0731 33.6749 38.0462C32.9289 36.9936 32.5285 35.7524 32.5285 34.3349C32.5285 31.7146 33.5608 29.631 35.282 28.1863C36.8838 26.8419 38.9387 26.1665 40.9646 25.9505V24C40.9646 22.8954 41.8961 22 43.0452 22ZM40.9646 29.9865C39.7427 30.1793 38.7292 30.6032 38.019 31.1993C37.2485 31.846 36.6897 32.8097 36.6897 34.3349C36.6897 34.9901 36.862 35.4387 37.114 35.7942C37.3842 36.1756 37.822 36.5539 38.4981 36.9301C39.2 37.3206 40.027 37.6434 40.9646 37.9498V29.9865ZM45.1258 43.373V52.5964C47.8064 52.0479 49.5592 50.493 49.8059 48.2164C49.9057 47.2951 49.7676 46.6557 49.5443 46.1853C49.3187 45.71 48.9451 45.2796 48.3758 44.8694C47.5514 44.2753 46.4533 43.8112 45.1258 43.373Z" fill="#73BA69"/>
<defs>
<filter id="filter0_b_68_742" x="-3.5" y="-4" width="92" height="92" filterUnits="userSpaceOnUse" color-interpolation-filters="sRGB">
<feFlood flood-opacity="0" result="BackgroundImageFix"/>
<feGaussianBlur in="BackgroundImageFix" stdDeviation="2"/>
<feComposite in2="SourceAlpha" operator="in" result="effect1_backgroundBlur_68_742"/>
<feBlend mode="normal" in="SourceGraphic" in2="effect1_backgroundBlur_68_742" result="shape"/>
</filter>
</defs>
</svg>
