<svg width="242" height="81" viewBox="0 0 242 81" fill="none" xmlns="http://www.w3.org/2000/svg">
<path d="M149.78 29.1561C152.578 32.1124 154.34 36.0541 154.34 40.4995C154.34 44.9448 152.578 48.9303 149.78 51.8428C147.116 54.7553 143.151 56.6386 139.011 56.6386C134.672 56.6386 130.707 54.7553 127.954 51.8428C125.157 48.9303 123.483 44.9448 123.483 40.4995C123.483 36.0541 125.157 32.1124 127.954 29.1561C130.707 26.1998 134.672 24.3604 139.011 24.3604C143.151 24.3604 147.116 26.1998 149.78 29.1561ZM149.186 40.4995C149.186 37.4556 147.975 34.6307 146.124 32.6598C144.23 30.6452 141.698 29.4846 138.989 29.4846C136.103 29.4846 133.571 30.6452 131.676 32.6598C129.782 34.6307 128.615 37.4556 128.615 40.4995C128.615 43.5433 129.782 46.3682 131.676 48.2953C133.571 50.3099 136.103 51.5144 138.989 51.5144C141.698 51.5144 144.23 50.3099 146.124 48.2953C147.975 46.3682 149.186 43.5433 149.186 40.4995Z" fill="white"/>
<path d="M138.989 56.9671C134.76 56.9671 130.641 55.1715 127.712 52.0619C124.783 48.9961 123.153 44.9011 123.153 40.4996C123.153 36.1418 124.761 32.0468 127.712 28.9372C130.597 25.8276 134.716 24.032 138.989 24.032C143.129 24.032 147.248 25.8714 150.001 28.9372C152.996 32.1125 154.648 36.2075 154.648 40.4996C154.648 44.8354 152.996 48.9523 150.001 52.0619C147.204 55.1277 143.085 56.9671 138.989 56.9671ZM138.989 24.667C134.892 24.667 130.95 26.3751 128.175 29.3533C125.356 32.3534 123.792 36.2951 123.792 40.4777C123.792 44.7041 125.356 48.6677 128.175 51.602C130.994 54.5802 134.936 56.3102 138.989 56.3102C142.909 56.3102 146.851 54.5583 149.538 51.6239C152.423 48.6239 154.009 44.6603 154.009 40.4996C154.009 36.3827 152.423 32.4191 149.538 29.3752C146.895 26.4189 142.953 24.667 138.989 24.667ZM138.989 51.8429C136.103 51.8429 133.482 50.6823 131.456 48.5144C129.452 46.4778 128.307 43.5434 128.307 40.4996C128.307 37.4557 129.452 34.5213 131.456 32.441C133.482 30.2949 136.081 29.1562 138.989 29.1562C141.742 29.1562 144.362 30.3168 146.345 32.441C148.349 34.587 149.494 37.5214 149.494 40.4996C149.494 43.4996 148.349 46.434 146.345 48.5144C144.34 50.6604 141.72 51.8429 138.989 51.8429ZM138.989 29.7913C136.258 29.7913 133.813 30.8643 131.919 32.8789C130.025 34.8498 128.945 37.6309 128.945 40.4996C128.945 43.3901 130.025 46.1494 131.919 48.0764C133.835 50.1349 136.302 51.2079 138.989 51.2079C141.543 51.2079 143.988 50.0911 145.882 48.0764C147.776 46.1056 148.855 43.3464 148.855 40.4996C148.855 37.6747 147.776 34.8936 145.882 32.8789C144.01 30.8862 141.565 29.7913 138.989 29.7913Z" fill="white"/>
<path d="M189.909 27.7111V54.1643C189.909 55.5001 188.742 56.6388 187.376 56.6388C185.988 56.6388 184.887 55.522 184.887 54.1643V35.2879L178.39 44.2663C177.884 44.9451 177.179 45.2955 176.364 45.2955H176.32H176.276C175.461 45.2955 174.69 44.9451 174.205 44.2663L167.752 35.2879V54.1643C167.752 55.5001 166.629 56.6388 165.22 56.6388C163.876 56.6388 162.731 55.522 162.731 54.1643V27.7111C162.731 26.3753 163.854 25.2366 165.22 25.2366C165.264 25.2366 165.264 25.2366 165.352 25.2366C166.078 25.2366 166.893 25.5869 167.334 26.2658L176.32 38.6384L185.306 26.2658C185.812 25.5869 186.517 25.2366 187.332 25.2366C187.332 25.2366 187.332 25.2366 187.376 25.2366C188.742 25.3023 189.909 26.3753 189.909 27.7111Z" fill="white"/>
<path d="M187.398 56.9673C185.856 56.9673 184.601 55.7191 184.601 54.1862V36.2952L178.676 44.4633C178.126 45.2078 177.311 45.6239 176.386 45.6239H176.298C175.351 45.6239 174.514 45.2078 173.963 44.4633L168.083 36.2952V54.1862C168.083 55.7191 166.805 56.9673 165.242 56.9673C163.722 56.9673 162.444 55.6972 162.444 54.1862V27.711C162.444 26.2 163.722 24.9299 165.242 24.9299H165.374C166.255 24.9299 167.136 25.3898 167.62 26.1124L176.32 38.1128L185.041 26.0905C185.592 25.346 186.407 24.9299 187.332 24.9299C188.94 24.9737 190.217 26.2219 190.217 27.711V54.1643C190.239 55.6753 188.94 56.9673 187.398 56.9673ZM185.218 34.3243V54.1862C185.218 55.3687 186.187 56.3322 187.376 56.3322C188.565 56.3322 189.578 55.3468 189.578 54.1862V27.711C189.578 26.5723 188.587 25.6088 187.354 25.565C186.605 25.565 185.966 25.8935 185.548 26.4628L176.32 39.1858L167.114 26.4628C166.739 25.9154 166.078 25.565 165.396 25.565H165.264C164.096 25.565 163.105 26.5504 163.105 27.711V54.1643C163.105 55.3249 164.096 56.3103 165.264 56.3103C166.475 56.3103 167.466 55.3468 167.466 54.1643V34.3024L174.492 44.0691C174.91 44.6385 175.571 44.967 176.298 44.967H176.386C177.091 44.967 177.729 44.6385 178.148 44.0691L185.218 34.3243Z" fill="white"/>
<path d="M202.507 27.7111C202.507 26.3315 203.586 25.2366 204.995 25.2366C206.339 25.2366 207.528 26.3096 207.528 27.7111V54.1643C207.528 55.5439 206.361 56.6388 204.995 56.6388C203.608 56.6388 202.507 55.5658 202.507 54.1643V27.7111Z" fill="white"/>
<path d="M204.973 56.9673C203.41 56.9673 202.176 55.741 202.176 54.1862V27.711C202.176 26.1562 203.41 24.9299 204.973 24.9299C206.537 24.9299 207.815 26.1781 207.815 27.711V54.1643C207.837 55.7191 206.559 56.9673 204.973 56.9673ZM204.973 25.565C203.762 25.565 202.815 26.5066 202.815 27.711V54.1643C202.815 55.3687 203.762 56.3103 204.973 56.3103C206.185 56.3103 207.176 55.3468 207.176 54.1643V27.711C207.198 26.5285 206.207 25.565 204.973 25.565Z" fill="white"/>
<path d="M217.285 54.1862V27.7111C217.285 26.3315 218.364 25.2366 219.774 25.2366H225.104C233.803 25.2366 240.851 32.2879 240.851 40.8939C240.851 49.5876 233.825 56.6388 225.104 56.6388H219.774C218.386 56.6388 217.285 55.522 217.285 54.1862ZM222.307 51.6679H225.104C231.05 51.6241 235.83 46.8722 235.83 40.9158C235.83 35.047 231.05 30.2513 225.104 30.2513H222.307V51.6679Z" fill="white"/>
<path d="M225.104 56.9673H219.774C218.232 56.9673 216.977 55.7191 216.977 54.1862V27.711C216.977 26.1562 218.21 24.9299 219.774 24.9299H225.104C233.957 24.9299 241.159 32.0907 241.159 40.8939C241.159 49.7627 233.957 56.9673 225.104 56.9673ZM219.774 25.565C218.562 25.565 217.615 26.5066 217.615 27.711V54.1643C217.615 55.3468 218.584 56.3103 219.774 56.3103H225.104C233.605 56.3103 240.521 49.3904 240.521 40.8939C240.521 32.4411 233.605 25.565 225.104 25.565H219.774ZM222.307 51.9744H221.998V29.9228H225.104C231.204 29.9228 236.16 34.8499 236.16 40.9158C236.16 47.0911 231.315 51.9525 225.104 51.9963H222.307V51.9744ZM222.615 51.3394H225.082C230.918 51.2956 235.499 46.6969 235.499 40.8939C235.499 35.1784 230.83 30.5359 225.082 30.5359H222.615V51.3394Z" fill="white"/>
<path d="M3.1866 41.3754C7.56944 39.1856 11.9523 36.9739 16.3351 34.784C18.2953 33.7986 16.5774 30.8642 14.5952 31.8496C10.2124 34.0395 5.82952 36.2512 1.44668 38.4411C-0.513486 39.4265 1.22643 42.3609 3.1866 41.3754Z" fill="url(#paint0_linear_67_718)"/>
<path d="M36.5094 33.076C24.7484 39.317 12.9654 45.558 1.20438 51.7772C-0.733758 52.8064 0.98414 55.7408 2.9443 54.7116C14.7053 48.4705 26.4883 42.2295 38.2493 36.0103C40.1654 34.9811 38.4475 32.0467 36.5094 33.076Z" fill="url(#paint1_linear_67_718)"/>
<path d="M29.0871 24.229C26.3782 25.6961 23.6692 27.1414 20.9381 28.6086C19 29.6598 20.7179 32.5941 22.6781 31.543C25.3871 30.0758 28.0961 28.6305 30.8271 27.1633C32.7652 26.1341 31.0253 23.1778 29.0871 24.229Z" fill="url(#paint2_linear_67_718)"/>
<path d="M18.2732 22.1706C29.7259 16.1047 41.1785 10.017 52.6091 3.95112C55.4503 5.46211 58.2694 6.9731 61.1105 8.48408C63.0487 9.51331 64.7886 6.57893 62.8504 5.5497C59.723 3.88543 56.6176 2.22115 53.4901 0.556874C53.1818 0.381687 52.8734 0.337891 52.6091 0.337891C52.3448 0.337891 52.0585 0.403586 51.7722 0.556874C40.0332 6.75412 28.2943 12.9952 16.5553 19.2143C14.5951 20.2435 16.3351 23.1998 18.2732 22.1706Z" fill="url(#paint3_linear_67_718)"/>
<path d="M5.367 28.6744C7.76766 27.4043 10.1683 26.1342 12.569 24.8641C14.5071 23.8349 12.7892 20.9005 10.829 21.9297C8.42838 23.1998 6.02773 24.4699 3.62708 25.74C1.68894 26.7693 3.42886 29.7036 5.367 28.6744Z" fill="url(#paint4_linear_67_718)"/>
<path d="M67.1452 11.5719C77.9812 17.2654 88.8172 22.9809 99.6311 28.6745C101.569 29.7037 103.309 26.7693 101.371 25.7401C90.5351 20.0465 79.6991 14.3311 68.8851 8.63748C66.925 7.60825 65.1851 10.5426 67.1452 11.5719Z" fill="url(#paint5_linear_67_718)"/>
<path d="M53.5562 12.4697C52.9395 12.1631 52.3669 12.2288 51.9044 12.4916C51.6842 12.5135 51.4859 12.5792 51.2657 12.6887C46.2662 15.2946 40.8922 18.2071 35.8927 20.7911C33.9326 21.8203 35.6725 24.7547 37.6326 23.7254C42.5 21.1852 47.7638 18.3384 52.6312 15.7982C57.9391 18.5355 62.7183 20.9882 68.0042 23.7254C69.9643 24.7328 71.7043 21.7984 69.7441 20.7911C64.1719 17.9224 59.1284 15.3384 53.5562 12.4697Z" fill="url(#paint6_linear_67_718)"/>
<path d="M84.9188 42.317C73.1138 35.9884 65.2952 31.6306 53.4681 25.302C53.1598 25.1268 52.8514 25.083 52.5651 25.083C52.3008 25.083 52.0365 25.1487 51.7502 25.302C48.865 26.8349 46.0019 28.3459 43.1167 29.8787C41.1785 30.908 42.8964 33.8424 44.8566 32.8131C47.4334 31.4335 50.0323 30.0758 52.6092 28.6962C64.1279 34.8716 71.6602 39.0761 83.2009 45.2514C85.1391 46.3025 86.879 43.3682 84.9188 42.317Z" fill="url(#paint7_linear_67_718)"/>
<path d="M104.036 52.1277C101.657 50.8357 99.2567 49.5437 96.878 48.2517C94.9399 47.2005 93.2 50.1349 95.1381 51.186C97.5168 52.4781 99.9174 53.77 102.296 55.0621C104.234 56.1132 105.974 53.1788 104.036 52.1277Z" fill="url(#paint8_linear_67_718)"/>
<path d="M104.146 38.4411C100.094 36.3608 96.0191 34.3023 91.9666 32.222C90.0065 31.2146 88.2665 34.1709 90.2267 35.1564C94.2792 37.2367 98.3537 39.2951 102.406 41.3755C104.388 42.3828 106.106 39.4484 104.146 38.4411Z" fill="url(#paint9_linear_67_718)"/>
<path d="M84.0819 28.4554C81.3949 26.9444 78.73 25.4115 76.043 23.9005C74.1269 22.8056 72.5412 25.8276 74.4573 26.9225C77.1442 28.4335 79.8092 29.9664 82.4962 31.4774C84.4123 32.5504 85.998 29.5503 84.0819 28.4554Z" fill="url(#paint10_linear_67_718)"/>
<path d="M3.53896 28.6743C14.5291 33.9738 25.5192 39.2732 36.5314 44.5945C38.5136 45.558 40.2535 42.6017 38.2713 41.6601C27.2812 36.3607 16.291 31.0613 5.27888 25.74C3.29669 24.7764 1.55677 27.7108 3.53896 28.6743Z" fill="url(#paint11_linear_67_718)"/>
<path d="M43.2709 47.9887C46.2001 49.3683 49.1073 50.726 52.0366 52.1056C52.3009 52.237 52.5652 52.2808 52.8294 52.2808C53.1378 52.3027 53.4461 52.2589 53.7765 52.1056C56.6617 50.7041 59.5469 49.3027 62.4321 47.9012C64.4142 46.9376 62.6743 44.0032 60.6921 44.9668C58.0933 46.2369 55.4724 47.4851 52.8735 48.7552C50.2526 47.5289 47.6097 46.2807 44.9888 45.0544C43.0286 44.1127 41.2887 47.0471 43.2709 47.9887Z" fill="url(#paint12_linear_67_718)"/>
<path d="M15.3 44.5288C11.2035 42.5141 7.12895 40.4995 3.03243 38.4848C1.07226 37.5213 -0.667661 40.4557 1.2925 41.4192C5.38903 43.4339 9.46353 45.4485 13.5601 47.4632C15.5422 48.4486 17.2822 45.4923 15.3 44.5288Z" fill="url(#paint13_linear_67_718)"/>
<path d="M21.687 47.5727C19.7269 46.6092 17.9869 49.5436 19.9471 50.5071C22.7001 51.8648 25.4752 53.2225 28.2282 54.6021C30.1884 55.5656 31.9283 52.6313 29.9682 51.6677C27.2151 50.2881 24.4621 48.9304 21.687 47.5727Z" fill="url(#paint14_linear_67_718)"/>
<path d="M9.94806 55.4342C7.50336 54.2516 5.05866 53.0691 2.61396 51.8647C0.631775 50.9012 -1.10815 53.8356 0.874042 54.7991C3.31874 55.9816 5.76344 57.1641 8.20814 58.3685C10.1903 59.3321 11.9303 56.3977 9.94806 55.4342Z" fill="url(#paint15_linear_67_718)"/>
<path d="M69.1715 44.5508C79.9634 39.2732 90.7553 33.9738 101.547 28.6963C103.529 27.7328 101.789 24.7984 99.8073 25.7619C89.0154 31.0395 78.2235 36.3389 67.4315 41.6164C65.4493 42.558 67.1893 45.5143 69.1715 44.5508Z" fill="url(#paint16_linear_67_718)"/>
<path d="M68.4226 55.0181C63.2469 57.5802 58.0712 60.1423 52.8955 62.7044C47.6977 60.1861 42.5 57.6459 37.3023 55.1276C35.3201 54.1641 33.5801 57.0984 35.5623 58.062C41.0464 60.7336 46.5304 63.4052 52.0145 66.0549C52.3008 66.1863 52.5651 66.252 52.8294 66.2301C53.1157 66.252 53.4241 66.2082 53.7544 66.0549C59.2165 63.3395 64.6785 60.646 70.1405 57.9306C72.1447 56.989 70.4048 54.0546 68.4226 55.0181Z" fill="url(#paint17_linear_67_718)"/>
<path d="M102.362 38.4192C98.3757 40.3901 94.3893 42.3828 90.4029 44.3537C88.4207 45.3391 90.1606 48.2735 92.1428 47.2881C96.1292 45.3172 100.116 43.3245 104.102 41.3536C106.084 40.3682 104.344 37.4338 102.362 38.4192Z" fill="url(#paint18_linear_67_718)"/>
<path d="M84.0158 47.4195C81.2628 48.7991 78.4877 50.1568 75.7347 51.5364C73.7525 52.5218 75.4924 55.4562 77.4746 54.4708C80.2277 53.0912 83.0027 51.7334 85.7558 50.3538C87.7159 49.3684 85.998 46.434 84.0158 47.4195Z" fill="url(#paint19_linear_67_718)"/>
<path d="M87.6279 59.4198C76.0431 65.2009 64.4803 70.9821 52.8955 76.7633C41.3107 71.0478 29.7039 65.3104 18.1191 59.595C16.1589 58.6314 14.419 61.5658 16.3792 62.5293C28.2723 68.3981 40.1434 74.2669 52.0366 80.1356C52.3229 80.267 52.6092 80.3327 52.8735 80.3327C53.1598 80.3546 53.4681 80.3108 53.7765 80.1356C65.6476 74.2231 77.4967 68.2886 89.3678 62.376C91.3279 61.3906 89.6101 58.4343 87.6279 59.4198Z" fill="url(#paint20_linear_67_718)"/>
<path d="M102.362 52.1274C99.9174 53.3318 97.4948 54.5143 95.0501 55.7187C93.0679 56.6823 94.8078 59.6167 96.79 58.6531C99.2347 57.4487 101.657 56.2662 104.102 55.0618C106.084 54.0983 104.344 51.1639 102.362 52.1274Z" fill="url(#paint21_linear_67_718)"/>
<defs>
<linearGradient id="paint0_linear_67_718" x1="97.5093" y1="36.3448" x2="5.42254" y2="36.632" gradientUnits="userSpaceOnUse">
<stop offset="0.00119895" stop-color="#E73587"/>
<stop offset="0.5001" stop-color="#7F2483"/>
<stop offset="0.5983" stop-color="#73348B"/>
<stop offset="0.791" stop-color="#545EA0"/>
<stop offset="1" stop-color="#2D93BB"/>
</linearGradient>
<linearGradient id="paint1_linear_67_718" x1="97.6937" y1="43.656" x2="5.6069" y2="43.9432" gradientUnits="userSpaceOnUse">
<stop offset="0.00119895" stop-color="#E73587"/>
<stop offset="0.5001" stop-color="#7F2483"/>
<stop offset="0.5983" stop-color="#73348B"/>
<stop offset="0.791" stop-color="#545EA0"/>
<stop offset="1" stop-color="#2D93BB"/>
</linearGradient>
<linearGradient id="paint2_linear_67_718" x1="97.6426" y1="27.661" x2="5.55582" y2="27.9482" gradientUnits="userSpaceOnUse">
<stop offset="0.00119895" stop-color="#E73587"/>
<stop offset="0.5001" stop-color="#7F2483"/>
<stop offset="0.5983" stop-color="#73348B"/>
<stop offset="0.791" stop-color="#545EA0"/>
<stop offset="1" stop-color="#2D93BB"/>
</linearGradient>
<linearGradient id="paint3_linear_67_718" x1="97.5912" y1="11.1585" x2="5.50435" y2="11.4456" gradientUnits="userSpaceOnUse">
<stop offset="0.00119895" stop-color="#E73587"/>
<stop offset="0.5001" stop-color="#7F2483"/>
<stop offset="0.5983" stop-color="#73348B"/>
<stop offset="0.791" stop-color="#545EA0"/>
<stop offset="1" stop-color="#2D93BB"/>
</linearGradient>
<linearGradient id="paint4_linear_67_718" x1="97.568" y1="25.0246" x2="5.48115" y2="25.3118" gradientUnits="userSpaceOnUse">
<stop offset="0.00119895" stop-color="#E73587"/>
<stop offset="0.5001" stop-color="#7F2483"/>
<stop offset="0.5983" stop-color="#73348B"/>
<stop offset="0.791" stop-color="#545EA0"/>
<stop offset="1" stop-color="#2D93BB"/>
</linearGradient>
<linearGradient id="paint5_linear_67_718" x1="97.6144" y1="18.6112" x2="5.52763" y2="18.8984" gradientUnits="userSpaceOnUse">
<stop offset="0.00119895" stop-color="#E73587"/>
<stop offset="0.5001" stop-color="#7F2483"/>
<stop offset="0.5983" stop-color="#73348B"/>
<stop offset="0.791" stop-color="#545EA0"/>
<stop offset="1" stop-color="#2D93BB"/>
</linearGradient>
<linearGradient id="paint6_linear_67_718" x1="97.007" y1="17.9928" x2="5.23503" y2="18.279" gradientUnits="userSpaceOnUse">
<stop offset="0.00119895" stop-color="#E73587"/>
<stop offset="0.5001" stop-color="#7F2483"/>
<stop offset="0.5983" stop-color="#73348B"/>
<stop offset="0.791" stop-color="#545EA0"/>
<stop offset="1" stop-color="#2D93BB"/>
</linearGradient>
<linearGradient id="paint7_linear_67_718" x1="93.012" y1="35.209" x2="8.6634" y2="35.4721" gradientUnits="userSpaceOnUse">
<stop offset="0.00119895" stop-color="#E73587"/>
<stop offset="0.5001" stop-color="#7F2483"/>
<stop offset="0.5983" stop-color="#73348B"/>
<stop offset="0.791" stop-color="#545EA0"/>
<stop offset="1" stop-color="#2D93BB"/>
</linearGradient>
<linearGradient id="paint8_linear_67_718" x1="97.8909" y1="51.6657" x2="5.80418" y2="51.9529" gradientUnits="userSpaceOnUse">
<stop offset="0.00119895" stop-color="#E73587"/>
<stop offset="0.5001" stop-color="#7F2483"/>
<stop offset="0.5983" stop-color="#73348B"/>
<stop offset="0.791" stop-color="#545EA0"/>
<stop offset="1" stop-color="#2D93BB"/>
</linearGradient>
<linearGradient id="paint9_linear_67_718" x1="97.7219" y1="36.8144" x2="5.63502" y2="37.1016" gradientUnits="userSpaceOnUse">
<stop offset="0.00119895" stop-color="#E73587"/>
<stop offset="0.5001" stop-color="#7F2483"/>
<stop offset="0.5983" stop-color="#73348B"/>
<stop offset="0.791" stop-color="#545EA0"/>
<stop offset="1" stop-color="#2D93BB"/>
</linearGradient>
<linearGradient id="paint10_linear_67_718" x1="86.7655" y1="39.5553" x2="38.1468" y2="-38.2071" gradientUnits="userSpaceOnUse">
<stop offset="0.00119895" stop-color="#E73587"/>
<stop offset="0.5001" stop-color="#7F2483"/>
<stop offset="0.5983" stop-color="#73348B"/>
<stop offset="0.791" stop-color="#545EA0"/>
<stop offset="1" stop-color="#2D93BB"/>
</linearGradient>
<linearGradient id="paint11_linear_67_718" x1="5.34" y1="35.5544" x2="105.136" y2="32.9698" gradientUnits="userSpaceOnUse">
<stop stop-color="#2993BE"/>
<stop offset="0.0776092" stop-color="#2F9ABC"/>
<stop offset="0.1896" stop-color="#40ADB7"/>
<stop offset="0.2086" stop-color="#43B1B6"/>
<stop offset="0.2405" stop-color="#4FB1AE"/>
<stop offset="0.2985" stop-color="#70B199"/>
<stop offset="0.3762" stop-color="#A4B277"/>
<stop offset="0.4696" stop-color="#EDB248"/>
<stop offset="0.4836" stop-color="#F8B241"/>
<stop offset="0.5305" stop-color="#F7AB43"/>
<stop offset="0.6009" stop-color="#F49647"/>
<stop offset="0.6858" stop-color="#EE744E"/>
<stop offset="0.7585" stop-color="#E95255"/>
<stop offset="0.8236" stop-color="#E94E5A"/>
<stop offset="0.9043" stop-color="#E8446A"/>
<stop offset="0.993" stop-color="#E73383"/>
<stop offset="1" stop-color="#E73185"/>
</linearGradient>
<linearGradient id="paint12_linear_67_718" x1="5.70547" y1="49.6648" x2="105.501" y2="47.0801" gradientUnits="userSpaceOnUse">
<stop stop-color="#2993BE"/>
<stop offset="0.0776092" stop-color="#2F9ABC"/>
<stop offset="0.1896" stop-color="#40ADB7"/>
<stop offset="0.2086" stop-color="#43B1B6"/>
<stop offset="0.2405" stop-color="#4FB1AE"/>
<stop offset="0.2985" stop-color="#70B199"/>
<stop offset="0.3762" stop-color="#A4B277"/>
<stop offset="0.4696" stop-color="#EDB248"/>
<stop offset="0.4836" stop-color="#F8B241"/>
<stop offset="0.5305" stop-color="#F7AB43"/>
<stop offset="0.6009" stop-color="#F49647"/>
<stop offset="0.6858" stop-color="#EE744E"/>
<stop offset="0.7585" stop-color="#E95255"/>
<stop offset="0.8236" stop-color="#E94E5A"/>
<stop offset="0.9043" stop-color="#E8446A"/>
<stop offset="0.993" stop-color="#E73383"/>
<stop offset="1" stop-color="#E73185"/>
</linearGradient>
<linearGradient id="paint13_linear_67_718" x1="5.53397" y1="43.0432" x2="105.33" y2="40.4586" gradientUnits="userSpaceOnUse">
<stop stop-color="#2993BE"/>
<stop offset="0.0776092" stop-color="#2F9ABC"/>
<stop offset="0.1896" stop-color="#40ADB7"/>
<stop offset="0.2086" stop-color="#43B1B6"/>
<stop offset="0.2405" stop-color="#4FB1AE"/>
<stop offset="0.2985" stop-color="#70B199"/>
<stop offset="0.3762" stop-color="#A4B277"/>
<stop offset="0.4696" stop-color="#EDB248"/>
<stop offset="0.4836" stop-color="#F8B241"/>
<stop offset="0.5305" stop-color="#F7AB43"/>
<stop offset="0.6009" stop-color="#F49647"/>
<stop offset="0.6858" stop-color="#EE744E"/>
<stop offset="0.7585" stop-color="#E95255"/>
<stop offset="0.8236" stop-color="#E94E5A"/>
<stop offset="0.9043" stop-color="#E8446A"/>
<stop offset="0.993" stop-color="#E73383"/>
<stop offset="1" stop-color="#E73185"/>
</linearGradient>
<linearGradient id="paint14_linear_67_718" x1="5.75494" y1="51.5751" x2="105.551" y2="48.9905" gradientUnits="userSpaceOnUse">
<stop stop-color="#2993BE"/>
<stop offset="0.0776092" stop-color="#2F9ABC"/>
<stop offset="0.1896" stop-color="#40ADB7"/>
<stop offset="0.2086" stop-color="#43B1B6"/>
<stop offset="0.2405" stop-color="#4FB1AE"/>
<stop offset="0.2985" stop-color="#70B199"/>
<stop offset="0.3762" stop-color="#A4B277"/>
<stop offset="0.4696" stop-color="#EDB248"/>
<stop offset="0.4836" stop-color="#F8B241"/>
<stop offset="0.5305" stop-color="#F7AB43"/>
<stop offset="0.6009" stop-color="#F49647"/>
<stop offset="0.6858" stop-color="#EE744E"/>
<stop offset="0.7585" stop-color="#E95255"/>
<stop offset="0.8236" stop-color="#E94E5A"/>
<stop offset="0.9043" stop-color="#E8446A"/>
<stop offset="0.993" stop-color="#E73383"/>
<stop offset="1" stop-color="#E73185"/>
</linearGradient>
<linearGradient id="paint15_linear_67_718" x1="5.84661" y1="55.1144" x2="105.642" y2="52.5298" gradientUnits="userSpaceOnUse">
<stop stop-color="#2993BE"/>
<stop offset="0.0776092" stop-color="#2F9ABC"/>
<stop offset="0.1896" stop-color="#40ADB7"/>
<stop offset="0.2086" stop-color="#43B1B6"/>
<stop offset="0.2405" stop-color="#4FB1AE"/>
<stop offset="0.2985" stop-color="#70B199"/>
<stop offset="0.3762" stop-color="#A4B277"/>
<stop offset="0.4696" stop-color="#EDB248"/>
<stop offset="0.4836" stop-color="#F8B241"/>
<stop offset="0.5305" stop-color="#F7AB43"/>
<stop offset="0.6009" stop-color="#F49647"/>
<stop offset="0.6858" stop-color="#EE744E"/>
<stop offset="0.7585" stop-color="#E95255"/>
<stop offset="0.8236" stop-color="#E94E5A"/>
<stop offset="0.9043" stop-color="#E8446A"/>
<stop offset="0.993" stop-color="#E73383"/>
<stop offset="1" stop-color="#E73185"/>
</linearGradient>
<linearGradient id="paint16_linear_67_718" x1="5.37152" y1="37.1705" x2="105.167" y2="34.5858" gradientUnits="userSpaceOnUse">
<stop stop-color="#2993BE"/>
<stop offset="0.0776092" stop-color="#2F9ABC"/>
<stop offset="0.1896" stop-color="#40ADB7"/>
<stop offset="0.2086" stop-color="#43B1B6"/>
<stop offset="0.2405" stop-color="#4FB1AE"/>
<stop offset="0.2985" stop-color="#70B199"/>
<stop offset="0.3762" stop-color="#A4B277"/>
<stop offset="0.4696" stop-color="#EDB248"/>
<stop offset="0.4836" stop-color="#F8B241"/>
<stop offset="0.5305" stop-color="#F7AB43"/>
<stop offset="0.6009" stop-color="#F49647"/>
<stop offset="0.6858" stop-color="#EE744E"/>
<stop offset="0.7585" stop-color="#E95255"/>
<stop offset="0.8236" stop-color="#E94E5A"/>
<stop offset="0.9043" stop-color="#E8446A"/>
<stop offset="0.993" stop-color="#E73383"/>
<stop offset="1" stop-color="#E73185"/>
</linearGradient>
<linearGradient id="paint17_linear_67_718" x1="6.0145" y1="61.5981" x2="105.81" y2="59.0134" gradientUnits="userSpaceOnUse">
<stop stop-color="#2993BE"/>
<stop offset="0.0776092" stop-color="#2F9ABC"/>
<stop offset="0.1896" stop-color="#40ADB7"/>
<stop offset="0.2086" stop-color="#43B1B6"/>
<stop offset="0.2405" stop-color="#4FB1AE"/>
<stop offset="0.2985" stop-color="#70B199"/>
<stop offset="0.3762" stop-color="#A4B277"/>
<stop offset="0.4696" stop-color="#EDB248"/>
<stop offset="0.4836" stop-color="#F8B241"/>
<stop offset="0.5305" stop-color="#F7AB43"/>
<stop offset="0.6009" stop-color="#F49647"/>
<stop offset="0.6858" stop-color="#EE744E"/>
<stop offset="0.7585" stop-color="#E95255"/>
<stop offset="0.8236" stop-color="#E94E5A"/>
<stop offset="0.9043" stop-color="#E8446A"/>
<stop offset="0.993" stop-color="#E73383"/>
<stop offset="1" stop-color="#E73185"/>
</linearGradient>
<linearGradient id="paint18_linear_67_718" x1="5.58975" y1="45.1973" x2="105.385" y2="42.6127" gradientUnits="userSpaceOnUse">
<stop stop-color="#2993BE"/>
<stop offset="0.0776092" stop-color="#2F9ABC"/>
<stop offset="0.1896" stop-color="#40ADB7"/>
<stop offset="0.2086" stop-color="#43B1B6"/>
<stop offset="0.2405" stop-color="#4FB1AE"/>
<stop offset="0.2985" stop-color="#70B199"/>
<stop offset="0.3762" stop-color="#A4B277"/>
<stop offset="0.4696" stop-color="#EDB248"/>
<stop offset="0.4836" stop-color="#F8B241"/>
<stop offset="0.5305" stop-color="#F7AB43"/>
<stop offset="0.6009" stop-color="#F49647"/>
<stop offset="0.6858" stop-color="#EE744E"/>
<stop offset="0.7585" stop-color="#E95255"/>
<stop offset="0.8236" stop-color="#E94E5A"/>
<stop offset="0.9043" stop-color="#E8446A"/>
<stop offset="0.993" stop-color="#E73383"/>
<stop offset="1" stop-color="#E73185"/>
</linearGradient>
<linearGradient id="paint19_linear_67_718" x1="5.7881" y1="52.8556" x2="105.584" y2="50.271" gradientUnits="userSpaceOnUse">
<stop stop-color="#2993BE"/>
<stop offset="0.0776092" stop-color="#2F9ABC"/>
<stop offset="0.1896" stop-color="#40ADB7"/>
<stop offset="0.2086" stop-color="#43B1B6"/>
<stop offset="0.2405" stop-color="#4FB1AE"/>
<stop offset="0.2985" stop-color="#70B199"/>
<stop offset="0.3762" stop-color="#A4B277"/>
<stop offset="0.4696" stop-color="#EDB248"/>
<stop offset="0.4836" stop-color="#F8B241"/>
<stop offset="0.5305" stop-color="#F7AB43"/>
<stop offset="0.6009" stop-color="#F49647"/>
<stop offset="0.6858" stop-color="#EE744E"/>
<stop offset="0.7585" stop-color="#E95255"/>
<stop offset="0.8236" stop-color="#E94E5A"/>
<stop offset="0.9043" stop-color="#E8446A"/>
<stop offset="0.993" stop-color="#E73383"/>
<stop offset="1" stop-color="#E73185"/>
</linearGradient>
<linearGradient id="paint20_linear_67_718" x1="6.24774" y1="70.6026" x2="106.043" y2="68.018" gradientUnits="userSpaceOnUse">
<stop stop-color="#2993BE"/>
<stop offset="0.0776092" stop-color="#2F9ABC"/>
<stop offset="0.1896" stop-color="#40ADB7"/>
<stop offset="0.2086" stop-color="#43B1B6"/>
<stop offset="0.2405" stop-color="#4FB1AE"/>
<stop offset="0.2985" stop-color="#70B199"/>
<stop offset="0.3762" stop-color="#A4B277"/>
<stop offset="0.4696" stop-color="#EDB248"/>
<stop offset="0.4836" stop-color="#F8B241"/>
<stop offset="0.5305" stop-color="#F7AB43"/>
<stop offset="0.6009" stop-color="#F49647"/>
<stop offset="0.6858" stop-color="#EE744E"/>
<stop offset="0.7585" stop-color="#E95255"/>
<stop offset="0.8236" stop-color="#E94E5A"/>
<stop offset="0.9043" stop-color="#E8446A"/>
<stop offset="0.993" stop-color="#E73383"/>
<stop offset="1" stop-color="#E73185"/>
</linearGradient>
<linearGradient id="paint21_linear_67_718" x1="5.91601" y1="57.7955" x2="105.712" y2="55.2109" gradientUnits="userSpaceOnUse">
<stop stop-color="#2993BE"/>
<stop offset="0.0776092" stop-color="#2F9ABC"/>
<stop offset="0.1896" stop-color="#40ADB7"/>
<stop offset="0.2086" stop-color="#43B1B6"/>
<stop offset="0.2405" stop-color="#4FB1AE"/>
<stop offset="0.2985" stop-color="#70B199"/>
<stop offset="0.3762" stop-color="#A4B277"/>
<stop offset="0.4696" stop-color="#EDB248"/>
<stop offset="0.4836" stop-color="#F8B241"/>
<stop offset="0.5305" stop-color="#F7AB43"/>
<stop offset="0.6009" stop-color="#F49647"/>
<stop offset="0.6858" stop-color="#EE744E"/>
<stop offset="0.7585" stop-color="#E95255"/>
<stop offset="0.8236" stop-color="#E94E5A"/>
<stop offset="0.9043" stop-color="#E8446A"/>
<stop offset="0.993" stop-color="#E73383"/>
<stop offset="1" stop-color="#E73185"/>
</linearGradient>
</defs>
</svg>
