<svg width="46" height="46" viewBox="0 0 46 46" fill="none" xmlns="http://www.w3.org/2000/svg">
<mask id="mask0_14_2519" style="mask-type:alpha" maskUnits="userSpaceOnUse" x="0" y="0" width="46" height="46">
<rect width="46" height="46" fill="#D9D9D9"/>
</mask>
<g mask="url(#mask0_14_2519)">
<path fill-rule="evenodd" clip-rule="evenodd" d="M0 34.8235C0 38.2347 2.8084 41 6.27273 41H35.5455C39.0098 41 41.8182 38.2347 41.8182 34.8235V24.5294C41.8182 23.3924 40.882 22.4706 39.7273 22.4706C38.5725 22.4706 37.6364 23.3924 37.6364 24.5294V26.5882H4.18182V14.2353C4.18182 13.0982 5.11795 12.1765 6.27273 12.1765H20.9091C22.0639 12.1765 23 11.2547 23 10.1176C23 8.98059 22.0639 8.05882 20.9091 8.05882H6.27273C2.8084 8.05882 0 10.8241 0 14.2353V34.8235ZM4.18182 30.7059H37.6364V34.8235C37.6364 35.9606 36.7002 36.8824 35.5455 36.8824H6.27273C5.11795 36.8824 4.18182 35.9606 4.18182 34.8235V30.7059ZM31.976 19.8087C32.7926 20.6128 34.1165 20.6128 34.933 19.8087L45.3876 9.51463C46.2041 8.71061 46.2041 7.40703 45.3876 6.60301C44.571 5.79899 43.2471 5.79899 42.4306 6.60301L33.4545 15.4413L30.7512 12.7795C29.9347 11.9755 28.6108 11.9755 27.7942 12.7795C26.9777 13.5835 26.9777 14.8871 27.7942 15.6911L31.976 19.8087Z" fill="url(#paint0_linear_14_2519)"/>
</g>
<defs>
<linearGradient id="paint0_linear_14_2519" x1="23" y1="6" x2="23" y2="41" gradientUnits="userSpaceOnUse">
<stop stop-color="#E94B57"/>
<stop offset="1" stop-color="#E94B57"/>
</linearGradient>
</defs>
</svg>
