<svg width="444" height="341" viewBox="0 0 444 341" fill="none" xmlns="http://www.w3.org/2000/svg">
<path d="M13.4918 174.544C31.9791 165.188 50.5413 155.907 69.0286 146.551C77.3366 142.36 70.0016 129.86 61.6935 134.052C43.2062 143.408 24.6441 152.689 6.15679 162.045C-2.15126 166.236 5.18377 178.736 13.4918 174.544Z" fill="url(#paint0_linear_14_2535)"/>
<path d="M154.28 139.216C104.506 165.712 54.7327 192.283 4.9592 218.779C-3.27401 223.195 4.06107 235.694 12.2943 231.278C62.0678 204.782 111.841 178.211 161.615 151.715C169.848 147.299 162.513 134.8 154.28 139.216Z" fill="url(#paint1_linear_14_2535)"/>
<path d="M122.994 101.568C111.542 107.78 100.015 113.993 88.5637 120.13C80.3305 124.546 87.6656 137.046 95.8988 132.63C107.35 126.417 118.877 120.205 130.329 114.067C138.487 109.651 131.152 97.152 122.994 101.568Z" fill="url(#paint2_linear_14_2535)"/>
<path d="M77.2618 92.8107C125.688 66.9884 174.039 41.166 222.466 15.3437C234.441 21.7806 246.417 28.2175 258.392 34.6543C266.626 39.0703 273.961 26.5708 265.727 22.1548C252.554 15.0443 239.381 8.00868 226.133 0.898178C224.861 0.224551 223.588 0 222.391 0C221.268 0 220.071 0.224551 218.873 0.898178C169.249 27.3941 119.625 53.8901 70.0016 80.3112C61.6935 84.6524 69.0286 97.1519 77.2618 92.8107Z" fill="url(#paint3_linear_14_2535)"/>
<path d="M22.6981 120.504C32.8773 115.115 42.9817 109.726 53.1609 104.262C61.3941 99.8463 54.0591 87.3468 45.8259 91.7628C35.6467 97.1518 25.5423 102.541 15.363 108.005C7.12981 112.346 14.4648 124.92 22.6981 120.504Z" fill="url(#paint4_linear_14_2535)"/>
<path d="M283.841 47.7526C329.647 72.0031 375.454 96.2536 421.26 120.504C429.493 124.845 436.829 112.346 428.595 108.005C382.789 83.7542 336.982 59.5036 291.176 35.2531C282.942 30.8371 275.607 43.3366 283.841 47.7526Z" fill="url(#paint5_linear_14_2535)"/>
<path d="M226.433 51.5699C223.888 50.2227 221.418 50.5221 219.472 51.7196C218.574 51.7945 217.675 52.0939 216.702 52.5429C195.595 63.6204 172.842 75.9702 151.735 87.0476C143.502 91.3887 150.762 103.888 159.07 99.5471C179.653 88.7691 201.883 76.6438 222.466 65.8658C244.845 77.4671 265.054 87.9457 287.508 99.5471C295.741 103.813 303.076 91.3139 294.843 87.0476C271.266 74.7726 249.935 63.77 226.433 51.5699Z" fill="url(#paint6_linear_14_2535)"/>
<path d="M359.062 178.511C309.139 151.566 276.056 133.079 226.058 106.133C224.711 105.385 223.439 105.16 222.166 105.235C221.044 105.235 219.921 105.46 218.723 106.133C206.523 112.645 194.398 119.082 182.198 125.594C173.965 130.01 181.3 142.509 189.533 138.093C200.461 132.255 211.388 126.417 222.316 120.579C271.042 146.85 302.927 164.739 351.652 190.936C359.96 195.426 367.295 182.927 359.062 178.511Z" fill="url(#paint7_linear_14_2535)"/>
<path d="M439.822 220.201C429.718 214.737 419.614 209.198 409.509 203.734C401.351 199.319 394.016 211.818 402.174 216.234C412.279 221.698 422.383 227.237 432.487 232.7C440.721 237.191 448.056 224.692 439.822 220.201Z" fill="url(#paint8_linear_14_2535)"/>
<path d="M440.346 162.044C423.206 153.212 405.991 144.455 388.851 135.623C380.543 131.357 373.208 143.857 381.516 148.123C398.656 156.955 415.871 165.712 433.011 174.544C441.319 178.81 448.654 166.311 440.346 162.044Z" fill="url(#paint9_linear_14_2535)"/>
<path d="M355.469 119.606C344.167 113.169 332.791 106.732 321.489 100.221C313.405 95.5802 306.669 108.454 314.752 113.02C326.054 119.457 337.431 125.893 348.733 132.405C356.892 137.046 363.628 124.172 355.469 119.606Z" fill="url(#paint10_linear_14_2535)"/>
<path d="M14.9888 120.504C61.469 143.033 107.949 165.637 154.429 188.166C162.812 192.208 170.147 179.709 161.764 175.667C115.284 153.138 68.804 130.534 22.3238 108.005C13.9409 103.888 6.60586 116.388 14.9888 120.504Z" fill="url(#paint11_linear_14_2535)"/>
<path d="M182.946 202.612C195.296 208.45 207.646 214.288 219.996 220.051C221.118 220.575 222.241 220.799 223.289 220.799C224.561 220.949 225.909 220.725 227.256 220.051C239.456 214.063 251.656 208.15 263.931 202.162C272.314 198.046 264.979 185.546 256.596 189.663C245.593 195.052 234.591 200.441 223.588 205.755C212.436 200.516 201.359 195.277 190.206 190.037C181.898 186.145 174.488 198.645 182.946 202.612Z" fill="url(#paint12_linear_14_2535)"/>
<path d="M64.6874 187.867C47.3977 179.26 30.1079 170.727 12.8182 162.119C4.51009 158.003 -2.82494 170.502 5.48312 174.619C22.7729 183.226 40.0626 191.759 57.3523 200.367C65.7352 204.558 73.0703 192.058 64.6874 187.867Z" fill="url(#paint13_linear_14_2535)"/>
<path d="M91.7073 200.815C83.3993 196.699 76.0642 209.198 84.3723 213.315C96.0485 219.078 107.725 224.916 119.401 230.679C127.709 234.796 135.044 222.296 126.736 218.18C115.06 212.417 103.384 206.653 91.7073 200.815Z" fill="url(#paint14_linear_14_2535)"/>
<path d="M42.0086 234.272C31.6797 229.258 21.3508 224.168 11.0218 219.153C2.71378 215.037 -4.6961 227.536 3.6868 231.653C14.0157 236.667 24.3446 241.757 34.6736 246.772C43.0565 250.888 50.3915 238.389 42.0086 234.272Z" fill="url(#paint15_linear_14_2535)"/>
<path d="M292.448 187.942C338.105 165.488 383.687 143.033 429.344 120.504C437.727 116.388 430.392 103.888 422.009 108.005C376.352 130.459 330.77 152.913 285.113 175.442C276.73 179.559 284.065 192.058 292.448 187.942Z" fill="url(#paint16_linear_14_2535)"/>
<path d="M289.304 232.551C267.449 243.478 245.519 254.331 223.663 265.259C201.658 254.481 179.728 243.778 157.723 233C149.415 228.883 142.005 241.383 150.388 245.499C173.59 256.876 196.793 268.178 219.996 279.555C221.193 280.154 222.316 280.378 223.439 280.303C224.636 280.378 225.983 280.228 227.331 279.555C250.459 268.028 273.511 256.502 296.639 245.05C304.947 240.859 297.687 228.359 289.304 232.551Z" fill="url(#paint17_linear_14_2535)"/>
<path d="M432.862 161.895C416.021 170.353 399.105 178.736 382.265 187.193C373.957 191.385 381.217 203.884 389.6 199.693C406.44 191.235 423.356 182.852 440.197 174.394C448.505 170.203 441.17 157.703 432.862 161.895Z" fill="url(#paint18_linear_14_2535)"/>
<path d="M355.245 200.142C343.569 205.98 331.893 211.818 320.216 217.656C311.908 221.848 319.168 234.347 327.551 230.156C339.228 224.318 350.904 218.48 362.58 212.641C370.888 208.525 363.553 196.025 355.245 200.142Z" fill="url(#paint19_linear_14_2535)"/>
<path d="M370.514 251.263C321.564 275.813 272.613 300.437 223.663 324.987C174.638 300.662 125.613 276.336 76.5881 251.936C68.2801 247.82 60.945 260.319 69.2531 264.436C119.476 289.36 169.773 314.359 219.996 339.283C221.193 339.882 222.391 340.106 223.513 340.106C224.711 340.181 225.983 339.957 227.331 339.283C277.478 314.134 327.626 288.911 377.849 263.762C386.157 259.571 378.822 247.071 370.514 251.263Z" fill="url(#paint20_linear_14_2535)"/>
<path d="M432.862 220.276C422.533 225.365 412.204 230.455 401.95 235.545C393.567 239.661 400.902 252.161 409.285 248.044C419.614 242.954 429.943 237.865 440.197 232.775C448.505 228.659 441.17 216.159 432.862 220.276Z" fill="url(#paint21_linear_14_2535)"/>
<defs>
<linearGradient id="paint0_linear_14_2535" x1="412.273" y1="153.104" x2="22.9029" y2="154.312" gradientUnits="userSpaceOnUse">
<stop offset="0.00119895" stop-color="#E73587"/>
<stop offset="0.5001" stop-color="#7F2483"/>
<stop offset="0.5983" stop-color="#73348B"/>
<stop offset="0.791" stop-color="#545EA0"/>
<stop offset="1" stop-color="#2D93BB"/>
</linearGradient>
<linearGradient id="paint1_linear_14_2535" x1="413.053" y1="184.196" x2="23.6824" y2="185.403" gradientUnits="userSpaceOnUse">
<stop offset="0.00119895" stop-color="#E73587"/>
<stop offset="0.5001" stop-color="#7F2483"/>
<stop offset="0.5983" stop-color="#73348B"/>
<stop offset="0.791" stop-color="#545EA0"/>
<stop offset="1" stop-color="#2D93BB"/>
</linearGradient>
<linearGradient id="paint2_linear_14_2535" x1="412.837" y1="116.176" x2="23.4666" y2="117.383" gradientUnits="userSpaceOnUse">
<stop offset="0.00119895" stop-color="#E73587"/>
<stop offset="0.5001" stop-color="#7F2483"/>
<stop offset="0.5983" stop-color="#73348B"/>
<stop offset="0.791" stop-color="#545EA0"/>
<stop offset="1" stop-color="#2D93BB"/>
</linearGradient>
<linearGradient id="paint3_linear_14_2535" x1="412.62" y1="45.9965" x2="23.249" y2="47.2038" gradientUnits="userSpaceOnUse">
<stop offset="0.00119895" stop-color="#E73587"/>
<stop offset="0.5001" stop-color="#7F2483"/>
<stop offset="0.5983" stop-color="#73348B"/>
<stop offset="0.791" stop-color="#545EA0"/>
<stop offset="1" stop-color="#2D93BB"/>
</linearGradient>
<linearGradient id="paint4_linear_14_2535" x1="412.521" y1="104.964" x2="23.1506" y2="106.171" gradientUnits="userSpaceOnUse">
<stop offset="0.00119895" stop-color="#E73587"/>
<stop offset="0.5001" stop-color="#7F2483"/>
<stop offset="0.5983" stop-color="#73348B"/>
<stop offset="0.791" stop-color="#545EA0"/>
<stop offset="1" stop-color="#2D93BB"/>
</linearGradient>
<linearGradient id="paint5_linear_14_2535" x1="412.718" y1="77.6896" x2="23.3473" y2="78.897" gradientUnits="userSpaceOnUse">
<stop offset="0.00119895" stop-color="#E73587"/>
<stop offset="0.5001" stop-color="#7F2483"/>
<stop offset="0.5983" stop-color="#73348B"/>
<stop offset="0.791" stop-color="#545EA0"/>
<stop offset="1" stop-color="#2D93BB"/>
</linearGradient>
<linearGradient id="paint6_linear_14_2535" x1="410.149" y1="75.0601" x2="22.1099" y2="76.2633" gradientUnits="userSpaceOnUse">
<stop offset="0.00119895" stop-color="#E73587"/>
<stop offset="0.5001" stop-color="#7F2483"/>
<stop offset="0.5983" stop-color="#73348B"/>
<stop offset="0.791" stop-color="#545EA0"/>
<stop offset="1" stop-color="#2D93BB"/>
</linearGradient>
<linearGradient id="paint7_linear_14_2535" x1="393.257" y1="148.275" x2="36.6063" y2="149.38" gradientUnits="userSpaceOnUse">
<stop offset="0.00119895" stop-color="#E73587"/>
<stop offset="0.5001" stop-color="#7F2483"/>
<stop offset="0.5983" stop-color="#73348B"/>
<stop offset="0.791" stop-color="#545EA0"/>
<stop offset="1" stop-color="#2D93BB"/>
</linearGradient>
<linearGradient id="paint8_linear_14_2535" x1="413.887" y1="218.258" x2="24.5163" y2="219.465" gradientUnits="userSpaceOnUse">
<stop offset="0.00119895" stop-color="#E73587"/>
<stop offset="0.5001" stop-color="#7F2483"/>
<stop offset="0.5983" stop-color="#73348B"/>
<stop offset="0.791" stop-color="#545EA0"/>
<stop offset="1" stop-color="#2D93BB"/>
</linearGradient>
<linearGradient id="paint9_linear_14_2535" x1="413.172" y1="155.101" x2="23.8015" y2="156.308" gradientUnits="userSpaceOnUse">
<stop offset="0.00119895" stop-color="#E73587"/>
<stop offset="0.5001" stop-color="#7F2483"/>
<stop offset="0.5983" stop-color="#73348B"/>
<stop offset="0.791" stop-color="#545EA0"/>
<stop offset="1" stop-color="#2D93BB"/>
</linearGradient>
<linearGradient id="paint10_linear_14_2535" x1="366.83" y1="166.793" x2="159.556" y2="-162.831" gradientUnits="userSpaceOnUse">
<stop offset="0.00119895" stop-color="#E73587"/>
<stop offset="0.5001" stop-color="#7F2483"/>
<stop offset="0.5983" stop-color="#73348B"/>
<stop offset="0.791" stop-color="#545EA0"/>
<stop offset="1" stop-color="#2D93BB"/>
</linearGradient>
<linearGradient id="paint11_linear_14_2535" x1="22.554" y1="149.743" x2="444.523" y2="138.877" gradientUnits="userSpaceOnUse">
<stop stop-color="#2993BE"/>
<stop offset="0.0776092" stop-color="#2F9ABC"/>
<stop offset="0.1896" stop-color="#40ADB7"/>
<stop offset="0.2086" stop-color="#43B1B6"/>
<stop offset="0.2405" stop-color="#4FB1AE"/>
<stop offset="0.2985" stop-color="#70B199"/>
<stop offset="0.3762" stop-color="#A4B277"/>
<stop offset="0.4696" stop-color="#EDB248"/>
<stop offset="0.4836" stop-color="#F8B241"/>
<stop offset="0.5305" stop-color="#F7AB43"/>
<stop offset="0.6009" stop-color="#F49647"/>
<stop offset="0.6858" stop-color="#EE744E"/>
<stop offset="0.7585" stop-color="#E95255"/>
<stop offset="0.8236" stop-color="#E94E5A"/>
<stop offset="0.9043" stop-color="#E8446A"/>
<stop offset="0.993" stop-color="#E73383"/>
<stop offset="1" stop-color="#E73185"/>
</linearGradient>
<linearGradient id="paint12_linear_14_2535" x1="24.0992" y1="209.749" x2="446.068" y2="198.883" gradientUnits="userSpaceOnUse">
<stop stop-color="#2993BE"/>
<stop offset="0.0776092" stop-color="#2F9ABC"/>
<stop offset="0.1896" stop-color="#40ADB7"/>
<stop offset="0.2086" stop-color="#43B1B6"/>
<stop offset="0.2405" stop-color="#4FB1AE"/>
<stop offset="0.2985" stop-color="#70B199"/>
<stop offset="0.3762" stop-color="#A4B277"/>
<stop offset="0.4696" stop-color="#EDB248"/>
<stop offset="0.4836" stop-color="#F8B241"/>
<stop offset="0.5305" stop-color="#F7AB43"/>
<stop offset="0.6009" stop-color="#F49647"/>
<stop offset="0.6858" stop-color="#EE744E"/>
<stop offset="0.7585" stop-color="#E95255"/>
<stop offset="0.8236" stop-color="#E94E5A"/>
<stop offset="0.9043" stop-color="#E8446A"/>
<stop offset="0.993" stop-color="#E73383"/>
<stop offset="1" stop-color="#E73185"/>
</linearGradient>
<linearGradient id="paint13_linear_14_2535" x1="23.374" y1="181.59" x2="445.343" y2="170.724" gradientUnits="userSpaceOnUse">
<stop stop-color="#2993BE"/>
<stop offset="0.0776092" stop-color="#2F9ABC"/>
<stop offset="0.1896" stop-color="#40ADB7"/>
<stop offset="0.2086" stop-color="#43B1B6"/>
<stop offset="0.2405" stop-color="#4FB1AE"/>
<stop offset="0.2985" stop-color="#70B199"/>
<stop offset="0.3762" stop-color="#A4B277"/>
<stop offset="0.4696" stop-color="#EDB248"/>
<stop offset="0.4836" stop-color="#F8B241"/>
<stop offset="0.5305" stop-color="#F7AB43"/>
<stop offset="0.6009" stop-color="#F49647"/>
<stop offset="0.6858" stop-color="#EE744E"/>
<stop offset="0.7585" stop-color="#E95255"/>
<stop offset="0.8236" stop-color="#E94E5A"/>
<stop offset="0.9043" stop-color="#E8446A"/>
<stop offset="0.993" stop-color="#E73383"/>
<stop offset="1" stop-color="#E73185"/>
</linearGradient>
<linearGradient id="paint14_linear_14_2535" x1="24.3084" y1="217.873" x2="446.277" y2="207.007" gradientUnits="userSpaceOnUse">
<stop stop-color="#2993BE"/>
<stop offset="0.0776092" stop-color="#2F9ABC"/>
<stop offset="0.1896" stop-color="#40ADB7"/>
<stop offset="0.2086" stop-color="#43B1B6"/>
<stop offset="0.2405" stop-color="#4FB1AE"/>
<stop offset="0.2985" stop-color="#70B199"/>
<stop offset="0.3762" stop-color="#A4B277"/>
<stop offset="0.4696" stop-color="#EDB248"/>
<stop offset="0.4836" stop-color="#F8B241"/>
<stop offset="0.5305" stop-color="#F7AB43"/>
<stop offset="0.6009" stop-color="#F49647"/>
<stop offset="0.6858" stop-color="#EE744E"/>
<stop offset="0.7585" stop-color="#E95255"/>
<stop offset="0.8236" stop-color="#E94E5A"/>
<stop offset="0.9043" stop-color="#E8446A"/>
<stop offset="0.993" stop-color="#E73383"/>
<stop offset="1" stop-color="#E73185"/>
</linearGradient>
<linearGradient id="paint15_linear_14_2535" x1="24.696" y1="232.925" x2="446.665" y2="222.059" gradientUnits="userSpaceOnUse">
<stop stop-color="#2993BE"/>
<stop offset="0.0776092" stop-color="#2F9ABC"/>
<stop offset="0.1896" stop-color="#40ADB7"/>
<stop offset="0.2086" stop-color="#43B1B6"/>
<stop offset="0.2405" stop-color="#4FB1AE"/>
<stop offset="0.2985" stop-color="#70B199"/>
<stop offset="0.3762" stop-color="#A4B277"/>
<stop offset="0.4696" stop-color="#EDB248"/>
<stop offset="0.4836" stop-color="#F8B241"/>
<stop offset="0.5305" stop-color="#F7AB43"/>
<stop offset="0.6009" stop-color="#F49647"/>
<stop offset="0.6858" stop-color="#EE744E"/>
<stop offset="0.7585" stop-color="#E95255"/>
<stop offset="0.8236" stop-color="#E94E5A"/>
<stop offset="0.9043" stop-color="#E8446A"/>
<stop offset="0.993" stop-color="#E73383"/>
<stop offset="1" stop-color="#E73185"/>
</linearGradient>
<linearGradient id="paint16_linear_14_2535" x1="22.6872" y1="156.615" x2="444.656" y2="145.749" gradientUnits="userSpaceOnUse">
<stop stop-color="#2993BE"/>
<stop offset="0.0776092" stop-color="#2F9ABC"/>
<stop offset="0.1896" stop-color="#40ADB7"/>
<stop offset="0.2086" stop-color="#43B1B6"/>
<stop offset="0.2405" stop-color="#4FB1AE"/>
<stop offset="0.2985" stop-color="#70B199"/>
<stop offset="0.3762" stop-color="#A4B277"/>
<stop offset="0.4696" stop-color="#EDB248"/>
<stop offset="0.4836" stop-color="#F8B241"/>
<stop offset="0.5305" stop-color="#F7AB43"/>
<stop offset="0.6009" stop-color="#F49647"/>
<stop offset="0.6858" stop-color="#EE744E"/>
<stop offset="0.7585" stop-color="#E95255"/>
<stop offset="0.8236" stop-color="#E94E5A"/>
<stop offset="0.9043" stop-color="#E8446A"/>
<stop offset="0.993" stop-color="#E73383"/>
<stop offset="1" stop-color="#E73185"/>
</linearGradient>
<linearGradient id="paint17_linear_14_2535" x1="25.406" y1="260.497" x2="447.375" y2="249.631" gradientUnits="userSpaceOnUse">
<stop stop-color="#2993BE"/>
<stop offset="0.0776092" stop-color="#2F9ABC"/>
<stop offset="0.1896" stop-color="#40ADB7"/>
<stop offset="0.2086" stop-color="#43B1B6"/>
<stop offset="0.2405" stop-color="#4FB1AE"/>
<stop offset="0.2985" stop-color="#70B199"/>
<stop offset="0.3762" stop-color="#A4B277"/>
<stop offset="0.4696" stop-color="#EDB248"/>
<stop offset="0.4836" stop-color="#F8B241"/>
<stop offset="0.5305" stop-color="#F7AB43"/>
<stop offset="0.6009" stop-color="#F49647"/>
<stop offset="0.6858" stop-color="#EE744E"/>
<stop offset="0.7585" stop-color="#E95255"/>
<stop offset="0.8236" stop-color="#E94E5A"/>
<stop offset="0.9043" stop-color="#E8446A"/>
<stop offset="0.993" stop-color="#E73383"/>
<stop offset="1" stop-color="#E73185"/>
</linearGradient>
<linearGradient id="paint18_linear_14_2535" x1="23.6099" y1="190.75" x2="445.579" y2="179.884" gradientUnits="userSpaceOnUse">
<stop stop-color="#2993BE"/>
<stop offset="0.0776092" stop-color="#2F9ABC"/>
<stop offset="0.1896" stop-color="#40ADB7"/>
<stop offset="0.2086" stop-color="#43B1B6"/>
<stop offset="0.2405" stop-color="#4FB1AE"/>
<stop offset="0.2985" stop-color="#70B199"/>
<stop offset="0.3762" stop-color="#A4B277"/>
<stop offset="0.4696" stop-color="#EDB248"/>
<stop offset="0.4836" stop-color="#F8B241"/>
<stop offset="0.5305" stop-color="#F7AB43"/>
<stop offset="0.6009" stop-color="#F49647"/>
<stop offset="0.6858" stop-color="#EE744E"/>
<stop offset="0.7585" stop-color="#E95255"/>
<stop offset="0.8236" stop-color="#E94E5A"/>
<stop offset="0.9043" stop-color="#E8446A"/>
<stop offset="0.993" stop-color="#E73383"/>
<stop offset="1" stop-color="#E73185"/>
</linearGradient>
<linearGradient id="paint19_linear_14_2535" x1="24.4485" y1="223.318" x2="446.418" y2="212.452" gradientUnits="userSpaceOnUse">
<stop stop-color="#2993BE"/>
<stop offset="0.0776092" stop-color="#2F9ABC"/>
<stop offset="0.1896" stop-color="#40ADB7"/>
<stop offset="0.2086" stop-color="#43B1B6"/>
<stop offset="0.2405" stop-color="#4FB1AE"/>
<stop offset="0.2985" stop-color="#70B199"/>
<stop offset="0.3762" stop-color="#A4B277"/>
<stop offset="0.4696" stop-color="#EDB248"/>
<stop offset="0.4836" stop-color="#F8B241"/>
<stop offset="0.5305" stop-color="#F7AB43"/>
<stop offset="0.6009" stop-color="#F49647"/>
<stop offset="0.6858" stop-color="#EE744E"/>
<stop offset="0.7585" stop-color="#E95255"/>
<stop offset="0.8236" stop-color="#E94E5A"/>
<stop offset="0.9043" stop-color="#E8446A"/>
<stop offset="0.993" stop-color="#E73383"/>
<stop offset="1" stop-color="#E73185"/>
</linearGradient>
<linearGradient id="paint20_linear_14_2535" x1="26.392" y1="298.79" x2="448.361" y2="287.923" gradientUnits="userSpaceOnUse">
<stop stop-color="#2993BE"/>
<stop offset="0.0776092" stop-color="#2F9ABC"/>
<stop offset="0.1896" stop-color="#40ADB7"/>
<stop offset="0.2086" stop-color="#43B1B6"/>
<stop offset="0.2405" stop-color="#4FB1AE"/>
<stop offset="0.2985" stop-color="#70B199"/>
<stop offset="0.3762" stop-color="#A4B277"/>
<stop offset="0.4696" stop-color="#EDB248"/>
<stop offset="0.4836" stop-color="#F8B241"/>
<stop offset="0.5305" stop-color="#F7AB43"/>
<stop offset="0.6009" stop-color="#F49647"/>
<stop offset="0.6858" stop-color="#EE744E"/>
<stop offset="0.7585" stop-color="#E95255"/>
<stop offset="0.8236" stop-color="#E94E5A"/>
<stop offset="0.9043" stop-color="#E8446A"/>
<stop offset="0.993" stop-color="#E73383"/>
<stop offset="1" stop-color="#E73185"/>
</linearGradient>
<linearGradient id="paint21_linear_14_2535" x1="24.9895" y1="244.326" x2="446.959" y2="233.46" gradientUnits="userSpaceOnUse">
<stop stop-color="#2993BE"/>
<stop offset="0.0776092" stop-color="#2F9ABC"/>
<stop offset="0.1896" stop-color="#40ADB7"/>
<stop offset="0.2086" stop-color="#43B1B6"/>
<stop offset="0.2405" stop-color="#4FB1AE"/>
<stop offset="0.2985" stop-color="#70B199"/>
<stop offset="0.3762" stop-color="#A4B277"/>
<stop offset="0.4696" stop-color="#EDB248"/>
<stop offset="0.4836" stop-color="#F8B241"/>
<stop offset="0.5305" stop-color="#F7AB43"/>
<stop offset="0.6009" stop-color="#F49647"/>
<stop offset="0.6858" stop-color="#EE744E"/>
<stop offset="0.7585" stop-color="#E95255"/>
<stop offset="0.8236" stop-color="#E94E5A"/>
<stop offset="0.9043" stop-color="#E8446A"/>
<stop offset="0.993" stop-color="#E73383"/>
<stop offset="1" stop-color="#E73185"/>
</linearGradient>
</defs>
</svg>
