<svg width="46" height="46" viewBox="0 0 46 46" fill="none" xmlns="http://www.w3.org/2000/svg">
<mask id="mask0_14_2516" style="mask-type:alpha" maskUnits="userSpaceOnUse" x="0" y="0" width="46" height="46">
<rect width="46" height="46" fill="#D9D9D9"/>
</mask>
<g mask="url(#mask0_14_2516)">
<path fill-rule="evenodd" clip-rule="evenodd" d="M7.29193 9.29193C8.09485 8.48901 9.39665 8.48901 10.1996 9.29194L13.2836 12.376C14.0865 13.1789 14.0865 14.4807 13.2836 15.2836C12.4807 16.0865 11.1789 16.0865 10.3759 15.2836L7.29193 12.1996C6.489 11.3967 6.489 10.0949 7.29193 9.29193ZM1.5497 22.0538C1.5497 20.9183 2.47021 19.9978 3.60571 19.9978L7.71774 19.9978C8.85325 19.9978 9.77376 20.9183 9.77376 22.0538C9.77376 23.1893 8.85325 24.1098 7.71774 24.1098L3.60571 24.1098C2.47021 24.1098 1.5497 23.1893 1.5497 22.0538ZM17.9978 5.60572C17.9978 4.47022 18.9183 3.54971 20.0538 3.54971C21.1893 3.54971 22.1098 4.47022 22.1098 5.60572V9.71775C22.1098 10.8533 21.1893 11.7738 20.0538 11.7738C18.9183 11.7738 17.9978 10.8533 17.9978 9.71775L17.9978 5.60572ZM7.29193 34.8157C6.489 34.0128 6.489 32.711 7.29193 31.9081L10.3759 28.8241C11.1789 28.0211 12.4807 28.0211 13.2836 28.8241C14.0865 29.627 14.0865 30.9288 13.2836 31.7317L10.1996 34.8157C9.39665 35.6187 8.09485 35.6187 7.29193 34.8157ZM26.8241 15.2836C26.0211 14.4807 26.0211 13.1789 26.8241 12.376L29.9081 9.29193C30.711 8.48901 32.0128 8.48901 32.8157 9.29193C33.6186 10.0949 33.6186 11.3967 32.8157 12.1996L29.7317 15.2836C28.9288 16.0865 27.627 16.0865 26.8241 15.2836ZM18.2447 23.8869C17.2664 21.3833 19.7361 18.9136 22.2397 19.8919L41.4686 27.406C44.0833 28.4278 44.0842 32.1275 41.4699 33.1505L34.3064 35.9536L31.5033 43.1172C30.4803 45.7314 26.7806 45.7305 25.7588 43.1158L18.2447 23.8869ZM22.9289 24.5761L28.632 39.1706L30.8049 33.6175C31.0139 33.0835 31.4363 32.6611 31.9703 32.4521L37.5234 30.2792L22.9289 24.5761Z" fill="url(#paint0_linear_14_2516)"/>
</g>
<defs>
<linearGradient id="paint0_linear_14_2516" x1="7.29193" y1="9.29193" x2="36.5" y2="38.5" gradientUnits="userSpaceOnUse">
<stop stop-color="#E94B57"/>
<stop offset="1" stop-color="#E94B57"/>
</linearGradient>
</defs>
</svg>
