<svg width="46" height="46" viewBox="0 0 46 46" fill="none" xmlns="http://www.w3.org/2000/svg">
<mask id="mask0_14_2528" style="mask-type:alpha" maskUnits="userSpaceOnUse" x="0" y="0" width="46" height="46">
<rect width="46" height="46" fill="#D9D9D9"/>
</mask>
<g mask="url(#mask0_14_2528)">
<path fill-rule="evenodd" clip-rule="evenodd" d="M23 11.7511C18.408 11.7511 14.4407 14.3847 12.5964 18.2C12.2988 18.8156 11.6836 19.225 10.9891 19.2696C6.99407 19.5258 3.83333 22.7802 3.83333 26.7554C3.83333 30.7765 7.06703 34.0595 11.1274 34.2489L36.7488 34.2484C39.7691 34.0808 42.1667 31.6293 42.1667 28.631C42.1667 25.5275 39.5991 23.011 36.4292 23.0043L36.308 23.006C35.344 23.0193 34.52 22.3298 34.3837 21.396C33.5875 15.9435 28.7924 11.7511 23 11.7511ZM9.63132 15.6502C12.2586 11.0873 17.2591 8 23 8C30.1853 8 36.2138 12.8347 37.8779 19.3616C42.4771 20.0501 46 23.9379 46 28.631C46 33.6537 41.9655 37.7533 36.8934 37.9972C36.8621 37.9987 36.8307 37.9995 36.7994 37.9995L11.0843 38C11.0571 38 11.0298 37.9994 11.0026 37.9983C4.88128 37.7426 0 32.8073 0 26.7554C0 21.1629 4.16803 16.5243 9.63132 15.6502Z" fill="url(#paint0_linear_14_2528)"/>
</g>
<defs>
<linearGradient id="paint0_linear_14_2528" x1="23" y1="8" x2="23" y2="38" gradientUnits="userSpaceOnUse">
<stop stop-color="#E94B57"/>
<stop offset="1" stop-color="#E94B57"/>
</linearGradient>
</defs>
</svg>
