<svg width="46" height="46" viewBox="0 0 46 46" fill="none" xmlns="http://www.w3.org/2000/svg">
<mask id="mask0_14_2534" style="mask-type:alpha" maskUnits="userSpaceOnUse" x="0" y="0" width="46" height="46">
<rect width="46" height="46" fill="#D9D9D9"/>
</mask>
<g mask="url(#mask0_14_2534)">
<path fill-rule="evenodd" clip-rule="evenodd" d="M23 6.09524C20.1936 6.09524 17.8326 8.06981 17.1795 10.7388C16.9111 11.8358 15.8249 12.5023 14.7534 12.2274C13.6819 11.9526 13.031 10.8406 13.2994 9.74358C14.3878 5.29596 18.3154 2 23 2C28.5228 2 33 6.58375 33 12.2381L33 16.3333C36.3137 16.3333 39 19.0836 39 22.4762V38.8571C39 42.2498 36.3137 45 33 45H13C9.68629 45 7 42.2498 7 38.8571V22.4762C7 19.0836 9.68629 16.3333 13 16.3333H29V12.2381C29 8.84549 26.3137 6.09524 23 6.09524ZM13 20.4286C11.8954 20.4286 11 21.3453 11 22.4762V38.8571C11 39.988 11.8954 40.9048 13 40.9048H33C34.1046 40.9048 35 39.988 35 38.8571V22.4762C35 21.3453 34.1046 20.4286 33 20.4286H13ZM23 26.5714C24.1046 26.5714 25 27.4882 25 28.619V32.7143C25 33.8452 24.1046 34.7619 23 34.7619C21.8954 34.7619 21 33.8452 21 32.7143V28.619C21 27.4882 21.8954 26.5714 23 26.5714Z" fill="url(#paint0_linear_14_2534)"/>
</g>
<defs>
<linearGradient id="paint0_linear_14_2534" x1="23" y1="2" x2="23" y2="45" gradientUnits="userSpaceOnUse">
<stop stop-color="#E94B57"/>
<stop offset="1" stop-color="#E94B57"/>
</linearGradient>
</defs>
</svg>
