<svg width="46" height="46" viewBox="0 0 46 46" fill="none" xmlns="http://www.w3.org/2000/svg">
<mask id="mask0_14_2524" style="mask-type:alpha" maskUnits="userSpaceOnUse" x="0" y="0" width="46" height="46">
<rect width="46" height="46" fill="#D9D9D9"/>
</mask>
<g mask="url(#mask0_14_2524)">
<path fill-rule="evenodd" clip-rule="evenodd" d="M22.8812 6.20097C24.3122 4.54885 26.3402 4 28.4496 4C30.559 4 32.587 4.54885 34.018 6.20097C35.3873 7.78175 35.8555 9.97797 35.8555 12.4444C35.8555 14.9109 35.3873 17.1071 34.018 18.6879C32.587 20.34 30.559 20.8889 28.4496 20.8889C26.3402 20.8889 24.3122 20.34 22.8812 18.6879C21.5119 17.1071 21.0437 14.9109 21.0437 12.4444C21.0437 9.97797 21.5119 7.78175 22.8812 6.20097ZM26.0831 8.96173C25.6891 9.41666 25.2756 10.3871 25.2756 12.4444C25.2756 14.5018 25.6891 15.4722 26.0831 15.9272C26.4154 16.3108 27.0324 16.6667 28.4496 16.6667C29.8668 16.6667 30.4838 16.3108 30.8161 15.9272C31.2101 15.4722 31.6235 14.5018 31.6235 12.4444C31.6235 10.3871 31.2101 9.41666 30.8161 8.96173C30.4838 8.57814 29.8668 8.22222 28.4496 8.22222C27.0324 8.22222 26.4154 8.57814 26.0831 8.96173ZM9.40589 13.5C10.5745 13.5 11.5219 14.4452 11.5219 15.6111V18.7778H14.6958C15.8644 18.7778 16.8118 19.723 16.8118 20.8889C16.8118 22.0548 15.8644 23 14.6958 23H11.5219V26.1667C11.5219 27.3326 10.5745 28.2778 9.40589 28.2778C8.23727 28.2778 7.28992 27.3326 7.28992 26.1667V23H4.11597C2.94735 23 2 22.0548 2 20.8889C2 19.723 2.94735 18.7778 4.11597 18.7778H7.28992V15.6111C7.28992 14.4452 8.23727 13.5 9.40589 13.5ZM20.3731 31.1106C18.7433 32.1658 17.684 33.7571 17.1674 36.1388C17.0837 36.5249 17.1889 36.879 17.4868 37.1923C17.8068 37.5289 18.3292 37.7778 18.9277 37.7778H37.9714C38.57 37.7778 39.0924 37.5289 39.4124 37.1923C39.7103 36.879 39.8155 36.5249 39.7317 36.1388C39.2152 33.7571 38.1558 32.1658 36.5261 31.1106C34.8237 30.0083 32.2553 29.3333 28.4496 29.3333C24.6439 29.3333 22.0755 30.0083 20.3731 31.1106ZM18.0693 27.5689C20.7274 25.8478 24.2217 25.1111 28.4496 25.1111C32.6774 25.1111 36.1718 25.8478 38.8299 27.5689C41.5607 29.337 43.1598 31.9808 43.8679 35.2458C44.7213 39.1801 41.2857 42 37.9714 42H18.9277C15.6135 42 12.1779 39.1801 13.0312 35.2458C13.7394 31.9808 15.3385 29.337 18.0693 27.5689Z" fill="url(#paint0_linear_14_2524)"/>
</g>
<defs>
<linearGradient id="paint0_linear_14_2524" x1="23" y1="4" x2="23" y2="42" gradientUnits="userSpaceOnUse">
<stop stop-color="#E94B57"/>
<stop offset="1" stop-color="#E94B57"/>
</linearGradient>
</defs>
</svg>
