<svg width="46" height="46" viewBox="0 0 46 46" fill="none" xmlns="http://www.w3.org/2000/svg">
<mask id="mask0_14_2531" style="mask-type:alpha" maskUnits="userSpaceOnUse" x="0" y="0" width="46" height="46">
<rect x="6.10352e-05" width="46" height="46" fill="#D9D9D9"/>
</mask>
<g mask="url(#mask0_14_2531)">
<path fill-rule="evenodd" clip-rule="evenodd" d="M42.4142 4.41421C42.8012 4.80121 43.0186 5.3261 43.0186 5.87341C43.0186 5.92381 43.0186 5.97418 43.0186 6.0245C43.0189 9.00643 43.0191 11.8496 42.1577 14.7209C41.3346 17.4648 39.7758 20.1023 37.0006 23.0422L37.7683 26.881C38.5802 30.9404 37.3096 35.1371 34.3823 38.0644L31.967 40.4797C30.028 42.4186 26.7724 41.9627 25.4407 39.5657L21.7506 32.9235L13.9049 25.0778L7.26274 21.3877C4.86576 20.056 4.40978 16.8004 6.3487 14.8614L8.76398 12.4462C11.6913 9.51882 15.888 8.24818 19.9475 9.06008L23.7863 9.82784C26.7261 7.05266 29.3637 5.49384 32.1075 4.67068C34.9788 3.8093 37.822 3.80953 40.8039 3.80978C40.8542 3.80978 40.9046 3.80979 40.955 3.80979C41.5023 3.80979 42.0272 4.0272 42.4142 4.41421ZM20.6749 13.4146L19.138 13.1072C16.4317 12.5659 13.6339 13.413 11.6824 15.3646L9.26711 17.7798L14.6545 20.7728L20.6749 13.4146ZM17.9395 23.2756L23.5857 28.9218C23.5876 28.9204 23.5894 28.9189 23.5913 28.9175C24.4704 28.231 25.6658 27.2923 26.9324 26.2822C29.5134 24.2239 32.2453 21.9829 33.3049 20.9232C36.2292 17.9989 37.5539 15.7038 38.2046 13.5349C38.7196 11.8182 38.8486 10.0844 38.8808 7.94765C36.744 7.97982 35.0102 8.10884 33.2935 8.62386C31.1425 9.26917 28.8672 10.5775 25.9771 13.4518L17.9395 23.2756ZM26.0772 32.2128L29.0486 37.5613L31.4638 35.146C33.4154 33.1945 34.2625 30.3967 33.7212 27.6904L33.4441 26.3046C32.2099 27.3379 30.8009 28.4762 29.5057 29.509C28.2249 30.5305 27.0179 31.4783 26.1314 32.1705C26.1132 32.1847 26.0951 32.1988 26.0772 32.2128ZM33.1279 13.7015C33.9338 14.5074 33.9338 15.814 33.1279 16.6199L31.0643 18.6836C30.2584 19.4894 28.9518 19.4894 28.1459 18.6836C27.34 17.8777 27.34 16.571 28.1459 15.7651L30.2095 13.7015C31.0154 12.8956 32.322 12.8956 33.1279 13.7015ZM12.0643 32.7005H11.3206C10.3369 32.7005 9.48992 33.3948 9.297 34.3594L8.50401 38.3244L12.469 37.5314C13.4336 37.3385 14.1279 36.4915 14.1279 35.5079L14.1279 34.7641C14.1279 33.6244 13.204 32.7005 12.0643 32.7005ZM12.0643 28.5733C15.4834 28.5733 18.2551 31.345 18.2551 34.7641L18.2551 35.5079C18.2551 38.4589 16.1722 40.9998 13.2784 41.5785L6.27811 42.9786C5.60153 43.1139 4.90208 42.9021 4.41419 42.4142C3.9263 41.9263 3.71453 41.2269 3.84985 40.5503L5.2499 33.55C5.82866 30.6563 8.36949 28.5733 11.3206 28.5733L12.0643 28.5733Z" fill="url(#paint0_linear_14_2531)"/>
</g>
<defs>
<linearGradient id="paint0_linear_14_2531" x1="42.4142" y1="4.41421" x2="4.4142" y2="42.4142" gradientUnits="userSpaceOnUse">
<stop stop-color="#E94B57"/>
<stop offset="1" stop-color="#E94B57"/>
</linearGradient>
</defs>
</svg>
